<svg width="200" height="32" viewBox="0 0 200 32" fill="none" xmlns="http://www.w3.org/2000/svg">
<g id="logo">
<g id="clindoc.uz">
<path d="M8.11429 21.2191C8.16508 22.5143 8.57143 23.5556 9.33333 24.3429C10.1206 25.1302 11.2762 25.5238 12.8 25.5238C13.6381 25.5238 14.3873 25.3714 15.0476 25.0667C15.7079 24.7365 16.3175 24.254 16.8762 23.6191C19.0349 24.4572 21.5619 25.181 24.4571 25.7905C23.619 27.7461 22.1968 29.2699 20.1905 30.3619C18.2095 31.454 15.6317 32 12.4571 32C8.21588 32 5.07937 31.0095 3.04762 29.0286C1.01588 27.0476 2.86102e-06 24.4445 2.86102e-06 21.2191C2.86102e-06 17.9937 1.01588 15.3905 3.04762 13.4095C5.07937 11.4286 8.21588 10.4381 12.4571 10.4381C15.6317 10.4381 18.2095 10.9841 20.1905 12.0762C22.1968 13.1683 23.619 14.6921 24.4571 16.6476C22.1968 17.1302 19.6698 17.854 16.8762 18.8191C16.3175 18.1841 15.7079 17.7143 15.0476 17.4095C14.3873 17.0794 13.6381 16.9143 12.8 16.9143C11.2762 16.9143 10.1206 17.308 9.33333 18.0953C8.57143 18.8826 8.16508 19.9238 8.11429 21.2191Z" fill="#002168"/>
<path d="M36.2679 16.381C36.2425 17.9048 36.2298 20.2413 36.2298 23.3905C36.2298 27.1746 36.2552 29.9175 36.3059 31.6191H27.3155L27.3536 27.3143C27.4044 22.5905 27.4298 18.9461 27.4298 16.381C27.4298 13.9429 27.4044 10.4889 27.3536 6.01907L27.3155 1.90479H36.3059C36.2552 5.51113 36.2298 8.45717 36.2298 10.7429C36.2298 13.2826 36.2425 15.1619 36.2679 16.381Z" fill="#002168"/>
<path d="M40.0548 31.6191C40.2325 27.5302 40.3214 24.1524 40.3214 21.4857C40.3214 18.3111 40.2198 14.7556 40.0167 10.8191H49.1595C48.9563 14.6032 48.8548 18.1588 48.8548 21.4857C48.8548 24.2794 48.9436 27.6572 49.1214 31.6191H40.0548Z" fill="#002168"/>
<path d="M67.4702 31.6191C67.6226 27.8857 67.6988 24.4445 67.6988 21.2953C67.6988 20.1778 67.4194 19.2889 66.8607 18.6286C66.3274 17.9683 65.6417 17.6381 64.8036 17.6381C63.9655 17.6381 63.2544 18.0191 62.6702 18.781C62.0861 19.5175 61.7433 20.5334 61.6417 21.8286C61.5909 23.7588 61.5655 25.1302 61.5655 25.9429C61.5655 27.6699 61.6163 29.5619 61.7178 31.6191H52.6131C52.8163 27.9619 52.9178 24.508 52.9178 21.2572C52.9178 18.0064 52.8163 14.527 52.6131 10.8191C54.2893 10.8953 55.5718 10.9334 56.4607 10.9334C57.4004 10.9334 58.6829 10.8953 60.3083 10.8191L61.4131 16.4191C61.9972 14.3873 62.9115 12.8889 64.1559 11.9238C65.4004 10.9334 66.848 10.4381 68.4988 10.4381C70.0226 10.4381 71.3433 10.781 72.4607 11.4667C73.5782 12.127 74.4163 13.0286 74.975 14.1715C75.5591 15.3143 75.8512 16.5968 75.8512 18.0191V23.5048C75.8512 26.8826 75.9147 29.5873 76.0417 31.6191H67.4702Z" fill="#002168"/>
<path d="M104.015 1.98097C103.863 6.70478 103.787 11.6445 103.787 16.8C103.787 21.9048 103.863 26.8445 104.015 31.6191H95.4059L95.5202 27.0476C94.7837 28.7492 93.7171 30.0064 92.3202 30.8191C90.9234 31.6064 89.2726 32 87.3679 32C85.7171 32 84.2313 31.5302 82.9107 30.5905C81.5901 29.6508 80.5615 28.381 79.825 26.781C79.0885 25.1556 78.7202 23.3778 78.7202 21.4476C78.7202 19.5429 79.0885 17.7524 79.825 16.0762C80.5615 14.3746 81.5901 13.0159 82.9107 12C84.2567 10.9588 85.7805 10.4381 87.4821 10.4381C89.4631 10.4381 91.152 10.8572 92.5488 11.6953C93.971 12.508 95.025 13.7778 95.7107 15.5048C95.7107 14.0572 95.6599 11.7334 95.5583 8.53336C95.4567 5.43494 95.4059 3.25082 95.4059 1.98097H104.015ZM91.3679 25.6C92.6123 25.6 93.6282 25.2572 94.4155 24.5715C95.2028 23.8603 95.5964 22.7429 95.5964 21.2191C95.5964 19.873 95.2028 18.8826 94.4155 18.2476C93.6282 17.6127 92.6377 17.2953 91.444 17.2953C90.3012 17.2953 89.3361 17.6635 88.5488 18.4C87.7869 19.1111 87.4059 20.0508 87.4059 21.2191C87.4059 22.5143 87.7615 23.5683 88.4726 24.381C89.1837 25.1937 90.1488 25.6 91.3679 25.6Z" fill="#002168"/>
<path d="M119.344 32C115.001 32 111.801 31.0095 109.744 29.0286C107.712 27.0222 106.696 24.3937 106.696 21.1429C106.696 17.9683 107.712 15.3905 109.744 13.4095C111.801 11.4286 115.001 10.4381 119.344 10.4381C122.265 10.4381 124.703 10.9207 126.658 11.8857C128.639 12.8254 130.1 14.108 131.039 15.7334C131.979 17.3334 132.449 19.1365 132.449 21.1429C132.449 24.4191 131.357 27.0476 129.173 29.0286C127.014 31.0095 123.738 32 119.344 32ZM119.496 25.5238C121.147 25.5238 122.379 25.1302 123.192 24.3429C124.004 23.5556 124.411 22.5016 124.411 21.181C124.411 19.9365 124.004 18.9207 123.192 18.1334C122.379 17.3207 121.147 16.9143 119.496 16.9143C117.846 16.9143 116.639 17.308 115.877 18.0953C115.115 18.8826 114.735 19.9111 114.735 21.181C114.735 22.5016 115.115 23.5556 115.877 24.3429C116.639 25.1302 117.846 25.5238 119.496 25.5238Z" fill="#002168"/>
<path d="M142.861 21.2191C142.912 22.5143 143.318 23.5556 144.08 24.3429C144.868 25.1302 146.023 25.5238 147.547 25.5238C148.385 25.5238 149.134 25.3714 149.795 25.0667C150.455 24.7365 151.064 24.254 151.623 23.6191C153.782 24.4572 156.309 25.181 159.204 25.7905C158.366 27.7461 156.944 29.2699 154.937 30.3619C152.957 31.454 150.379 32 147.204 32C142.963 32 139.826 31.0095 137.795 29.0286C135.763 27.0476 134.747 24.4445 134.747 21.2191C134.747 17.9937 135.763 15.3905 137.795 13.4095C139.826 11.4286 142.963 10.4381 147.204 10.4381C150.379 10.4381 152.957 10.9841 154.937 12.0762C156.944 13.1683 158.366 14.6921 159.204 16.6476C156.944 17.1302 154.417 17.854 151.623 18.8191C151.064 18.1841 150.455 17.7143 149.795 17.4095C149.134 17.0794 148.385 16.9143 147.547 16.9143C146.023 16.9143 144.868 17.308 144.08 18.0953C143.318 18.8826 142.912 19.9238 142.861 21.2191Z" fill="#002168"/>
<path d="M163.816 31.8601C163.109 31.8601 162.507 31.611 162.009 31.1129C161.511 30.5988 161.262 29.9882 161.262 29.2813C161.262 28.5743 161.511 27.9718 162.009 27.4737C162.507 26.9756 163.109 26.7266 163.816 26.7266C164.507 26.7266 165.102 26.9836 165.6 27.4978C166.114 27.9959 166.371 28.5904 166.371 29.2813C166.371 29.9882 166.114 30.5988 165.6 31.1129C165.102 31.611 164.507 31.8601 163.816 31.8601Z" fill="#002168"/>
<path d="M182.891 18.4599C182.779 20.4844 182.723 22.6695 182.723 25.0154C182.723 27.3773 182.779 29.5785 182.891 31.6191C181.863 31.5709 181.052 31.5468 180.457 31.5468C179.895 31.5468 179.083 31.5709 178.023 31.6191L177.324 28.0762C176.955 29.3616 176.376 30.3176 175.589 30.9442C174.802 31.5548 173.886 31.8601 172.841 31.8601C171.877 31.8601 171.042 31.6512 170.335 31.2335C169.628 30.7996 169.09 30.2212 168.72 29.4982C168.367 28.7751 168.19 27.9637 168.19 27.064V23.5934C168.19 21.4564 168.15 19.7453 168.069 18.4599H173.492C173.396 20.8218 173.347 23.1596 173.347 25.4733C173.347 26.1803 173.516 26.7426 173.854 27.1604C174.207 27.5781 174.649 27.787 175.179 27.787C175.677 27.787 176.111 27.5701 176.481 27.1363C176.866 26.6864 177.099 26.0758 177.18 25.3046V24.7503C177.212 23.497 177.228 22.6294 177.228 22.1474C177.228 21.0387 177.196 19.8095 177.131 18.4599H182.891Z" fill="#002168"/>
<path d="M191.599 27.5701C192.917 27.538 194.227 27.4898 195.528 27.4255C197.135 27.3612 198.316 27.321 199.071 27.305C198.942 28.1565 198.878 29.5946 198.878 31.6191H184.972V27.5701C185.663 27.1845 186.41 26.7105 187.213 26.1481C188.016 25.5858 189.053 24.8467 190.322 23.9308C190.997 23.4167 191.559 23.007 192.009 22.7017C190.917 22.7177 189.438 22.774 187.575 22.8704C186.305 22.9347 185.438 22.9748 184.972 22.9909C184.972 20.87 184.923 19.3597 184.827 18.4599H198.878V22.5089C197.882 23.1676 196.717 23.979 195.383 24.9431C193.439 26.3249 192.178 27.2005 191.599 27.5701Z" fill="#002168"/>
</g>
<path id="clindoc.uz_2" d="M40.8929 7.39047C41.6802 8.17778 42.8738 8.57143 44.4738 8.57143C46.0484 8.57143 47.2294 8.17778 48.0167 7.39047C48.804 6.60317 49.1976 5.5746 49.1976 4.30476C49.1976 3.08571 48.7913 2.06984 47.9786 1.25714C47.1659 0.419047 45.9976 0 44.4738 0C42.8738 0 41.6802 0.40635 40.8929 1.21905C40.131 2.03175 39.75 3.06032 39.75 4.30476C39.75 5.5746 40.131 6.60317 40.8929 7.39047Z" fill="#1D7ED8"/>
</g>
</svg>
