<svg width="175" height="28" viewBox="0 0 175 28" fill="none" xmlns="http://www.w3.org/2000/svg">
<g id="logo">
<g id="clindoc.uz">
<path d="M7.1 18.5677C7.14444 19.701 7.5 20.6121 8.16667 21.301C8.85556 21.9899 9.86667 22.3343 11.2 22.3343C11.9333 22.3343 12.5889 22.201 13.1667 21.9343C13.7444 21.6455 14.2778 21.2232 14.7667 20.6677C16.6556 21.401 18.8667 22.0343 21.4 22.5677C20.6667 24.2788 19.4222 25.6121 17.6667 26.5676C15.9333 27.5232 13.6778 28.0009 10.9 28.0009C7.18889 28.0009 4.44444 27.1343 2.66667 25.401C0.888889 23.6677 0 21.3899 0 18.5677C0 15.7456 0.888889 13.4678 2.66667 11.7345C4.44444 10.0012 7.18889 9.13453 10.9 9.13453C13.6778 9.13453 15.9333 9.6123 17.6667 10.5678C19.4222 11.5234 20.6667 12.8567 21.4 14.5678C19.4222 14.99 17.2111 15.6233 14.7667 16.4678C14.2778 15.9122 13.7444 15.5011 13.1667 15.2344C12.5889 14.9456 11.9333 14.8011 11.2 14.8011C9.86667 14.8011 8.85556 15.1456 8.16667 15.8344C7.5 16.5233 7.14444 17.4344 7.1 18.5677Z" fill="white"/>
<path d="M31.7344 14.3345C31.7122 15.6678 31.701 17.7122 31.701 20.4677C31.701 23.7788 31.7233 26.1787 31.7677 27.6676H23.901L23.9344 23.901C23.9788 19.7677 24.001 16.5789 24.001 14.3345C24.001 12.2012 23.9788 9.17897 23.9344 5.26792L23.901 1.66797H31.7677C31.7233 4.82348 31.701 7.40122 31.701 9.40119C31.701 11.6234 31.7122 13.2678 31.7344 14.3345Z" fill="white"/>
<path d="M35.0479 27.6676C35.2035 24.0899 35.2812 21.1344 35.2812 18.8011C35.2812 16.0233 35.1924 12.9123 35.0146 9.46786H43.0146C42.8368 12.7789 42.7479 15.89 42.7479 18.8011C42.7479 21.2455 42.8257 24.201 42.9812 27.6676H35.0479Z" fill="white"/>
<path d="M59.0365 27.6676C59.1698 24.401 59.2365 21.3899 59.2365 18.6344C59.2365 17.6566 58.992 16.8789 58.5031 16.3011C58.0365 15.7233 57.4365 15.4344 56.7031 15.4344C55.9698 15.4344 55.3476 15.7678 54.8365 16.4344C54.3253 17.0789 54.0253 17.9677 53.9365 19.1011C53.892 20.7899 53.8698 21.9899 53.8698 22.701C53.8698 24.2121 53.9142 25.8676 54.0031 27.6676H46.0365C46.2142 24.4676 46.3031 21.4455 46.3031 18.6011C46.3031 15.7567 46.2142 12.7123 46.0365 9.46786C47.5031 9.53452 48.6253 9.56786 49.4031 9.56786C50.2253 9.56786 51.3476 9.53452 52.7698 9.46786L53.7365 14.3678C54.2476 12.59 55.0476 11.2789 56.1365 10.4345C57.2253 9.56786 58.492 9.13453 59.9365 9.13453C61.2698 9.13453 62.4253 9.43453 63.4031 10.0345C64.3809 10.6123 65.1142 11.4012 65.6031 12.4012C66.1142 13.4011 66.3698 14.5233 66.3698 15.7678V20.5677C66.3698 23.5232 66.4253 25.8899 66.5365 27.6676H59.0365Z" fill="white"/>
<path d="M91.0135 1.73463C90.8802 5.86791 90.8135 10.1901 90.8135 14.7011C90.8135 19.1677 90.8802 23.4899 91.0135 27.6676H83.4802L83.5802 23.6677C82.9358 25.1565 82.0024 26.2565 80.7802 26.9676C79.558 27.6565 78.1135 28.0009 76.4469 28.0009C75.0024 28.0009 73.7024 27.5898 72.5469 26.7676C71.3913 25.9454 70.4913 24.8343 69.8469 23.4343C69.2024 22.0121 68.8802 20.4566 68.8802 18.7677C68.8802 17.1011 69.2024 15.5344 69.8469 14.0678C70.4913 12.5789 71.3913 11.3901 72.5469 10.5012C73.7246 9.59008 75.058 9.13453 76.5469 9.13453C78.2802 9.13453 79.758 9.50119 80.9802 10.2345C82.2246 10.9456 83.1469 12.0567 83.7469 13.5678C83.7469 12.3012 83.7024 10.2678 83.6135 7.46789C83.5246 4.75681 83.4802 2.84573 83.4802 1.73463H91.0135ZM79.9469 22.401C81.0358 22.401 81.9247 22.101 82.6135 21.501C83.3024 20.8788 83.6469 19.901 83.6469 18.5677C83.6469 17.39 83.3024 16.5233 82.6135 15.9678C81.9247 15.4122 81.058 15.1344 80.0135 15.1344C79.0135 15.1344 78.1691 15.4567 77.4802 16.1011C76.8135 16.7233 76.4802 17.5455 76.4802 18.5677C76.4802 19.701 76.7913 20.6233 77.4135 21.3344C78.0358 22.0455 78.8802 22.401 79.9469 22.401Z" fill="white"/>
<path d="M104.426 28.0009C100.626 28.0009 97.826 27.1343 96.026 25.401C94.2483 23.6454 93.3594 21.3455 93.3594 18.5011C93.3594 15.7233 94.2483 13.4678 96.026 11.7345C97.826 10.0012 100.626 9.13453 104.426 9.13453C106.982 9.13453 109.115 9.55675 110.826 10.4012C112.559 11.2234 113.837 12.3456 114.659 13.7678C115.482 15.1678 115.893 16.7455 115.893 18.5011C115.893 21.3677 114.937 23.6677 113.026 25.401C111.137 27.1343 108.27 28.0009 104.426 28.0009ZM104.559 22.3343C106.004 22.3343 107.082 21.9899 107.793 21.301C108.504 20.6121 108.859 19.6899 108.859 18.5344C108.859 17.4455 108.504 16.5566 107.793 15.8678C107.082 15.1567 106.004 14.8011 104.559 14.8011C103.115 14.8011 102.059 15.1456 101.393 15.8344C100.726 16.5233 100.393 17.4233 100.393 18.5344C100.393 19.6899 100.726 20.6121 101.393 21.301C102.059 21.9899 103.115 22.3343 104.559 22.3343Z" fill="white"/>
<path d="M125.004 18.5677C125.048 19.701 125.404 20.6121 126.07 21.301C126.759 21.9899 127.77 22.3343 129.104 22.3343C129.837 22.3343 130.493 22.201 131.07 21.9343C131.648 21.6455 132.181 21.2232 132.67 20.6677C134.559 21.401 136.77 22.0343 139.304 22.5677C138.57 24.2788 137.326 25.6121 135.57 26.5676C133.837 27.5232 131.581 28.0009 128.804 28.0009C125.093 28.0009 122.348 27.1343 120.57 25.401C118.793 23.6677 117.904 21.3899 117.904 18.5677C117.904 15.7456 118.793 13.4678 120.57 11.7345C122.348 10.0012 125.093 9.13453 128.804 9.13453C131.581 9.13453 133.837 9.6123 135.57 10.5678C137.326 11.5234 138.57 12.8567 139.304 14.5678C137.326 14.99 135.115 15.6233 132.67 16.4678C132.181 15.9122 131.648 15.5011 131.07 15.2344C130.493 14.9456 129.837 14.8011 129.104 14.8011C127.77 14.8011 126.759 15.1456 126.07 15.8344C125.404 16.5233 125.048 17.4344 125.004 18.5677Z" fill="white"/>
<path d="M143.339 27.8785C142.721 27.8785 142.194 27.6606 141.758 27.2248C141.322 26.7749 141.104 26.2406 141.104 25.6221C141.104 25.0035 141.322 24.4763 141.758 24.0404C142.194 23.6046 142.721 23.3867 143.339 23.3867C143.944 23.3867 144.464 23.6117 144.9 24.0615C145.35 24.4974 145.575 25.0175 145.575 25.6221C145.575 26.2406 145.35 26.7749 144.9 27.2248C144.464 27.6606 143.944 27.8785 143.339 27.8785Z" fill="white"/>
<path d="M160.03 16.1535C159.932 17.9249 159.882 19.8369 159.882 21.8895C159.882 23.9561 159.932 25.8821 160.03 27.6676C159.13 27.6254 158.42 27.6043 157.9 27.6043C157.408 27.6043 156.698 27.6254 155.77 27.6676L155.159 24.5676C154.835 25.6924 154.329 26.5288 153.64 27.0771C152.951 27.6114 152.15 27.8785 151.236 27.8785C150.393 27.8785 149.662 27.6957 149.043 27.3302C148.424 26.9506 147.953 26.4445 147.63 25.8118C147.321 25.1792 147.166 24.4692 147.166 23.6819V20.6453C147.166 18.7754 147.131 17.2782 147.061 16.1535H151.806C151.721 18.2201 151.679 20.2657 151.679 22.2901C151.679 22.9087 151.827 23.4008 152.122 23.7663C152.431 24.1318 152.818 24.3146 153.282 24.3146C153.718 24.3146 154.097 24.1248 154.421 23.7452C154.758 23.3516 154.962 22.8173 155.032 22.1425V21.6575C155.06 20.5609 155.074 19.8017 155.074 19.38C155.074 18.4099 155.046 17.3344 154.99 16.1535H160.03Z" fill="white"/>
<path d="M167.65 24.1248C168.802 24.0967 169.948 24.0545 171.087 23.9983C172.493 23.942 173.526 23.9069 174.187 23.8928C174.075 24.6379 174.018 25.8962 174.018 27.6676H161.85V24.1248C162.455 23.7874 163.109 23.3727 163.811 22.8806C164.514 22.3885 165.421 21.7418 166.532 20.9405C167.122 20.4906 167.614 20.1321 168.008 19.865C167.052 19.8791 165.759 19.9283 164.128 20.0126C163.017 20.0688 162.258 20.104 161.85 20.1181C161.85 18.2623 161.808 16.9408 161.724 16.1535H174.018V19.6963C173.147 20.2727 172.127 20.9827 170.96 21.8262C169.259 23.0352 168.156 23.8014 167.65 24.1248Z" fill="white"/>
</g>
<path id="clindoc.uz_2" d="M35.7814 6.46658C36.4703 7.15546 37.5148 7.49989 38.9148 7.49989C40.2925 7.49989 41.3259 7.15546 42.0148 6.46658C42.7037 5.7777 43.0481 4.87771 43.0481 3.76661C43.0481 2.69996 42.6925 1.81108 41.9814 1.09998C41.2703 0.366661 40.2481 0 38.9148 0C37.5148 0 36.4703 0.355551 35.7814 1.06665C35.1148 1.77775 34.7814 2.67774 34.7814 3.76661C34.7814 4.87771 35.1148 5.7777 35.7814 6.46658Z" fill="white"/>
</g>
</svg>
