<svg width="20" height="21" viewBox="0 0 20 21" fill="none" xmlns="http://www.w3.org/2000/svg">
<g id="map">
<g id="Subtract" opacity="0.4">
<path d="M14.75 9.15151V19.8914C16.4424 19.4354 18.2888 18.1679 19.2778 17.4201C19.7446 17.0672 20 16.5105 20 15.9253V6.25588C20 5.40243 18.9721 4.90752 18.2637 5.38354C17.576 5.8457 16.7481 6.34347 15.9024 6.71597C15.8843 6.77018 15.8658 6.82421 15.847 6.87804C15.5779 7.64449 15.2039 8.42966 14.75 9.15151Z" fill="#00C896"/>
</g>
<g id="Subtract_2">
<path d="M6.75 9.9751V16.8355C8.0281 16.9423 9.01405 17.6924 10 18.4424C10.9859 19.1924 11.9719 19.9425 13.25 20.0493V10.9771C12.5035 11.6497 11.5564 12.1942 10.462 12.1942C9.48212 12.1942 8.62635 11.7526 7.95708 11.2181C7.51478 10.8649 7.11057 10.4378 6.75 9.9751Z" fill="#00C896"/>
</g>
<g id="Subtract_3" opacity="0.4">
<path d="M4.58941 4.44751C3.09544 5.00775 1.58355 6.05326 0.72215 6.70459C0.255375 7.05753 0 7.61424 0 8.19943V17.8688C0 18.7223 1.0279 19.2172 1.73627 18.7412C2.73646 18.069 4.03308 17.3216 5.25 16.9937V7.33709C4.8583 6.36316 4.6092 5.35043 4.58941 4.44751Z" fill="#00C896"/>
</g>
<path id="Subtract_4" fill-rule="evenodd" clip-rule="evenodd" d="M14.5677 6.42959C14.8297 5.68317 14.9801 4.95086 14.9801 4.33274C14.9801 1.93714 12.9571 -0.00488281 10.4617 -0.00488281C8.14685 -0.00488281 6.23857 1.66628 5.97454 3.82043C5.95395 3.98845 5.94336 4.15941 5.94336 4.33274C5.94336 6.72834 8.20254 10.8392 10.4617 10.8392C12.138 10.8392 13.8142 8.57603 14.5677 6.42959ZM10.4617 5.41709C11.2103 5.41709 11.8172 4.81021 11.8172 4.06158C11.8172 3.31295 11.2103 2.70607 10.4617 2.70607C9.71308 2.70607 9.1062 3.31295 9.1062 4.06158C9.1062 4.81021 9.71308 5.41709 10.4617 5.41709Z" fill="#00C896"/>
</g>
</svg>
