<svg width="256" height="256" viewBox="0 0 256 256" fill="none" xmlns="http://www.w3.org/2000/svg">
<g clip-path="url(#clip0_2853_33061)">
<path d="M256 0H0V256H256V0Z" fill="white"/>
<path d="M22.0541 16H16V22.0541H22.0541V16Z" fill="black"/>
<path d="M28.1081 16H22.0541V22.0541H28.1081V16Z" fill="black"/>
<path d="M34.1622 16H28.1081V22.0541H34.1622V16Z" fill="black"/>
<path d="M40.2162 16H34.1622V22.0541H40.2162V16Z" fill="black"/>
<path d="M46.2703 16H40.2162V22.0541H46.2703V16Z" fill="black"/>
<path d="M52.3243 16H46.2703V22.0541H52.3243V16Z" fill="black"/>
<path d="M58.3784 16H52.3243V22.0541H58.3784V16Z" fill="black"/>
<path d="M70.4865 16H64.4324V22.0541H70.4865V16Z" fill="black"/>
<path d="M76.5405 16H70.4865V22.0541H76.5405V16Z" fill="black"/>
<path d="M94.7027 16H88.6487V22.0541H94.7027V16Z" fill="black"/>
<path d="M106.811 16H100.757V22.0541H106.811V16Z" fill="black"/>
<path d="M124.973 16H118.919V22.0541H124.973V16Z" fill="black"/>
<path d="M131.027 16H124.973V22.0541H131.027V16Z" fill="black"/>
<path d="M137.081 16H131.027V22.0541H137.081V16Z" fill="black"/>
<path d="M143.135 16H137.081V22.0541H143.135V16Z" fill="black"/>
<path d="M173.405 16H167.351V22.0541H173.405V16Z" fill="black"/>
<path d="M179.459 16H173.405V22.0541H179.459V16Z" fill="black"/>
<path d="M185.514 16H179.459V22.0541H185.514V16Z" fill="black"/>
<path d="M191.568 16H185.514V22.0541H191.568V16Z" fill="black"/>
<path d="M203.676 16H197.622V22.0541H203.676V16Z" fill="black"/>
<path d="M209.73 16H203.676V22.0541H209.73V16Z" fill="black"/>
<path d="M215.784 16H209.73V22.0541H215.784V16Z" fill="black"/>
<path d="M221.838 16H215.784V22.0541H221.838V16Z" fill="black"/>
<path d="M227.892 16H221.838V22.0541H227.892V16Z" fill="black"/>
<path d="M233.946 16H227.892V22.0541H233.946V16Z" fill="black"/>
<path d="M240 16H233.946V22.0541H240V16Z" fill="black"/>
<path d="M22.0541 22.0541H16V28.1081H22.0541V22.0541Z" fill="black"/>
<path d="M58.3784 22.0541H52.3243V28.1081H58.3784V22.0541Z" fill="black"/>
<path d="M76.5405 22.0541H70.4865V28.1081H76.5405V22.0541Z" fill="black"/>
<path d="M94.7027 22.0541H88.6487V28.1081H94.7027V22.0541Z" fill="black"/>
<path d="M100.757 22.0541H94.7027V28.1081H100.757V22.0541Z" fill="black"/>
<path d="M106.811 22.0541H100.757V28.1081H106.811V22.0541Z" fill="black"/>
<path d="M112.865 22.0541H106.811V28.1081H112.865V22.0541Z" fill="black"/>
<path d="M118.919 22.0541H112.865V28.1081H118.919L118.919 22.0541Z" fill="black"/>
<path d="M131.027 22.0541H124.973L124.973 28.1081H131.027V22.0541Z" fill="black"/>
<path d="M137.081 22.0541H131.027V28.1081H137.081V22.0541Z" fill="black"/>
<path d="M149.189 22.0541H143.135V28.1081H149.189V22.0541Z" fill="black"/>
<path d="M155.243 22.0541H149.189V28.1081H155.243V22.0541Z" fill="black"/>
<path d="M161.297 22.0541H155.243V28.1081H161.297V22.0541Z" fill="black"/>
<path d="M167.351 22.0541H161.297V28.1081H167.351V22.0541Z" fill="black"/>
<path d="M203.676 22.0541H197.622V28.1081H203.676V22.0541Z" fill="black"/>
<path d="M240 22.0541H233.946V28.1081H240V22.0541Z" fill="black"/>
<path d="M22.0541 28.1081H16V34.1622H22.0541V28.1081Z" fill="black"/>
<path d="M34.1622 28.1081H28.1081V34.1622H34.1622V28.1081Z" fill="black"/>
<path d="M40.2162 28.1081H34.1622V34.1622H40.2162V28.1081Z" fill="black"/>
<path d="M46.2703 28.1081H40.2162V34.1622H46.2703V28.1081Z" fill="black"/>
<path d="M58.3784 28.1081H52.3243V34.1622H58.3784V28.1081Z" fill="black"/>
<path d="M70.4865 28.1081H64.4324V34.1622H70.4865V28.1081Z" fill="black"/>
<path d="M82.5946 28.1081H76.5405V34.1622H82.5946V28.1081Z" fill="black"/>
<path d="M88.6487 28.1081H82.5946V34.1622H88.6486L88.6487 28.1081Z" fill="black"/>
<path d="M94.7027 28.1081H88.6487L88.6486 34.1622H94.7027V28.1081Z" fill="black"/>
<path d="M112.865 28.1081H106.811L106.811 34.1622H112.865V28.1081Z" fill="black"/>
<path d="M118.919 28.1081H112.865V34.1622H118.919V28.1081Z" fill="black"/>
<path d="M124.973 28.1081H118.919V34.1622H124.973L124.973 28.1081Z" fill="black"/>
<path d="M131.027 28.1081H124.973L124.973 34.1622H131.027V28.1081Z" fill="black"/>
<path d="M137.081 28.1081H131.027V34.1622H137.081V28.1081Z" fill="black"/>
<path d="M143.135 28.1081H137.081V34.1622H143.135V28.1081Z" fill="black"/>
<path d="M149.189 28.1081H143.135V34.1622H149.189V28.1081Z" fill="black"/>
<path d="M167.351 28.1081H161.297V34.1622H167.351V28.1081Z" fill="black"/>
<path d="M173.405 28.1081H167.351V34.1622H173.405V28.1081Z" fill="black"/>
<path d="M179.459 28.1081H173.405V34.1622H179.459V28.1081Z" fill="black"/>
<path d="M191.568 28.1081H185.514V34.1622H191.568V28.1081Z" fill="black"/>
<path d="M203.676 28.1081H197.622V34.1622H203.676V28.1081Z" fill="black"/>
<path d="M215.784 28.1081H209.73V34.1622H215.784V28.1081Z" fill="black"/>
<path d="M221.838 28.1081H215.784V34.1622H221.838V28.1081Z" fill="black"/>
<path d="M227.892 28.1081H221.838V34.1622H227.892V28.1081Z" fill="black"/>
<path d="M240 28.1081H233.946V34.1622H240V28.1081Z" fill="black"/>
<path d="M22.0541 34.1622H16V40.2162H22.0541V34.1622Z" fill="black"/>
<path d="M34.1622 34.1622H28.1081V40.2162H34.1622V34.1622Z" fill="black"/>
<path d="M40.2162 34.1622H34.1622V40.2162H40.2162V34.1622Z" fill="black"/>
<path d="M46.2703 34.1622H40.2162V40.2162H46.2703V34.1622Z" fill="black"/>
<path d="M58.3784 34.1622H52.3243V40.2162H58.3784V34.1622Z" fill="black"/>
<path d="M70.4865 34.1622H64.4324V40.2162H70.4865V34.1622Z" fill="black"/>
<path d="M76.5405 34.1622H70.4865V40.2162H76.5405V34.1622Z" fill="black"/>
<path d="M82.5946 34.1622H76.5405V40.2162H82.5946V34.1622Z" fill="black"/>
<path d="M88.6486 34.1622H82.5946V40.2162H88.6486V34.1622Z" fill="black"/>
<path d="M94.7027 34.1622H88.6486V40.2162H94.7027V34.1622Z" fill="black"/>
<path d="M106.811 34.1622H100.757V40.2162H106.811L106.811 34.1622Z" fill="black"/>
<path d="M112.865 34.1622H106.811L106.811 40.2162H112.865V34.1622Z" fill="black"/>
<path d="M149.189 34.1622H143.135V40.2162H149.189V34.1622Z" fill="black"/>
<path d="M155.243 34.1622H149.189V40.2162H155.243V34.1622Z" fill="black"/>
<path d="M161.297 34.1622H155.243V40.2162H161.297V34.1622Z" fill="black"/>
<path d="M179.459 34.1622H173.405V40.2162H179.459V34.1622Z" fill="black"/>
<path d="M191.568 34.1622H185.514V40.2162H191.568V34.1622Z" fill="black"/>
<path d="M203.676 34.1622H197.622V40.2162H203.676V34.1622Z" fill="black"/>
<path d="M215.784 34.1622H209.73V40.2162H215.784V34.1622Z" fill="black"/>
<path d="M221.838 34.1622H215.784V40.2162H221.838V34.1622Z" fill="black"/>
<path d="M227.892 34.1622H221.838V40.2162H227.892V34.1622Z" fill="black"/>
<path d="M240 34.1622H233.946V40.2162H240V34.1622Z" fill="black"/>
<path d="M22.0541 40.2162H16V46.2703H22.0541V40.2162Z" fill="black"/>
<path d="M34.1622 40.2162H28.1081V46.2703H34.1622V40.2162Z" fill="black"/>
<path d="M40.2162 40.2162H34.1622V46.2703H40.2162V40.2162Z" fill="black"/>
<path d="M46.2703 40.2162H40.2162V46.2703H46.2703V40.2162Z" fill="black"/>
<path d="M58.3784 40.2162H52.3243V46.2703H58.3784V40.2162Z" fill="black"/>
<path d="M70.4865 40.2162H64.4324V46.2703H70.4865V40.2162Z" fill="black"/>
<path d="M76.5405 40.2162H70.4865V46.2703H76.5405V40.2162Z" fill="black"/>
<path d="M82.5946 40.2162H76.5405V46.2703H82.5946V40.2162Z" fill="black"/>
<path d="M94.7027 40.2162H88.6486L88.6487 46.2703H94.7027V40.2162Z" fill="black"/>
<path d="M106.811 40.2162H100.757V46.2703H106.811V40.2162Z" fill="black"/>
<path d="M118.919 40.2162H112.865L112.865 46.2703H118.919V40.2162Z" fill="black"/>
<path d="M137.081 40.2162H131.027V46.2703H137.081V40.2162Z" fill="black"/>
<path d="M143.135 40.2162H137.081V46.2703H143.135V40.2162Z" fill="black"/>
<path d="M149.189 40.2162H143.135V46.2703H149.189V40.2162Z" fill="black"/>
<path d="M161.297 40.2162H155.243V46.2703H161.297V40.2162Z" fill="black"/>
<path d="M167.351 40.2162H161.297V46.2703H167.351V40.2162Z" fill="black"/>
<path d="M179.459 40.2162H173.405V46.2703H179.459V40.2162Z" fill="black"/>
<path d="M203.676 40.2162H197.622V46.2703H203.676V40.2162Z" fill="black"/>
<path d="M215.784 40.2162H209.73V46.2703H215.784V40.2162Z" fill="black"/>
<path d="M221.838 40.2162H215.784V46.2703H221.838V40.2162Z" fill="black"/>
<path d="M227.892 40.2162H221.838V46.2703H227.892V40.2162Z" fill="black"/>
<path d="M240 40.2162H233.946V46.2703H240V40.2162Z" fill="black"/>
<path d="M22.0541 46.2703H16V52.3243H22.0541V46.2703Z" fill="black"/>
<path d="M58.3784 46.2703H52.3243V52.3243H58.3784V46.2703Z" fill="black"/>
<path d="M70.4865 46.2703H64.4324V52.3243H70.4865V46.2703Z" fill="black"/>
<path d="M82.5946 46.2703H76.5405V52.3243H82.5946V46.2703Z" fill="black"/>
<path d="M88.6487 46.2703H82.5946V52.3243H88.6486L88.6487 46.2703Z" fill="black"/>
<path d="M94.7027 46.2703H88.6487L88.6486 52.3243H94.7027V46.2703Z" fill="black"/>
<path d="M100.757 46.2703H94.7027V52.3243H100.757V46.2703Z" fill="black"/>
<path d="M124.973 46.2703H118.919L118.919 52.3243H124.973V46.2703Z" fill="black"/>
<path d="M131.027 46.2703H124.973V52.3243H131.027V46.2703Z" fill="black"/>
<path d="M137.081 46.2703H131.027V52.3243H137.081V46.2703Z" fill="black"/>
<path d="M149.189 46.2703H143.135V52.3243H149.189V46.2703Z" fill="black"/>
<path d="M155.243 46.2703H149.189V52.3243H155.243V46.2703Z" fill="black"/>
<path d="M161.297 46.2703H155.243V52.3243H161.297V46.2703Z" fill="black"/>
<path d="M167.351 46.2703H161.297V52.3243H167.351V46.2703Z" fill="black"/>
<path d="M179.459 46.2703H173.405V52.3243H179.459V46.2703Z" fill="black"/>
<path d="M185.514 46.2703H179.459V52.3243H185.514V46.2703Z" fill="black"/>
<path d="M203.676 46.2703H197.622V52.3243H203.676V46.2703Z" fill="black"/>
<path d="M240 46.2703H233.946V52.3243H240V46.2703Z" fill="black"/>
<path d="M22.0541 52.3243H16V58.3784H22.0541V52.3243Z" fill="black"/>
<path d="M28.1081 52.3243H22.0541V58.3784H28.1081V52.3243Z" fill="black"/>
<path d="M34.1622 52.3243H28.1081V58.3784H34.1622V52.3243Z" fill="black"/>
<path d="M40.2162 52.3243H34.1622V58.3784H40.2162V52.3243Z" fill="black"/>
<path d="M46.2703 52.3243H40.2162V58.3784H46.2703V52.3243Z" fill="black"/>
<path d="M52.3243 52.3243H46.2703V58.3784H52.3243V52.3243Z" fill="black"/>
<path d="M58.3784 52.3243H52.3243V58.3784H58.3784V52.3243Z" fill="black"/>
<path d="M70.4865 52.3243H64.4324V58.3784H70.4865V52.3243Z" fill="black"/>
<path d="M82.5946 52.3243H76.5405V58.3784H82.5946V52.3243Z" fill="black"/>
<path d="M94.7027 52.3243H88.6486L88.6487 58.3784H94.7027V52.3243Z" fill="black"/>
<path d="M106.811 52.3243H100.757V58.3784H106.811V52.3243Z" fill="black"/>
<path d="M118.919 52.3243H112.865V58.3784H118.919L118.919 52.3243Z" fill="black"/>
<path d="M131.027 52.3243H124.973L124.973 58.3784H131.027V52.3243Z" fill="black"/>
<path d="M143.135 52.3243H137.081V58.3784H143.135V52.3243Z" fill="black"/>
<path d="M155.243 52.3243H149.189V58.3784H155.243V52.3243Z" fill="black"/>
<path d="M167.351 52.3243H161.297V58.3784H167.351V52.3243Z" fill="black"/>
<path d="M179.459 52.3243H173.405V58.3784H179.459V52.3243Z" fill="black"/>
<path d="M191.568 52.3243H185.514V58.3784H191.568V52.3243Z" fill="black"/>
<path d="M203.676 52.3243H197.622V58.3784H203.676V52.3243Z" fill="black"/>
<path d="M209.73 52.3243H203.676V58.3784H209.73V52.3243Z" fill="black"/>
<path d="M215.784 52.3243H209.73V58.3784H215.784V52.3243Z" fill="black"/>
<path d="M221.838 52.3243H215.784V58.3784H221.838V52.3243Z" fill="black"/>
<path d="M227.892 52.3243H221.838V58.3784H227.892V52.3243Z" fill="black"/>
<path d="M233.946 52.3243H227.892V58.3784H233.946V52.3243Z" fill="black"/>
<path d="M240 52.3243H233.946V58.3784H240V52.3243Z" fill="black"/>
<path d="M82.5946 58.3784H76.5405V64.4324H82.5946V58.3784Z" fill="black"/>
<path d="M88.6487 58.3784H82.5946V64.4324H88.6486L88.6487 58.3784Z" fill="black"/>
<path d="M100.757 58.3784H94.7027L94.7027 64.4324H100.757V58.3784Z" fill="black"/>
<path d="M106.811 58.3784H100.757V64.4324H106.811V58.3784Z" fill="black"/>
<path d="M112.865 58.3784H106.811V64.4324H112.865L112.865 58.3784Z" fill="black"/>
<path d="M118.919 58.3784H112.865L112.865 64.4324H118.919V58.3784Z" fill="black"/>
<path d="M131.027 58.3784H124.973V64.4324H131.027V58.3784Z" fill="black"/>
<path d="M143.135 58.3784H137.081V64.4324H143.135V58.3784Z" fill="black"/>
<path d="M149.189 58.3784H143.135V64.4324H149.189V58.3784Z" fill="black"/>
<path d="M161.297 58.3784H155.243V64.4324H161.297V58.3784Z" fill="black"/>
<path d="M167.351 58.3784H161.297V64.4324H167.351V58.3784Z" fill="black"/>
<path d="M173.405 58.3784H167.351V64.4324H173.405V58.3784Z" fill="black"/>
<path d="M191.568 58.3784H185.514V64.4324H191.568V58.3784Z" fill="black"/>
<path d="M34.1622 64.4324H28.1081V70.4865H34.1622V64.4324Z" fill="black"/>
<path d="M40.2162 64.4324H34.1622V70.4865H40.2162V64.4324Z" fill="black"/>
<path d="M46.2703 64.4324H40.2162V70.4865H46.2703V64.4324Z" fill="black"/>
<path d="M52.3243 64.4324H46.2703V70.4865H52.3243V64.4324Z" fill="black"/>
<path d="M58.3784 64.4324H52.3243V70.4865H58.3784V64.4324Z" fill="black"/>
<path d="M64.4324 64.4324H58.3784V70.4865H64.4324V64.4324Z" fill="black"/>
<path d="M82.5946 64.4324H76.5405V70.4865H82.5946V64.4324Z" fill="black"/>
<path d="M88.6486 64.4324H82.5946V70.4865H88.6486V64.4324Z" fill="black"/>
<path d="M94.7027 64.4324H88.6486V70.4865H94.7027L94.7027 64.4324Z" fill="black"/>
<path d="M100.757 64.4324H94.7027L94.7027 70.4865H100.757V64.4324Z" fill="black"/>
<path d="M112.865 64.4324H106.811L106.811 70.4865H112.865V64.4324Z" fill="black"/>
<path d="M124.973 64.4324H118.919L118.919 70.4865H124.973L124.973 64.4324Z" fill="black"/>
<path d="M131.027 64.4324H124.973L124.973 70.4865H131.027V64.4324Z" fill="black"/>
<path d="M137.081 64.4324H131.027V70.4865H137.081V64.4324Z" fill="black"/>
<path d="M143.135 64.4324H137.081V70.4865H143.135V64.4324Z" fill="black"/>
<path d="M149.189 64.4324H143.135V70.4865H149.189V64.4324Z" fill="black"/>
<path d="M167.351 64.4324H161.297V70.4865H167.351V64.4324Z" fill="black"/>
<path d="M185.514 64.4324H179.459V70.4865H185.514V64.4324Z" fill="black"/>
<path d="M191.568 64.4324H185.514V70.4865H191.568V64.4324Z" fill="black"/>
<path d="M197.622 64.4324H191.568V70.4865H197.622V64.4324Z" fill="black"/>
<path d="M209.73 64.4324H203.676V70.4865H209.73V64.4324Z" fill="black"/>
<path d="M215.784 64.4324H209.73V70.4865H215.784V64.4324Z" fill="black"/>
<path d="M221.838 64.4324H215.784V70.4865H221.838V64.4324Z" fill="black"/>
<path d="M227.892 64.4324H221.838V70.4865H227.892V64.4324Z" fill="black"/>
<path d="M240 64.4324H233.946V70.4865H240V64.4324Z" fill="black"/>
<path d="M22.0541 70.4865H16V76.5405H22.0541V70.4865Z" fill="black"/>
<path d="M40.2162 70.4865H34.1622V76.5405H40.2162V70.4865Z" fill="black"/>
<path d="M64.4324 70.4865H58.3784V76.5405H64.4324V70.4865Z" fill="black"/>
<path d="M76.5405 70.4865H70.4865V76.5405H76.5405V70.4865Z" fill="black"/>
<path d="M82.5946 70.4865H76.5405V76.5405H82.5946V70.4865Z" fill="black"/>
<path d="M94.7027 70.4865H88.6486L88.6487 76.5405H94.7027V70.4865Z" fill="black"/>
<path d="M100.757 70.4865H94.7027V76.5405H100.757V70.4865Z" fill="black"/>
<path d="M106.811 70.4865H100.757V76.5405H106.811L106.811 70.4865Z" fill="black"/>
<path d="M131.027 70.4865H124.973L124.973 76.5405H131.027V70.4865Z" fill="black"/>
<path d="M137.081 70.4865H131.027V76.5405H137.081V70.4865Z" fill="black"/>
<path d="M143.135 70.4865H137.081V76.5405H143.135V70.4865Z" fill="black"/>
<path d="M155.243 70.4865H149.189V76.5405H155.243V70.4865Z" fill="black"/>
<path d="M179.459 70.4865H173.405V76.5405H179.459V70.4865Z" fill="black"/>
<path d="M191.568 70.4865H185.514V76.5405H191.568V70.4865Z" fill="black"/>
<path d="M197.622 70.4865H191.568V76.5405H197.622V70.4865Z" fill="black"/>
<path d="M215.784 70.4865H209.73V76.5405H215.784V70.4865Z" fill="black"/>
<path d="M221.838 70.4865H215.784V76.5405H221.838V70.4865Z" fill="black"/>
<path d="M40.2162 76.5405H34.1622V82.5946H40.2162V76.5405Z" fill="black"/>
<path d="M58.3784 76.5405H52.3243V82.5946H58.3784V76.5405Z" fill="black"/>
<path d="M70.4865 76.5405H64.4324V82.5946H70.4865V76.5405Z" fill="black"/>
<path d="M82.5946 76.5405H76.5405V82.5946H82.5946V76.5405Z" fill="black"/>
<path d="M94.7027 76.5405H88.6487V82.5946H94.7027V76.5405Z" fill="black"/>
<path d="M100.757 76.5405H94.7027V82.5946H100.757V76.5405Z" fill="black"/>
<path d="M118.919 76.5405H112.865V82.5946H118.919V76.5405Z" fill="black"/>
<path d="M131.027 76.5405H124.973V82.5946H131.027V76.5405Z" fill="black"/>
<path d="M143.135 76.5405H137.081V82.5946H143.135V76.5405Z" fill="black"/>
<path d="M155.243 76.5405H149.189V82.5946H155.243V76.5405Z" fill="black"/>
<path d="M167.351 76.5405H161.297V82.5946H167.351V76.5405Z" fill="black"/>
<path d="M173.405 76.5405H167.351V82.5946H173.405V76.5405Z" fill="black"/>
<path d="M179.459 76.5405H173.405V82.5946H179.459V76.5405Z" fill="black"/>
<path d="M185.514 76.5405H179.459V82.5946H185.514V76.5405Z" fill="black"/>
<path d="M191.568 76.5405H185.514V82.5946H191.568V76.5405Z" fill="black"/>
<path d="M221.838 76.5405H215.784V82.5946H221.838V76.5405Z" fill="black"/>
<path d="M240 76.5405H233.946V82.5946H240V76.5405Z" fill="black"/>
<path d="M28.1081 82.5946H22.0541V88.6486H28.1081V82.5946Z" fill="black"/>
<path d="M40.2162 82.5946H34.1622V88.6486H40.2162V82.5946Z" fill="black"/>
<path d="M52.3243 82.5946H46.2703V88.6486H52.3243V82.5946Z" fill="black"/>
<path d="M70.4865 82.5946H64.4324V88.6486H70.4865V82.5946Z" fill="black"/>
<path d="M94.7027 82.5946H88.6487V88.6486H94.7027V82.5946Z" fill="black"/>
<path d="M100.757 82.5946H94.7027V88.6486H100.757V82.5946Z" fill="black"/>
<path d="M106.811 82.5946H100.757V88.6486H106.811V82.5946Z" fill="black"/>
<path d="M118.919 82.5946H112.865V88.6486H118.919V82.5946Z" fill="black"/>
<path d="M124.973 82.5946H118.919V88.6486H124.973L124.973 82.5946Z" fill="black"/>
<path d="M137.081 82.5946H131.027V88.6486H137.081V82.5946Z" fill="black"/>
<path d="M143.135 82.5946H137.081V88.6486H143.135V82.5946Z" fill="black"/>
<path d="M149.189 82.5946H143.135V88.6486H149.189V82.5946Z" fill="black"/>
<path d="M155.243 82.5946H149.189V88.6486H155.243V82.5946Z" fill="black"/>
<path d="M191.568 82.5946H185.514V88.6486H191.568V82.5946Z" fill="black"/>
<path d="M209.73 82.5946H203.676V88.6486H209.73V82.5946Z" fill="black"/>
<path d="M215.784 82.5946H209.73V88.6486H215.784V82.5946Z" fill="black"/>
<path d="M221.838 82.5946H215.784V88.6486H221.838V82.5946Z" fill="black"/>
<path d="M227.892 82.5946H221.838V88.6486H227.892V82.5946Z" fill="black"/>
<path d="M233.946 82.5946H227.892V88.6486H233.946V82.5946Z" fill="black"/>
<path d="M240 82.5946H233.946V88.6486H240V82.5946Z" fill="black"/>
<path d="M28.1081 88.6486H22.0541V94.7027H28.1081V88.6486Z" fill="black"/>
<path d="M40.2162 88.6486H34.1622V94.7027H40.2162V88.6486Z" fill="black"/>
<path d="M46.2703 88.6486H40.2162V94.7027H46.2703V88.6486Z" fill="black"/>
<path d="M52.3243 88.6486H46.2703V94.7027H52.3243V88.6486Z" fill="black"/>
<path d="M58.3784 88.6487L52.3243 88.6486V94.7027H58.3784V88.6487Z" fill="black"/>
<path d="M70.4865 88.6486H64.4324V94.7027H70.4865V88.6486Z" fill="black"/>
<path d="M94.7027 88.6486H88.6487V94.7027H94.7027V88.6486Z" fill="black"/>
<path d="M106.811 88.6486H100.757V94.7027H106.811V88.6486Z" fill="black"/>
<path d="M124.973 88.6486H118.919L118.919 94.7027H124.973V88.6486Z" fill="black"/>
<path d="M131.027 88.6486H124.973V94.7027H131.027V88.6486Z" fill="black"/>
<path d="M137.081 88.6486H131.027V94.7027H137.081V88.6486Z" fill="black"/>
<path d="M149.189 88.6486H143.135V94.7027H149.189V88.6486Z" fill="black"/>
<path d="M173.405 88.6487H167.351V94.7027H173.405V88.6487Z" fill="black"/>
<path d="M179.459 88.6487H173.405V94.7027H179.459V88.6487Z" fill="black"/>
<path d="M191.568 88.6486H185.514V94.7027H191.568V88.6486Z" fill="black"/>
<path d="M209.73 88.6486H203.676V94.7027H209.73V88.6486Z" fill="black"/>
<path d="M215.784 88.6486H209.73V94.7027H215.784V88.6486Z" fill="black"/>
<path d="M28.1081 94.7027H22.0541V100.757H28.1081V94.7027Z" fill="black"/>
<path d="M34.1622 94.7027H28.1081V100.757H34.1622V94.7027Z" fill="black"/>
<path d="M40.2162 94.7027H34.1622V100.757H40.2162V94.7027Z" fill="black"/>
<path d="M82.5946 94.7027H76.5405V100.757H82.5946V94.7027Z" fill="black"/>
<path d="M106.811 94.7027H100.757V100.757H106.811V94.7027Z" fill="black"/>
<path d="M118.919 94.7027L112.865 94.7027V100.757H118.919L118.919 94.7027Z" fill="black"/>
<path d="M143.135 94.7027H137.081V100.757H143.135V94.7027Z" fill="black"/>
<path d="M155.243 94.7027L149.189 94.7027V100.757H155.243V94.7027Z" fill="black"/>
<path d="M173.405 94.7027H167.351V100.757H173.405V94.7027Z" fill="black"/>
<path d="M179.459 94.7027H173.405V100.757H179.459V94.7027Z" fill="black"/>
<path d="M191.568 94.7027H185.514V100.757H191.568V94.7027Z" fill="black"/>
<path d="M197.622 94.7027L191.568 94.7027V100.757H197.622V94.7027Z" fill="black"/>
<path d="M209.73 94.7027H203.676V100.757H209.73V94.7027Z" fill="black"/>
<path d="M221.838 94.7027L215.784 94.7027V100.757H221.838V94.7027Z" fill="black"/>
<path d="M240 94.7027H233.946V100.757H240V94.7027Z" fill="black"/>
<path d="M28.1081 100.757H22.0541V106.811H28.1081V100.757Z" fill="black"/>
<path d="M34.1622 100.757H28.1081V106.811H34.1622V100.757Z" fill="black"/>
<path d="M40.2162 100.757H34.1622V106.811H40.2162V100.757Z" fill="black"/>
<path d="M52.3243 100.757H46.2703V106.811H52.3243V100.757Z" fill="black"/>
<path d="M58.3784 100.757H52.3243V106.811H58.3784V100.757Z" fill="black"/>
<path d="M64.4324 100.757H58.3784V106.811H64.4324V100.757Z" fill="black"/>
<path d="M82.5946 100.757H76.5405V106.811H82.5946V100.757Z" fill="black"/>
<path d="M88.6486 100.757H82.5946V106.811H88.6486V100.757Z" fill="black"/>
<path d="M100.757 100.757H94.7027V106.811H100.757V100.757Z" fill="black"/>
<path d="M106.811 100.757H100.757V106.811H106.811V100.757Z" fill="black"/>
<path d="M124.973 100.757H118.919L118.919 106.811H124.973V100.757Z" fill="black"/>
<path d="M143.135 100.757H137.081V106.811H143.135V100.757Z" fill="black"/>
<path d="M149.189 100.757H143.135V106.811H149.189V100.757Z" fill="black"/>
<path d="M155.243 100.757H149.189V106.811H155.243V100.757Z" fill="black"/>
<path d="M167.351 100.757H161.297V106.811H167.351V100.757Z" fill="black"/>
<path d="M173.405 100.757H167.351V106.811H173.405V100.757Z" fill="black"/>
<path d="M179.459 100.757H173.405V106.811H179.459V100.757Z" fill="black"/>
<path d="M209.73 100.757H203.676V106.811H209.73V100.757Z" fill="black"/>
<path d="M215.784 100.757H209.73V106.811H215.784V100.757Z" fill="black"/>
<path d="M221.838 100.757H215.784V106.811H221.838V100.757Z" fill="black"/>
<path d="M227.892 100.757H221.838V106.811H227.892V100.757Z" fill="black"/>
<path d="M233.946 100.757H227.892V106.811H233.946V100.757Z" fill="black"/>
<path d="M240 100.757H233.946V106.811H240V100.757Z" fill="black"/>
<path d="M22.0541 106.811L16 106.811V112.865H22.0541V106.811Z" fill="black"/>
<path d="M28.1081 106.811H22.0541V112.865H28.1081V106.811Z" fill="black"/>
<path d="M40.2162 106.811H34.1622V112.865H40.2162V106.811Z" fill="black"/>
<path d="M46.2703 106.811H40.2162V112.865H46.2703V106.811Z" fill="black"/>
<path d="M76.5405 106.811L70.4865 106.811V112.865H76.5405V106.811Z" fill="black"/>
<path d="M106.811 106.811H100.757V112.865H106.811V106.811Z" fill="black"/>
<path d="M112.865 106.811L106.811 106.811V112.865H112.865V106.811Z" fill="black"/>
<path d="M124.973 106.811H118.919V112.865H124.973V106.811Z" fill="black"/>
<path d="M131.027 106.811L124.973 106.811V112.865H131.027V106.811Z" fill="black"/>
<path d="M137.081 106.811L131.027 106.811V112.865H137.081V106.811Z" fill="black"/>
<path d="M143.135 106.811H137.081V112.865H143.135V106.811Z" fill="black"/>
<path d="M155.243 106.811H149.189V112.865H155.243V106.811Z" fill="black"/>
<path d="M161.297 106.811H155.243V112.865H161.297V106.811Z" fill="black"/>
<path d="M173.405 106.811H167.351V112.865H173.405V106.811Z" fill="black"/>
<path d="M203.676 106.811L197.622 106.811V112.865H203.676V106.811Z" fill="black"/>
<path d="M209.73 106.811H203.676V112.865H209.73V106.811Z" fill="black"/>
<path d="M215.784 106.811H209.73V112.865H215.784V106.811Z" fill="black"/>
<path d="M221.838 106.811H215.784V112.865H221.838V106.811Z" fill="black"/>
<path d="M227.892 106.811H221.838V112.865H227.892V106.811Z" fill="black"/>
<path d="M233.946 106.811H227.892V112.865H233.946V106.811Z" fill="black"/>
<path d="M240 106.811H233.946V112.865H240V106.811Z" fill="black"/>
<path d="M22.0541 112.865H16V118.919H22.0541V112.865Z" fill="black"/>
<path d="M28.1081 112.865H22.0541V118.919H28.1081V112.865Z" fill="black"/>
<path d="M34.1622 112.865H28.1081V118.919H34.1622V112.865Z" fill="black"/>
<path d="M52.3243 112.865L46.2703 112.865V118.919H52.3243V112.865Z" fill="black"/>
<path d="M58.3784 112.865H52.3243V118.919H58.3784V112.865Z" fill="black"/>
<path d="M64.4324 112.865H58.3784V118.919H64.4324V112.865Z" fill="black"/>
<path d="M76.5405 112.865H70.4865V118.919H76.5405V112.865Z" fill="black"/>
<path d="M88.6486 112.865H82.5946V118.919H88.6486V112.865Z" fill="black"/>
<path d="M94.7027 112.865H88.6486V118.919H94.7027V112.865Z" fill="black"/>
<path d="M100.757 112.865L94.7027 112.865V118.919H100.757V112.865Z" fill="black"/>
<path d="M112.865 112.865H106.811L106.811 118.919H112.865V112.865Z" fill="black"/>
<path d="M118.919 112.865H112.865V118.919H118.919L118.919 112.865Z" fill="black"/>
<path d="M131.027 112.865H124.973L124.973 118.919H131.027V112.865Z" fill="black"/>
<path d="M149.189 112.865H143.135V118.919H149.189V112.865Z" fill="black"/>
<path d="M155.243 112.865H149.189V118.919H155.243V112.865Z" fill="black"/>
<path d="M173.405 112.865H167.351V118.919H173.405V112.865Z" fill="black"/>
<path d="M185.514 112.865H179.459V118.919H185.514V112.865Z" fill="black"/>
<path d="M197.622 112.865L191.568 112.865V118.919H197.622V112.865Z" fill="black"/>
<path d="M203.676 112.865H197.622V118.919H203.676V112.865Z" fill="black"/>
<path d="M215.784 112.865H209.73V118.919H215.784V112.865Z" fill="black"/>
<path d="M227.892 112.865H221.838V118.919H227.892V112.865Z" fill="black"/>
<path d="M28.1081 118.919H22.0541V124.973H28.1081V118.919Z" fill="black"/>
<path d="M40.2162 118.919L34.1622 118.919V124.973H40.2162V118.919Z" fill="black"/>
<path d="M76.5405 118.919H70.4865V124.973H76.5405V118.919Z" fill="black"/>
<path d="M82.5946 118.919H76.5405V124.973H82.5946V118.919Z" fill="black"/>
<path d="M94.7027 118.919H88.6486L88.6487 124.973H94.7027V118.919Z" fill="black"/>
<path d="M100.757 118.919H94.7027V124.973H100.757V118.919Z" fill="black"/>
<path d="M106.811 118.919H100.757V124.973H106.811L106.811 118.919Z" fill="black"/>
<path d="M112.865 118.919H106.811L106.811 124.973H112.865V118.919Z" fill="black"/>
<path d="M143.135 118.919L137.081 118.919V124.973H143.135V118.919Z" fill="black"/>
<path d="M191.568 118.919H185.514V124.973H191.568V118.919Z" fill="black"/>
<path d="M197.622 118.919H191.568V124.973H197.622V118.919Z" fill="black"/>
<path d="M203.676 118.919H197.622V124.973H203.676V118.919Z" fill="black"/>
<path d="M209.73 118.919H203.676V124.973H209.73V118.919Z" fill="black"/>
<path d="M240 118.919H233.946V124.973H240V118.919Z" fill="black"/>
<path d="M22.0541 124.973L16 124.973V131.027H22.0541V124.973Z" fill="black"/>
<path d="M28.1081 124.973H22.0541V131.027H28.1081V124.973Z" fill="black"/>
<path d="M40.2162 124.973H34.1622V131.027H40.2162V124.973Z" fill="black"/>
<path d="M46.2703 124.973L40.2162 124.973V131.027H46.2703V124.973Z" fill="black"/>
<path d="M52.3243 124.973H46.2703V131.027H52.3243V124.973Z" fill="black"/>
<path d="M58.3784 124.973H52.3243V131.027H58.3784V124.973Z" fill="black"/>
<path d="M70.4865 124.973L64.4324 124.973V131.027H70.4865V124.973Z" fill="black"/>
<path d="M100.757 124.973H94.7027L94.7027 131.027H100.757V124.973Z" fill="black"/>
<path d="M112.865 124.973H106.811L106.811 131.027H112.865V124.973Z" fill="black"/>
<path d="M124.973 124.973H118.919V131.027H124.973V124.973Z" fill="black"/>
<path d="M137.081 124.973L131.027 124.973V131.027H137.081V124.973Z" fill="black"/>
<path d="M149.189 124.973L143.135 124.973V131.027H149.189V124.973Z" fill="black"/>
<path d="M155.243 124.973H149.189V131.027H155.243V124.973Z" fill="black"/>
<path d="M167.351 124.973H161.297V131.027H167.351V124.973Z" fill="black"/>
<path d="M209.73 124.973H203.676V131.027H209.73V124.973Z" fill="black"/>
<path d="M221.838 124.973H215.784V131.027H221.838V124.973Z" fill="black"/>
<path d="M233.946 124.973L227.892 124.973V131.027H233.946V124.973Z" fill="black"/>
<path d="M28.1081 131.027H22.0541V137.081H28.1081V131.027Z" fill="black"/>
<path d="M34.1622 131.027H28.1081V137.081H34.1622V131.027Z" fill="black"/>
<path d="M40.2162 131.027H34.1622V137.081H40.2162V131.027Z" fill="black"/>
<path d="M46.2703 131.027H40.2162V137.081H46.2703V131.027Z" fill="black"/>
<path d="M100.757 131.027H94.7027V137.081H100.757V131.027Z" fill="black"/>
<path d="M131.027 131.027H124.973L124.973 137.081H131.027V131.027Z" fill="black"/>
<path d="M137.081 131.027H131.027V137.081H137.081V131.027Z" fill="black"/>
<path d="M143.135 131.027H137.081V137.081H143.135V131.027Z" fill="black"/>
<path d="M149.189 131.027H143.135V137.081H149.189V131.027Z" fill="black"/>
<path d="M197.622 131.027H191.568V137.081H197.622V131.027Z" fill="black"/>
<path d="M209.73 131.027H203.676V137.081H209.73V131.027Z" fill="black"/>
<path d="M215.784 131.027H209.73V137.081H215.784V131.027Z" fill="black"/>
<path d="M227.892 131.027H221.838V137.081H227.892V131.027Z" fill="black"/>
<path d="M233.946 131.027H227.892V137.081H233.946V131.027Z" fill="black"/>
<path d="M240 131.027H233.946V137.081H240V131.027Z" fill="black"/>
<path d="M22.0541 137.081H16V143.135H22.0541V137.081Z" fill="black"/>
<path d="M34.1622 137.081H28.1081V143.135H34.1622V137.081Z" fill="black"/>
<path d="M40.2162 137.081H34.1622V143.135H40.2162V137.081Z" fill="black"/>
<path d="M46.2703 137.081H40.2162V143.135H46.2703V137.081Z" fill="black"/>
<path d="M58.3784 137.081H52.3243V143.135H58.3784V137.081Z" fill="black"/>
<path d="M70.4865 137.081H64.4324V143.135H70.4865V137.081Z" fill="black"/>
<path d="M82.5946 137.081H76.5405V143.135H82.5946V137.081Z" fill="black"/>
<path d="M94.7027 137.081H88.6487V143.135H94.7027L94.7027 137.081Z" fill="black"/>
<path d="M100.757 137.081H94.7027L94.7027 143.135H100.757V137.081Z" fill="black"/>
<path d="M124.973 137.081H118.919V143.135H124.973L124.973 137.081Z" fill="black"/>
<path d="M137.081 137.081H131.027V143.135H137.081V137.081Z" fill="black"/>
<path d="M143.135 137.081H137.081V143.135H143.135V137.081Z" fill="black"/>
<path d="M149.189 137.081H143.135V143.135H149.189V137.081Z" fill="black"/>
<path d="M155.243 137.081H149.189V143.135H155.243V137.081Z" fill="black"/>
<path d="M167.351 137.081H161.297V143.135H167.351V137.081Z" fill="black"/>
<path d="M179.459 137.081H173.405V143.135H179.459V137.081Z" fill="black"/>
<path d="M197.622 137.081H191.568V143.135H197.622V137.081Z" fill="black"/>
<path d="M203.676 137.081H197.622V143.135H203.676V137.081Z" fill="black"/>
<path d="M209.73 137.081H203.676V143.135H209.73V137.081Z" fill="black"/>
<path d="M221.838 137.081H215.784V143.135H221.838V137.081Z" fill="black"/>
<path d="M233.946 137.081H227.892V143.135H233.946V137.081Z" fill="black"/>
<path d="M22.0541 143.135H16V149.189H22.0541V143.135Z" fill="black"/>
<path d="M34.1622 143.135H28.1081V149.189H34.1622V143.135Z" fill="black"/>
<path d="M70.4865 143.135H64.4324V149.189H70.4865V143.135Z" fill="black"/>
<path d="M76.5405 143.135H70.4865V149.189H76.5405V143.135Z" fill="black"/>
<path d="M82.5946 143.135H76.5405V149.189H82.5946V143.135Z" fill="black"/>
<path d="M88.6487 143.135H82.5946V149.189H88.6486L88.6487 143.135Z" fill="black"/>
<path d="M100.757 143.135H94.7027L94.7027 149.189H100.757V143.135Z" fill="black"/>
<path d="M106.811 143.135H100.757V149.189H106.811V143.135Z" fill="black"/>
<path d="M112.865 143.135H106.811V149.189H112.865V143.135Z" fill="black"/>
<path d="M118.919 143.135H112.865V149.189H118.919L118.919 143.135Z" fill="black"/>
<path d="M137.081 143.135H131.027V149.189H137.081V143.135Z" fill="black"/>
<path d="M167.351 143.135H161.297V149.189H167.351V143.135Z" fill="black"/>
<path d="M173.405 143.135H167.351V149.189H173.405V143.135Z" fill="black"/>
<path d="M185.514 143.135H179.459V149.189H185.514V143.135Z" fill="black"/>
<path d="M197.622 143.135H191.568V149.189H197.622V143.135Z" fill="black"/>
<path d="M203.676 143.135H197.622V149.189H203.676V143.135Z" fill="black"/>
<path d="M209.73 143.135H203.676V149.189H209.73V143.135Z" fill="black"/>
<path d="M215.784 143.135H209.73V149.189H215.784V143.135Z" fill="black"/>
<path d="M221.838 143.135H215.784V149.189H221.838V143.135Z" fill="black"/>
<path d="M227.892 143.135H221.838V149.189H227.892V143.135Z" fill="black"/>
<path d="M233.946 143.135H227.892V149.189H233.946V143.135Z" fill="black"/>
<path d="M22.0541 149.189H16V155.243H22.0541V149.189Z" fill="black"/>
<path d="M34.1622 149.189H28.1081V155.243H34.1622V149.189Z" fill="black"/>
<path d="M40.2162 149.189H34.1622V155.243H40.2162V149.189Z" fill="black"/>
<path d="M46.2703 149.189H40.2162V155.243H46.2703V149.189Z" fill="black"/>
<path d="M52.3243 149.189H46.2703V155.243H52.3243V149.189Z" fill="black"/>
<path d="M58.3784 149.189H52.3243V155.243H58.3784V149.189Z" fill="black"/>
<path d="M70.4865 149.189H64.4324V155.243H70.4865V149.189Z" fill="black"/>
<path d="M82.5946 149.189H76.5405V155.243H82.5946V149.189Z" fill="black"/>
<path d="M94.7027 149.189H88.6486L88.6487 155.243H94.7027L94.7027 149.189Z" fill="black"/>
<path d="M112.865 149.189H106.811L106.811 155.243H112.865V149.189Z" fill="black"/>
<path d="M124.973 149.189H118.919L118.919 155.243H124.973V149.189Z" fill="black"/>
<path d="M131.027 149.189H124.973V155.243H131.027V149.189Z" fill="black"/>
<path d="M137.081 149.189H131.027V155.243H137.081V149.189Z" fill="black"/>
<path d="M143.135 149.189H137.081V155.243H143.135V149.189Z" fill="black"/>
<path d="M149.189 149.189H143.135V155.243H149.189V149.189Z" fill="black"/>
<path d="M155.243 149.189H149.189V155.243H155.243V149.189Z" fill="black"/>
<path d="M167.351 149.189H161.297V155.243H167.351V149.189Z" fill="black"/>
<path d="M191.568 149.189H185.514V155.243H191.568V149.189Z" fill="black"/>
<path d="M209.73 149.189H203.676V155.243H209.73V149.189Z" fill="black"/>
<path d="M221.838 149.189H215.784V155.243H221.838V149.189Z" fill="black"/>
<path d="M227.892 149.189H221.838V155.243H227.892V149.189Z" fill="black"/>
<path d="M233.946 149.189H227.892V155.243H233.946V149.189Z" fill="black"/>
<path d="M46.2703 155.243H40.2162V161.297H46.2703V155.243Z" fill="black"/>
<path d="M64.4324 155.243H58.3784V161.297H64.4324V155.243Z" fill="black"/>
<path d="M70.4865 155.243H64.4324V161.297H70.4865V155.243Z" fill="black"/>
<path d="M82.5946 155.243H76.5405V161.297H82.5946V155.243Z" fill="black"/>
<path d="M88.6487 155.243H82.5946V161.297H88.6486L88.6487 155.243Z" fill="black"/>
<path d="M94.7027 155.243H88.6487L88.6486 161.297H94.7027V155.243Z" fill="black"/>
<path d="M100.757 155.243H94.7027V161.297H100.757V155.243Z" fill="black"/>
<path d="M118.919 155.243H112.865L112.865 161.297H118.919L118.919 155.243Z" fill="black"/>
<path d="M149.189 155.243H143.135V161.297H149.189V155.243Z" fill="black"/>
<path d="M161.297 155.243H155.243V161.297H161.297V155.243Z" fill="black"/>
<path d="M167.351 155.243H161.297V161.297H167.351V155.243Z" fill="black"/>
<path d="M173.405 155.243H167.351V161.297H173.405V155.243Z" fill="black"/>
<path d="M191.568 155.243H185.514V161.297H191.568V155.243Z" fill="black"/>
<path d="M197.622 155.243H191.568V161.297H197.622V155.243Z" fill="black"/>
<path d="M209.73 155.243H203.676V161.297H209.73V155.243Z" fill="black"/>
<path d="M221.838 155.243H215.784V161.297H221.838V155.243Z" fill="black"/>
<path d="M22.0541 161.297H16V167.351H22.0541V161.297Z" fill="black"/>
<path d="M34.1622 161.297H28.1081V167.351H34.1622V161.297Z" fill="black"/>
<path d="M58.3784 161.297H52.3243V167.351H58.3784V161.297Z" fill="black"/>
<path d="M70.4865 161.297H64.4324V167.351H70.4865V161.297Z" fill="black"/>
<path d="M82.5946 161.297H76.5405V167.351H82.5946V161.297Z" fill="black"/>
<path d="M94.7027 161.297H88.6486L88.6487 167.351H94.7027V161.297Z" fill="black"/>
<path d="M100.757 161.297H94.7027V167.351H100.757V161.297Z" fill="black"/>
<path d="M118.919 161.297H112.865V167.351H118.919V161.297Z" fill="black"/>
<path d="M124.973 161.297H118.919V167.351H124.973V161.297Z" fill="black"/>
<path d="M137.081 161.297H131.027V167.351H137.081V161.297Z" fill="black"/>
<path d="M143.135 161.297H137.081V167.351H143.135V161.297Z" fill="black"/>
<path d="M167.351 161.297H161.297V167.351H167.351V161.297Z" fill="black"/>
<path d="M185.514 161.297H179.459V167.351H185.514V161.297Z" fill="black"/>
<path d="M191.568 161.297H185.514V167.351H191.568V161.297Z" fill="black"/>
<path d="M209.73 161.297H203.676V167.351H209.73V161.297Z" fill="black"/>
<path d="M215.784 161.297H209.73V167.351H215.784V161.297Z" fill="black"/>
<path d="M227.892 161.297H221.838V167.351H227.892V161.297Z" fill="black"/>
<path d="M240 161.297H233.946V167.351H240V161.297Z" fill="black"/>
<path d="M22.0541 167.351H16V173.405H22.0541V167.351Z" fill="black"/>
<path d="M28.1081 167.351H22.0541V173.405H28.1081V167.351Z" fill="black"/>
<path d="M40.2162 167.351H34.1622V173.405H40.2162V167.351Z" fill="black"/>
<path d="M70.4865 167.351H64.4324V173.405H70.4865V167.351Z" fill="black"/>
<path d="M82.5946 167.351H76.5405V173.405H82.5946V167.351Z" fill="black"/>
<path d="M94.7027 167.351H88.6487V173.405H94.7027V167.351Z" fill="black"/>
<path d="M118.919 167.351H112.865V173.405H118.919V167.351Z" fill="black"/>
<path d="M124.973 167.351H118.919V173.405H124.973V167.351Z" fill="black"/>
<path d="M143.135 167.351H137.081V173.405H143.135V167.351Z" fill="black"/>
<path d="M149.189 167.351H143.135V173.405H149.189V167.351Z" fill="black"/>
<path d="M167.351 167.351H161.297V173.405H167.351V167.351Z" fill="black"/>
<path d="M191.568 167.351H185.514V173.405H191.568V167.351Z" fill="black"/>
<path d="M215.784 167.351H209.73V173.405H215.784V167.351Z" fill="black"/>
<path d="M221.838 167.351H215.784V173.405H221.838V167.351Z" fill="black"/>
<path d="M227.892 167.351H221.838V173.405H227.892V167.351Z" fill="black"/>
<path d="M240 167.351H233.946V173.405H240V167.351Z" fill="black"/>
<path d="M28.1081 173.405H22.0541V179.459H28.1081V173.405Z" fill="black"/>
<path d="M34.1622 173.405H28.1081V179.459H34.1622V173.405Z" fill="black"/>
<path d="M40.2162 173.405H34.1622V179.459H40.2162V173.405Z" fill="black"/>
<path d="M52.3243 173.405H46.2703V179.459H52.3243V173.405Z" fill="black"/>
<path d="M58.3784 173.405H52.3243V179.459H58.3784V173.405Z" fill="black"/>
<path d="M64.4324 173.405H58.3784V179.459H64.4324V173.405Z" fill="black"/>
<path d="M70.4865 173.405H64.4324V179.459H70.4865V173.405Z" fill="black"/>
<path d="M82.5946 173.405H76.5405V179.459H82.5946V173.405Z" fill="black"/>
<path d="M88.6487 173.405H82.5946V179.459H88.6486L88.6487 173.405Z" fill="black"/>
<path d="M94.7027 173.405H88.6487L88.6486 179.459H94.7027V173.405Z" fill="black"/>
<path d="M106.811 173.405H100.757V179.459H106.811V173.405Z" fill="black"/>
<path d="M118.919 173.405H112.865V179.459H118.919V173.405Z" fill="black"/>
<path d="M131.027 173.405H124.973L124.973 179.459H131.027V173.405Z" fill="black"/>
<path d="M143.135 173.405H137.081V179.459H143.135V173.405Z" fill="black"/>
<path d="M155.243 173.405H149.189V179.459H155.243V173.405Z" fill="black"/>
<path d="M161.297 173.405H155.243V179.459H161.297V173.405Z" fill="black"/>
<path d="M167.351 173.405H161.297V179.459H167.351V173.405Z" fill="black"/>
<path d="M179.459 173.405H173.405V179.459H179.459V173.405Z" fill="black"/>
<path d="M185.514 173.405H179.459V179.459H185.514V173.405Z" fill="black"/>
<path d="M203.676 173.405H197.622V179.459H203.676V173.405Z" fill="black"/>
<path d="M209.73 173.405H203.676V179.459H209.73V173.405Z" fill="black"/>
<path d="M215.784 173.405H209.73V179.459H215.784V173.405Z" fill="black"/>
<path d="M227.892 173.405H221.838V179.459H227.892V173.405Z" fill="black"/>
<path d="M240 173.405H233.946V179.459H240V173.405Z" fill="black"/>
<path d="M28.1081 179.459H22.0541V185.514H28.1081V179.459Z" fill="black"/>
<path d="M40.2162 179.459H34.1622V185.514H40.2162V179.459Z" fill="black"/>
<path d="M52.3243 179.459H46.2703V185.514H52.3243V179.459Z" fill="black"/>
<path d="M82.5946 179.459H76.5405V185.514H82.5946V179.459Z" fill="black"/>
<path d="M106.811 179.459H100.757V185.514H106.811V179.459Z" fill="black"/>
<path d="M118.919 179.459H112.865V185.514H118.919V179.459Z" fill="black"/>
<path d="M131.027 179.459H124.973V185.514H131.027V179.459Z" fill="black"/>
<path d="M143.135 179.459H137.081V185.514H143.135V179.459Z" fill="black"/>
<path d="M155.243 179.459H149.189V185.514H155.243V179.459Z" fill="black"/>
<path d="M179.459 179.459H173.405V185.514H179.459V179.459Z" fill="black"/>
<path d="M197.622 179.459H191.568V185.514H197.622V179.459Z" fill="black"/>
<path d="M209.73 179.459H203.676V185.514H209.73V179.459Z" fill="black"/>
<path d="M215.784 179.459H209.73V185.514H215.784V179.459Z" fill="black"/>
<path d="M227.892 179.459H221.838V185.514H227.892V179.459Z" fill="black"/>
<path d="M233.946 179.459H227.892V185.514H233.946V179.459Z" fill="black"/>
<path d="M22.0541 185.514H16V191.568H22.0541V185.514Z" fill="black"/>
<path d="M46.2703 185.514H40.2162V191.568H46.2703V185.514Z" fill="black"/>
<path d="M52.3243 185.514H46.2703V191.568H52.3243V185.514Z" fill="black"/>
<path d="M58.3784 185.514H52.3243V191.568H58.3784V185.514Z" fill="black"/>
<path d="M64.4324 185.514H58.3784V191.568H64.4324V185.514Z" fill="black"/>
<path d="M70.4865 185.514H64.4324V191.568H70.4865V185.514Z" fill="black"/>
<path d="M76.5405 185.514H70.4865V191.568H76.5405V185.514Z" fill="black"/>
<path d="M88.6486 185.514H82.5946V191.568H88.6486V185.514Z" fill="black"/>
<path d="M100.757 185.514H94.7027V191.568H100.757V185.514Z" fill="black"/>
<path d="M106.811 185.514H100.757V191.568H106.811V185.514Z" fill="black"/>
<path d="M112.865 185.514H106.811V191.568H112.865L112.865 185.514Z" fill="black"/>
<path d="M131.027 185.514H124.973V191.568H131.027V185.514Z" fill="black"/>
<path d="M149.189 185.514H143.135V191.568H149.189V185.514Z" fill="black"/>
<path d="M161.297 185.514H155.243V191.568H161.297V185.514Z" fill="black"/>
<path d="M173.405 185.514H167.351V191.568H173.405V185.514Z" fill="black"/>
<path d="M179.459 185.514H173.405V191.568H179.459V185.514Z" fill="black"/>
<path d="M185.514 185.514H179.459V191.568H185.514V185.514Z" fill="black"/>
<path d="M191.568 185.514H185.514V191.568H191.568V185.514Z" fill="black"/>
<path d="M197.622 185.514H191.568V191.568H197.622V185.514Z" fill="black"/>
<path d="M203.676 185.514H197.622V191.568H203.676V185.514Z" fill="black"/>
<path d="M209.73 185.514H203.676V191.568H209.73V185.514Z" fill="black"/>
<path d="M215.784 185.514H209.73V191.568H215.784V185.514Z" fill="black"/>
<path d="M227.892 185.514H221.838V191.568H227.892V185.514Z" fill="black"/>
<path d="M233.946 185.514H227.892V191.568H233.946V185.514Z" fill="black"/>
<path d="M94.7027 191.568H88.6486L88.6487 197.622H94.7027L94.7027 191.568Z" fill="black"/>
<path d="M112.865 191.568H106.811L106.811 197.622H112.865V191.568Z" fill="black"/>
<path d="M118.919 191.568H112.865V197.622H118.919V191.568Z" fill="black"/>
<path d="M131.027 191.568H124.973V197.622H131.027V191.568Z" fill="black"/>
<path d="M143.135 191.568H137.081V197.622H143.135V191.568Z" fill="black"/>
<path d="M155.243 191.568H149.189V197.622H155.243V191.568Z" fill="black"/>
<path d="M167.351 191.568H161.297V197.622H167.351V191.568Z" fill="black"/>
<path d="M185.514 191.568H179.459V197.622H185.514V191.568Z" fill="black"/>
<path d="M191.568 191.568H185.514V197.622H191.568V191.568Z" fill="black"/>
<path d="M215.784 191.568H209.73V197.622H215.784V191.568Z" fill="black"/>
<path d="M221.838 191.568H215.784V197.622H221.838V191.568Z" fill="black"/>
<path d="M227.892 191.568H221.838V197.622H227.892V191.568Z" fill="black"/>
<path d="M233.946 191.568H227.892V197.622H233.946V191.568Z" fill="black"/>
<path d="M22.0541 197.622H16V203.676H22.0541V197.622Z" fill="black"/>
<path d="M28.1081 197.622H22.0541V203.676H28.1081V197.622Z" fill="black"/>
<path d="M34.1622 197.622H28.1081V203.676H34.1622V197.622Z" fill="black"/>
<path d="M40.2162 197.622H34.1622V203.676H40.2162V197.622Z" fill="black"/>
<path d="M46.2703 197.622H40.2162V203.676H46.2703V197.622Z" fill="black"/>
<path d="M52.3243 197.622H46.2703V203.676H52.3243V197.622Z" fill="black"/>
<path d="M58.3784 197.622H52.3243V203.676H58.3784V197.622Z" fill="black"/>
<path d="M70.4865 197.622H64.4324V203.676H70.4865V197.622Z" fill="black"/>
<path d="M82.5946 197.622H76.5405V203.676H82.5946V197.622Z" fill="black"/>
<path d="M88.6487 197.622H82.5946V203.676H88.6486L88.6487 197.622Z" fill="black"/>
<path d="M94.7027 197.622H88.6487L88.6486 203.676H94.7027V197.622Z" fill="black"/>
<path d="M112.865 197.622H106.811V203.676H112.865V197.622Z" fill="black"/>
<path d="M118.919 197.622H112.865V203.676H118.919V197.622Z" fill="black"/>
<path d="M137.081 197.622H131.027V203.676H137.081V197.622Z" fill="black"/>
<path d="M143.135 197.622H137.081V203.676H143.135V197.622Z" fill="black"/>
<path d="M167.351 197.622H161.297V203.676H167.351V197.622Z" fill="black"/>
<path d="M179.459 197.622H173.405V203.676H179.459V197.622Z" fill="black"/>
<path d="M185.514 197.622H179.459V203.676H185.514V197.622Z" fill="black"/>
<path d="M191.568 197.622H185.514V203.676H191.568V197.622Z" fill="black"/>
<path d="M203.676 197.622H197.622V203.676H203.676V197.622Z" fill="black"/>
<path d="M215.784 197.622H209.73V203.676H215.784V197.622Z" fill="black"/>
<path d="M221.838 197.622H215.784V203.676H221.838V197.622Z" fill="black"/>
<path d="M233.946 197.622H227.892V203.676H233.946V197.622Z" fill="black"/>
<path d="M240 197.622H233.946V203.676H240V197.622Z" fill="black"/>
<path d="M22.0541 203.676H16V209.73H22.0541V203.676Z" fill="black"/>
<path d="M58.3784 203.676H52.3243V209.73H58.3784V203.676Z" fill="black"/>
<path d="M70.4865 203.676H64.4324V209.73H70.4865V203.676Z" fill="black"/>
<path d="M76.5405 203.676H70.4865V209.73H76.5405V203.676Z" fill="black"/>
<path d="M88.6486 203.676H82.5946V209.73H88.6486V203.676Z" fill="black"/>
<path d="M94.7027 203.676H88.6486V209.73H94.7027V203.676Z" fill="black"/>
<path d="M100.757 203.676H94.7027V209.73H100.757V203.676Z" fill="black"/>
<path d="M106.811 203.676H100.757V209.73H106.811L106.811 203.676Z" fill="black"/>
<path d="M112.865 203.676H106.811L106.811 209.73H112.865V203.676Z" fill="black"/>
<path d="M124.973 203.676H118.919L118.919 209.73H124.973V203.676Z" fill="black"/>
<path d="M131.027 203.676H124.973V209.73H131.027V203.676Z" fill="black"/>
<path d="M155.243 203.676H149.189V209.73H155.243V203.676Z" fill="black"/>
<path d="M161.297 203.676H155.243V209.73H161.297V203.676Z" fill="black"/>
<path d="M173.405 203.676H167.351V209.73H173.405V203.676Z" fill="black"/>
<path d="M185.514 203.676H179.459V209.73H185.514V203.676Z" fill="black"/>
<path d="M191.568 203.676H185.514V209.73H191.568V203.676Z" fill="black"/>
<path d="M215.784 203.676H209.73V209.73H215.784V203.676Z" fill="black"/>
<path d="M22.0541 209.73H16V215.784H22.0541V209.73Z" fill="black"/>
<path d="M34.1622 209.73H28.1081V215.784H34.1622V209.73Z" fill="black"/>
<path d="M40.2162 209.73H34.1622V215.784H40.2162V209.73Z" fill="black"/>
<path d="M46.2703 209.73H40.2162V215.784H46.2703V209.73Z" fill="black"/>
<path d="M58.3784 209.73H52.3243V215.784H58.3784V209.73Z" fill="black"/>
<path d="M70.4865 209.73H64.4324V215.784H70.4865V209.73Z" fill="black"/>
<path d="M88.6486 209.73H82.5946V215.784H88.6486V209.73Z" fill="black"/>
<path d="M94.7027 209.73H88.6486V215.784H94.7027V209.73Z" fill="black"/>
<path d="M106.811 209.73H100.757V215.784H106.811V209.73Z" fill="black"/>
<path d="M112.865 209.73H106.811V215.784H112.865V209.73Z" fill="black"/>
<path d="M118.919 209.73H112.865V215.784H118.919L118.919 209.73Z" fill="black"/>
<path d="M131.027 209.73H124.973L124.973 215.784H131.027V209.73Z" fill="black"/>
<path d="M143.135 209.73H137.081V215.784H143.135V209.73Z" fill="black"/>
<path d="M155.243 209.73H149.189V215.784H155.243V209.73Z" fill="black"/>
<path d="M161.297 209.73H155.243V215.784H161.297V209.73Z" fill="black"/>
<path d="M167.351 209.73H161.297V215.784H167.351V209.73Z" fill="black"/>
<path d="M179.459 209.73H173.405V215.784H179.459V209.73Z" fill="black"/>
<path d="M185.514 209.73H179.459V215.784H185.514V209.73Z" fill="black"/>
<path d="M191.568 209.73H185.514V215.784H191.568V209.73Z" fill="black"/>
<path d="M197.622 209.73H191.568V215.784H197.622V209.73Z" fill="black"/>
<path d="M203.676 209.73H197.622V215.784H203.676V209.73Z" fill="black"/>
<path d="M209.73 209.73H203.676V215.784H209.73V209.73Z" fill="black"/>
<path d="M215.784 209.73H209.73V215.784H215.784V209.73Z" fill="black"/>
<path d="M221.838 209.73H215.784V215.784H221.838V209.73Z" fill="black"/>
<path d="M233.946 209.73H227.892V215.784H233.946V209.73Z" fill="black"/>
<path d="M240 209.73H233.946V215.784H240V209.73Z" fill="black"/>
<path d="M22.0541 215.784H16V221.838H22.0541V215.784Z" fill="black"/>
<path d="M34.1622 215.784H28.1081V221.838H34.1622V215.784Z" fill="black"/>
<path d="M40.2162 215.784H34.1622V221.838H40.2162V215.784Z" fill="black"/>
<path d="M46.2703 215.784H40.2162V221.838H46.2703V215.784Z" fill="black"/>
<path d="M58.3784 215.784H52.3243V221.838H58.3784V215.784Z" fill="black"/>
<path d="M70.4865 215.784H64.4324V221.838H70.4865V215.784Z" fill="black"/>
<path d="M82.5946 215.784H76.5405V221.838H82.5946V215.784Z" fill="black"/>
<path d="M88.6486 215.784H82.5946V221.838H88.6486V215.784Z" fill="black"/>
<path d="M106.811 215.784H100.757V221.838H106.811V215.784Z" fill="black"/>
<path d="M149.189 215.784H143.135V221.838H149.189V215.784Z" fill="black"/>
<path d="M155.243 215.784H149.189V221.838H155.243V215.784Z" fill="black"/>
<path d="M197.622 215.784H191.568V221.838H197.622V215.784Z" fill="black"/>
<path d="M209.73 215.784H203.676V221.838H209.73V215.784Z" fill="black"/>
<path d="M221.838 215.784H215.784V221.838H221.838V215.784Z" fill="black"/>
<path d="M227.892 215.784H221.838V221.838H227.892V215.784Z" fill="black"/>
<path d="M233.946 215.784H227.892V221.838H233.946V215.784Z" fill="black"/>
<path d="M240 215.784H233.946V221.838H240V215.784Z" fill="black"/>
<path d="M22.0541 221.838H16V227.892H22.0541V221.838Z" fill="black"/>
<path d="M34.1622 221.838H28.1081V227.892H34.1622V221.838Z" fill="black"/>
<path d="M40.2162 221.838H34.1622V227.892H40.2162V221.838Z" fill="black"/>
<path d="M46.2703 221.838H40.2162V227.892H46.2703V221.838Z" fill="black"/>
<path d="M58.3784 221.838H52.3243V227.892H58.3784V221.838Z" fill="black"/>
<path d="M70.4865 221.838H64.4324V227.892H70.4865V221.838Z" fill="black"/>
<path d="M94.7027 221.838H88.6486L88.6487 227.892H94.7027V221.838Z" fill="black"/>
<path d="M118.919 221.838H112.865V227.892H118.919V221.838Z" fill="black"/>
<path d="M124.973 221.838H118.919V227.892H124.973V221.838Z" fill="black"/>
<path d="M143.135 221.838H137.081V227.892H143.135V221.838Z" fill="black"/>
<path d="M167.351 221.838H161.297V227.892H167.351V221.838Z" fill="black"/>
<path d="M191.568 221.838H185.514V227.892H191.568V221.838Z" fill="black"/>
<path d="M203.676 221.838H197.622V227.892H203.676V221.838Z" fill="black"/>
<path d="M215.784 221.838H209.73V227.892H215.784V221.838Z" fill="black"/>
<path d="M221.838 221.838H215.784V227.892H221.838V221.838Z" fill="black"/>
<path d="M227.892 221.838H221.838V227.892H227.892V221.838Z" fill="black"/>
<path d="M240 221.838H233.946V227.892H240V221.838Z" fill="black"/>
<path d="M22.0541 227.892H16V233.946H22.0541V227.892Z" fill="black"/>
<path d="M58.3784 227.892H52.3243V233.946H58.3784V227.892Z" fill="black"/>
<path d="M76.5405 227.892H70.4865V233.946H76.5405V227.892Z" fill="black"/>
<path d="M82.5946 227.892H76.5405V233.946H82.5946V227.892Z" fill="black"/>
<path d="M94.7027 227.892H88.6487V233.946H94.7027V227.892Z" fill="black"/>
<path d="M106.811 227.892H100.757V233.946H106.811V227.892Z" fill="black"/>
<path d="M112.865 227.892H106.811V233.946H112.865L112.865 227.892Z" fill="black"/>
<path d="M124.973 227.892H118.919L118.919 233.946H124.973V227.892Z" fill="black"/>
<path d="M131.027 227.892H124.973V233.946H131.027V227.892Z" fill="black"/>
<path d="M155.243 227.892H149.189V233.946H155.243V227.892Z" fill="black"/>
<path d="M161.297 227.892H155.243V233.946H161.297V227.892Z" fill="black"/>
<path d="M167.351 227.892H161.297V233.946H167.351V227.892Z" fill="black"/>
<path d="M179.459 227.892H173.405V233.946H179.459V227.892Z" fill="black"/>
<path d="M185.514 227.892H179.459V233.946H185.514V227.892Z" fill="black"/>
<path d="M197.622 227.892H191.568V233.946H197.622V227.892Z" fill="black"/>
<path d="M209.73 227.892H203.676V233.946H209.73V227.892Z" fill="black"/>
<path d="M227.892 227.892H221.838V233.946H227.892V227.892Z" fill="black"/>
<path d="M240 227.892H233.946V233.946H240V227.892Z" fill="black"/>
<path d="M22.0541 233.946H16V240H22.0541V233.946Z" fill="black"/>
<path d="M28.1081 233.946H22.0541V240H28.1081V233.946Z" fill="black"/>
<path d="M34.1622 233.946H28.1081V240H34.1622V233.946Z" fill="black"/>
<path d="M40.2162 233.946H34.1622V240H40.2162V233.946Z" fill="black"/>
<path d="M46.2703 233.946H40.2162V240H46.2703V233.946Z" fill="black"/>
<path d="M52.3243 233.946H46.2703V240H52.3243V233.946Z" fill="black"/>
<path d="M58.3784 233.946H52.3243V240H58.3784V233.946Z" fill="black"/>
<path d="M82.5946 233.946H76.5405V240H82.5946V233.946Z" fill="black"/>
<path d="M88.6487 233.946H82.5946V240H88.6486L88.6487 233.946Z" fill="black"/>
<path d="M94.7027 233.946H88.6487L88.6486 240H94.7027V233.946Z" fill="black"/>
<path d="M106.811 233.946H100.757V240H106.811V233.946Z" fill="black"/>
<path d="M112.865 233.946H106.811V240H112.865V233.946Z" fill="black"/>
<path d="M131.027 233.946H124.973L124.973 240H131.027V233.946Z" fill="black"/>
<path d="M137.081 233.946H131.027V240H137.081V233.946Z" fill="black"/>
<path d="M155.243 233.946H149.189V240H155.243V233.946Z" fill="black"/>
<path d="M179.459 233.946H173.405V240H179.459V233.946Z" fill="black"/>
<path d="M185.514 233.946H179.459V240H185.514V233.946Z" fill="black"/>
<path d="M191.568 233.946H185.514V240H191.568V233.946Z" fill="black"/>
<path d="M203.676 233.946H197.622V240H203.676V233.946Z" fill="black"/>
<path d="M215.784 233.946H209.73V240H215.784V233.946Z" fill="black"/>
<path d="M221.838 233.946H215.784V240H221.838V233.946Z" fill="black"/>
<path d="M227.892 233.946H221.838V240H227.892V233.946Z" fill="black"/>
<path d="M233.946 233.946H227.892V240H233.946V233.946Z" fill="black"/>
<path d="M240 233.946H233.946V240H240V233.946Z" fill="black"/>
</g>
<defs>
<clipPath id="clip0_2853_33061">
<rect width="256" height="256" rx="17.36" fill="white"/>
</clipPath>
</defs>
</svg>
