<svg width="96" height="96" viewBox="0 0 96 96" fill="none" xmlns="http://www.w3.org/2000/svg">
<g id="check-circle">
<path id="Subtract" fill-rule="evenodd" clip-rule="evenodd" d="M48 88C70.0914 88 88 70.0914 88 48C88 25.9086 70.0914 8 48 8C25.9086 8 8 25.9086 8 48C8 70.0914 25.9086 88 48 88ZM66.3681 37.842C67.3853 36.5341 67.1497 34.6493 65.8419 33.6321C64.534 32.6149 62.6492 32.8505 61.632 34.1583L45.604 54.7658C45.2476 55.224 44.5771 55.2835 44.1456 54.8951L34.0069 45.7703C32.7754 44.6619 30.8785 44.7617 29.7701 45.9932C28.6618 47.2248 28.7616 49.1216 29.9931 50.23L40.1319 59.3549C43.1524 62.0733 47.8452 61.6571 50.3401 58.4494L66.3681 37.842Z" fill="#00C896"/>
</g>
</svg>
