<svg width="48" height="48" viewBox="0 0 48 48" fill="none" xmlns="http://www.w3.org/2000/svg">
<g id="Frame 2087326086">
<g clip-path="url(#clip0_1776_26623)">
<rect width="48" height="48" rx="24" fill="#FAF8FF"/>
<g id="Group 48095512" opacity="0.4">
<g id="Group 48095511">
<path id="Vector" d="M26.3557 6.75341C26.5372 6.80417 26.7215 6.84913 26.9087 6.88828C27.0863 6.92511 27.2541 7.01967 27.4372 7.06198L28.3943 7.49298L28.5919 7.60794L29.3961 8.12057L29.9934 8.59586L30.3716 8.93977L30.9738 9.55392L31.363 10.0073L31.7831 10.5498L32.3649 11.3959L32.4355 11.5218L32.9944 12.5022L33.3876 13.2771L33.5056 13.532L33.9336 14.5229C34.1987 15.1947 34.4328 15.8598 34.6358 16.5181L34.9155 17.4931L35.3838 19.4988L35.568 20.4723L35.7049 21.4771L35.8278 22.4929L35.9149 23.4395L35.9945 24.4906L36.0552 25.4631L36.1369 26.4789C36.1644 26.8488 36.1938 27.216 36.2249 27.5803C36.2653 28.0516 36.2707 28.5418 36.2951 29.0226L36.326 29.4232L36.3947 30.4211L36.436 31.5115L36.4708 32.2939L36.5017 33.4232L36.5216 34.4131L36.542 35.4115L36.5385 36.4088L36.5076 37.4271L36.4758 38.3961L36.4375 39.3786L36.4215 39.7817C36.4209 39.7983 36.4283 39.8096 36.4439 39.8155L37.3482 40.1744L37.94 40.4113L38.2575 40.5491L39.3758 41.0448C40.0278 41.3638 40.6539 41.6117 41.3322 42.0546L41.8056 42.3836L42.3187 42.7977L42.9249 43.3885L43.3529 43.8672L43.7321 44.3754C43.9183 44.6177 43.8466 45.0746 43.8451 45.3698L43.8426 45.9635C43.8426 45.9851 43.8317 45.9962 43.8098 45.9968L43.3618 46.0043L42.3411 46.0058L41.3731 45.9993L40.3702 46.0063L39.3793 46.0003L38.3595 46.0058L37.3915 46.0003L36.3688 46.0063L35.4018 46.0003L34.3775 46.0078L33.41 46.0003L32.4047 46.0073L31.4202 46.0003L30.3965 46.0058L29.4265 46.0013L28.4037 46.0033L27.4377 46.0058L26.4085 46.0053L25.437 45.9824L25.2912 45.9735C25.4579 45.9391 25.6406 45.9406 25.7923 45.9068C29.6186 45.0537 31.8408 41.7132 32.6734 38.1015C32.6771 38.0856 32.6724 38.0724 32.6595 38.0622C32.6091 38.0223 32.5631 37.9913 32.5216 37.9691C31.5428 37.4472 30.6893 36.7857 29.961 35.9848C29.598 35.5385 29.3406 35.0551 29.1886 34.5345C28.9553 33.7339 28.7924 32.9003 28.6999 32.0336C28.6328 31.4042 28.5731 30.7522 28.5207 30.0777C28.5585 30.0183 28.6093 29.9516 28.673 29.8776C29.8391 28.5294 30.6722 26.7153 31.1012 24.9958C31.1015 24.9938 31.1025 24.992 31.1041 24.9908C31.1057 24.9896 31.1077 24.989 31.1097 24.9893C31.1117 24.9896 31.1134 24.9906 31.1147 24.9922C31.1159 24.9938 31.1164 24.9958 31.1161 24.9978C31.1077 25.3113 31.2276 25.6796 31.6133 25.6672C32.1036 25.6507 32.3678 24.9211 32.4818 24.5419C32.6782 23.8886 32.8567 23.2303 33.0173 22.567C33.159 21.9811 33.1958 21.3885 33.1278 20.7893C33.08 20.3697 32.8839 19.5665 32.4276 19.3963C32.41 19.3896 32.399 19.3954 32.3947 19.4137L32.2459 20.0622C32.0993 20.4514 31.8818 20.7457 31.5934 20.9451C31.4546 19.766 31.0211 18.6388 30.2497 17.7389C29.5897 16.969 28.663 16.43 27.7249 15.9911C26.511 15.4237 25.2389 14.8857 24.1171 14.2486C22.9578 13.5907 21.9225 12.776 21.011 11.8045C20.9991 11.7919 20.9863 11.7909 20.9727 11.8015C19.2741 13.1328 17.783 14.6309 17.1186 16.754C16.7692 17.8698 16.5084 19.024 16.2377 20.1667C16.2363 20.1722 16.2334 20.1773 16.2293 20.1812C16.2252 20.1852 16.22 20.1879 16.2144 20.189C16.2088 20.1901 16.203 20.1895 16.1977 20.1874C16.1924 20.1853 16.1878 20.1818 16.1844 20.1771C16.0019 19.9246 15.8193 19.6682 15.6365 19.4077C15.514 19.233 15.2045 19.5072 15.1268 19.6113C14.5843 20.3369 14.6067 21.6075 14.8058 22.4406C14.9835 23.1837 15.3797 25.3083 15.9376 25.5661C16.3125 25.7397 16.5585 25.6366 16.6756 25.2571C16.6768 25.2538 16.679 25.2509 16.6818 25.2489C16.6847 25.2469 16.6882 25.2459 16.6917 25.246C16.6952 25.2461 16.6986 25.2474 16.7013 25.2495C16.7041 25.2517 16.7061 25.2547 16.707 25.2581C17.1181 26.8402 17.8731 28.3442 18.8929 29.6387L18.9083 30.2181C18.9856 31.2831 18.9922 32.3485 18.9282 33.4142C18.8829 34.1657 18.7883 35.3662 18.3031 35.9778C17.5914 36.8752 16.599 37.6172 15.6026 38.1498C15.5894 38.1569 15.5786 38.1677 15.5714 38.1808C15.5643 38.194 15.5611 38.209 15.5623 38.2239C15.8953 42.0835 18.7017 45.0557 22.4344 45.8869C22.63 45.9307 22.8684 45.9396 23.0854 45.9849L22.426 46.0068H21.4654H20.4422H19.4657L18.4514 46.0088L17.4839 46.0003L16.4611 46.0068L15.4906 45.9993L14.4704 46.0068L13.5034 45.9998L12.4756 46.0073L11.5101 46.0008L10.4958 46.0073L9.51785 46.0023L8.49808 46.0068L7.52957 46.0003L6.52523 46.0068L5.53632 46.0023L4.51655 46.0058L4.11044 46.0063C4.10645 46.0063 4.1025 46.0055 4.09882 46.004C4.09514 46.0025 4.09179 46.0003 4.08897 45.9976C4.08615 45.9948 4.08391 45.9915 4.08239 45.9879C4.08086 45.9842 4.08008 45.9804 4.08008 45.9764V45.3683V44.347L4.08058 43.8568C4.08058 43.8405 4.08721 43.8276 4.10048 43.818C4.11906 43.8044 4.14113 43.7828 4.16668 43.7533C4.83922 42.9735 5.63254 42.3272 6.54663 41.8143L7.33398 41.4216L7.53156 41.3429L7.93121 41.2016C7.93197 41.2015 7.93268 41.2011 7.93329 41.2006C7.9339 41.2001 7.93438 41.1994 7.93469 41.1986L7.94714 41.1727C7.95377 41.1588 7.96439 41.15 7.97899 41.1464L8.27512 41.0687L9.59599 40.5257L9.78362 40.4486L10.5058 40.1405L11.3424 39.7867C11.3606 39.779 11.3693 39.7653 11.3683 39.7454L11.3464 39.3771L11.3066 38.4125L11.2618 37.3843L11.2349 36.4068L11.2274 35.397L11.2234 34.4096L11.2294 33.4252L11.2339 32.4183L11.2593 31.4115L11.2861 30.4281L11.3125 29.5208L11.3703 28.4712L11.4285 27.4514L11.4827 26.4749L11.5514 25.4422L11.5753 25.155C11.6246 24.618 11.6455 24.0387 11.7017 23.5445C11.7395 23.2111 11.7822 22.8718 11.8296 22.5267L11.966 21.4711L12.1327 20.4688L12.3213 19.5162L12.8031 17.502L13.0773 16.5405L13.4108 15.5028L13.5347 15.139L13.7622 14.5383L14.1708 13.5429C14.4671 12.8607 14.8071 12.186 15.191 11.5188L15.5314 10.9594L15.7728 10.5941C16.5204 9.48474 17.4048 8.51275 18.53 7.79209L18.8809 7.58605L19.4742 7.31829C19.8139 7.17894 20.1417 7.08885 20.4576 7.04804C20.8206 6.98633 21.1683 6.96227 21.5008 6.97588C21.8462 7.01121 22.0691 7.08338 22.422 6.9281L23.4701 6.70762C24.4416 6.54969 25.4035 6.56495 26.3557 6.75341Z" fill="#002168" fill-opacity="0.4"/>
<path id="Vector_2" opacity="0.4" d="M31.5934 20.9458C31.5393 21.1196 31.5387 21.2952 31.5914 21.4723C31.6536 21.6799 31.8532 21.8755 31.9363 22.0472C32.0332 22.2472 32.0652 22.4672 32.0324 22.7071C31.9936 22.9918 31.783 23.3158 31.7641 23.6094C31.7518 23.8055 31.7928 24.062 31.8871 24.3789C31.9249 24.5063 32.0488 24.4635 32.0926 24.3689C32.3275 23.8652 32.4796 23.455 32.549 23.1381C32.6107 22.8558 32.6513 22.4783 32.6709 22.0059C32.6998 21.3025 32.5581 20.6548 32.2459 20.0629L32.3947 19.4144C32.399 19.3961 32.41 19.3903 32.4275 19.397C32.8839 19.5672 33.08 20.3705 33.1278 20.79C33.1958 21.3892 33.159 21.9818 33.0173 22.5678C32.8567 23.231 32.6782 23.8893 32.4818 24.5426C32.3678 24.9218 32.1035 25.6515 31.6133 25.6679C31.2276 25.6803 31.1077 25.312 31.1161 24.9985C31.1164 24.9965 31.1159 24.9945 31.1146 24.9929C31.1134 24.9913 31.1116 24.9903 31.1097 24.99C31.1077 24.9898 31.1057 24.9903 31.1041 24.9915C31.1025 24.9927 31.1015 24.9945 31.1012 24.9965C30.6722 26.716 29.8391 28.5301 28.673 29.8783C28.6093 29.9523 28.5585 30.019 28.5207 30.0784C27.6174 31.0907 26.5414 31.9617 25.2698 32.3967C22.7728 33.2512 20.4068 31.4296 18.8928 29.6395C17.8731 28.345 17.1181 26.8409 16.707 25.2588C16.706 25.2554 16.7041 25.2524 16.7013 25.2502C16.6985 25.2481 16.6952 25.2468 16.6917 25.2467C16.6882 25.2466 16.6847 25.2476 16.6818 25.2496C16.6789 25.2516 16.6768 25.2545 16.6756 25.2578C16.5585 25.6374 16.3125 25.7404 15.9375 25.5668C15.3796 25.309 14.9835 23.1844 14.8058 22.4413C14.6067 21.6082 14.5843 20.3376 15.1268 19.612C15.2044 19.508 15.514 19.2337 15.6364 19.4084C15.8193 19.6689 16.0019 19.9254 16.1844 20.1778C16.1877 20.1825 16.1923 20.1861 16.1977 20.1882C16.203 20.1903 16.2088 20.1908 16.2144 20.1897C16.22 20.1886 16.2252 20.1859 16.2293 20.182C16.2334 20.178 16.2363 20.1729 16.2377 20.1674C16.5084 19.0247 16.7692 17.8706 17.1186 16.7547C17.783 14.6316 19.2741 13.1335 20.9727 11.8022C20.9863 11.7916 20.9991 11.7926 21.011 11.8052C21.9224 12.7767 22.9578 13.5914 24.1171 14.2493C25.2389 14.8864 26.511 15.4244 27.7249 15.9918C28.663 16.4307 29.5897 16.9697 30.2496 17.7397C31.0211 18.6395 31.4546 19.7668 31.5934 20.9458ZM15.7992 24.4296C15.8071 24.4388 15.8173 24.4457 15.8287 24.4497C15.8401 24.4537 15.8524 24.4547 15.8643 24.4525C15.8762 24.4504 15.8873 24.4451 15.8966 24.4374C15.9058 24.4296 15.9129 24.4196 15.9171 24.4082C16.0575 24.0335 16.1088 23.6114 15.9684 23.2267C15.7161 22.5354 15.7136 22.2343 16.1759 21.6301C16.2225 21.5694 16.248 21.495 16.2486 21.4181C16.2526 20.9095 16.3248 20.3764 15.9226 19.9793C15.8989 19.9558 15.8682 19.9407 15.8352 19.936C15.8022 19.9313 15.7687 19.9374 15.7395 19.9534C15.6559 19.9992 15.5633 20.0977 15.518 20.1913C15.0974 21.0593 15.0865 22.1124 15.2701 23.0386C15.3463 23.4208 15.509 23.8219 15.6598 24.1987C15.6953 24.2869 15.7418 24.3639 15.7992 24.4296Z" fill="#002168" fill-opacity="0.4"/>
<path id="Vector_3" opacity="0.4" d="M15.7991 24.4287C15.7417 24.363 15.6953 24.2861 15.6598 24.1978C15.509 23.8211 15.3462 23.4199 15.2701 23.0377C15.0864 22.1115 15.0974 21.0584 15.5179 20.1904C15.5632 20.0968 15.6558 19.9983 15.7394 19.9525C15.7686 19.9366 15.8022 19.9305 15.8351 19.9351C15.8681 19.9398 15.8988 19.9549 15.9225 19.9784C16.3247 20.3755 16.2525 20.9086 16.2485 21.4172C16.2479 21.4941 16.2224 21.5685 16.1759 21.6292C15.7135 22.2334 15.716 22.5345 15.9683 23.2258C16.1087 23.6105 16.0574 24.0326 15.9171 24.4073C15.9128 24.4187 15.9058 24.4287 15.8965 24.4365C15.8872 24.4443 15.8761 24.4495 15.8642 24.4516C15.8523 24.4538 15.84 24.4528 15.8286 24.4488C15.8172 24.4448 15.807 24.4379 15.7991 24.4287Z" fill="#002168" fill-opacity="0.4"/>
<path id="Vector_4" opacity="0.4" d="M32.246 20.0625C32.5582 20.6544 32.6999 21.3021 32.6711 22.0055C32.6515 22.478 32.6108 22.8554 32.5491 23.1377C32.4798 23.4546 32.3277 23.8649 32.0927 24.3685C32.0489 24.4631 31.925 24.5059 31.8872 24.3785C31.793 24.0616 31.752 23.8051 31.7643 23.609C31.7832 23.3154 31.9937 22.9914 32.0325 22.7067C32.0654 22.4668 32.0333 22.2469 31.9365 22.0468C31.8534 21.8751 31.6538 21.6795 31.5916 21.472C31.5388 21.2948 31.5395 21.1193 31.5936 20.9454C31.8819 20.746 32.0994 20.4517 32.246 20.0625Z" fill="#002168" fill-opacity="0.4"/>
<path id="Vector_5" d="M18.8928 29.6387C20.4068 31.4289 22.7728 33.2504 25.2697 32.3959C26.5413 31.9609 27.6173 31.0899 28.5207 30.0776C28.5731 30.7522 28.6328 31.4041 28.6998 32.0336C28.7924 32.9002 28.9553 33.7338 29.1886 34.5345C29.3405 35.055 29.598 35.5385 29.961 35.9847C29.2599 36.2266 28.5465 36.3915 27.8209 36.4794C23.3412 37.0224 20.2426 34.2667 18.969 30.205C18.9617 30.1818 18.9492 30.1787 18.9316 30.1956L18.9083 30.218L18.8928 29.6387Z" fill="#002168" fill-opacity="0.4"/>
<path id="Vector_6" opacity="0.4" d="M29.961 35.9854C30.6893 36.7863 31.5428 37.4478 32.5216 37.9697C32.5631 37.9919 32.609 38.0229 32.6594 38.0627C32.6724 38.073 32.677 38.0861 32.6734 38.1021C31.8407 41.7138 29.6186 45.0543 25.7923 45.9074C25.6405 45.9412 25.2911 45.974 25.2911 45.974L23.0854 45.9855C23.0854 45.9855 22.63 45.9312 22.4344 45.8874C18.7017 45.0563 15.8952 42.0841 15.5623 38.2245C15.5611 38.2096 15.5642 38.1946 15.5714 38.1814C15.5785 38.1682 15.5894 38.1575 15.6026 38.1503C16.599 37.6178 17.5913 36.8758 18.303 35.9784C18.7883 35.3668 18.8829 34.1663 18.9281 33.4148C18.9922 32.3491 18.9855 31.2837 18.9082 30.2186L18.9316 30.1962C18.9492 30.1793 18.9617 30.1825 18.969 30.2057C20.2425 34.2674 23.3412 37.0231 27.8209 36.4801C28.5465 36.3922 29.2599 36.2273 29.961 35.9854Z" fill="#002168" fill-opacity="0.4"/>
</g>
<rect id="Rectangle 1123" x="13.3201" y="45.959" width="21.84" height="3.36" fill="#002168" fill-opacity="0.4"/>
</g>
</g>
</g>
<defs>
<clipPath id="clip0_1776_26623">
<rect width="48" height="48" rx="24" fill="white"/>
</clipPath>
</defs>
</svg>
