<svg width="24" height="24" viewBox="0 0 24 24" fill="none" xmlns="http://www.w3.org/2000/svg">
<g id="UniqIcons/menu/solid/menu-line-horizontal">
<path id="Vector 2465 (Stroke)" fill-rule="evenodd" clip-rule="evenodd" d="M5.08422 4.91602C5.59013 4.41012 6.41036 4.41012 6.91627 4.91602L19.1299 17.1297C19.6358 17.6356 19.6358 18.4558 19.1299 18.9617C18.624 19.4676 17.8038 19.4676 17.2979 18.9617L5.08422 6.74807C4.57831 6.24217 4.57831 5.42193 5.08422 4.91602Z" fill="#002168"/>
<path id="Vector 2466 (Stroke)" opacity="0.4" fill-rule="evenodd" clip-rule="evenodd" d="M4.91627 18.916C4.41036 18.4101 4.41036 17.5899 4.91627 17.084L17.1299 4.87031C17.6358 4.36441 18.4561 4.36441 18.962 4.87031C19.4679 5.37622 19.4679 6.19646 18.962 6.70236L6.74832 18.916C6.24241 19.4219 5.42218 19.4219 4.91627 18.916Z" fill="#002168"/>
</g>
</svg>
