<svg width="111" height="33" viewBox="0 0 111 33" fill="none" xmlns="http://www.w3.org/2000/svg">
<g id="Group">
<path id="BG" d="M106.878 32.7988H4.31436C2.05897 32.7988 0.211792 30.9978 0.211792 28.7988V4.79882C0.211792 2.59982 2.05897 0.798823 4.31436 0.798823H106.878C109.134 0.798823 110.981 2.59982 110.981 4.79882V28.7988C110.981 30.9978 109.134 32.7988 106.878 32.7988Z" fill="black"/>
<path id="Border" d="M106.878 1.43982C108.778 1.43982 110.324 2.94682 110.324 4.79882V28.7988C110.324 30.6508 108.778 32.1578 106.878 32.1578H4.31436C2.41487 32.1578 0.869228 30.6508 0.869228 28.7988V4.79882C0.869228 2.94682 2.41487 1.43982 4.31436 1.43982H106.878ZM106.878 0.798823H4.31436C2.05897 0.798823 0.211792 2.59982 0.211792 4.79882V28.7988C0.211792 30.9978 2.05897 32.7988 4.31436 32.7988H106.878C109.134 32.7988 110.981 30.9978 110.981 28.7988V4.79882C110.981 2.59982 109.134 0.798823 106.878 0.798823Z" fill="#A6A6A6"/>
<g id="Icon">
<path id="Vector" d="M8.77394 6.83017C8.53292 7.07617 8.39343 7.45917 8.39343 7.95517V25.6472C8.39343 26.1432 8.53292 26.5262 8.77394 26.7722L8.83343 26.8262L19.0016 16.9162V16.6822L8.83343 6.77217L8.77394 6.83017Z" fill="url(#paint0_linear_1776_20278)"/>
<path id="Vector_2" d="M22.3872 20.2227L19.0016 16.9177V16.6837L22.3913 13.3787L22.4672 13.4217L26.4816 15.6487C27.6272 16.2807 27.6272 17.3207 26.4816 17.9567L22.4672 20.1797L22.3872 20.2227Z" fill="url(#paint1_linear_1776_20278)"/>
<path id="Vector_3" d="M22.4673 20.1788L19.0016 16.7998L8.77393 26.7728C9.15444 27.1628 9.77495 27.2098 10.4806 26.8198L22.4673 20.1788Z" fill="url(#paint2_linear_1776_20278)"/>
<path id="Vector_4" d="M22.4673 13.4198L10.4806 6.77883C9.77495 6.39283 9.15444 6.43983 8.77393 6.82983L19.0016 16.7988L22.4673 13.4198Z" fill="url(#paint3_linear_1776_20278)"/>
</g>
<g id="GET IT ON">
<path id="G" d="M39.1185 8.99402C39.1185 9.66202 38.9134 10.197 38.5093 10.596C38.0447 11.069 37.4395 11.307 36.698 11.307C35.9893 11.307 35.3841 11.065 34.8877 10.588C34.3903 10.104 34.1421 9.51002 34.1421 8.79902C34.1421 8.08802 34.3903 7.49402 34.8877 7.01402C35.3841 6.53302 35.9893 6.29102 36.698 6.29102C37.0508 6.29102 37.3872 6.36202 37.7082 6.49402C38.0282 6.62702 38.2888 6.80702 38.4775 7.02902L38.0488 7.45102C37.7195 7.07202 37.2713 6.88502 36.698 6.88502C36.1811 6.88502 35.7329 7.06102 35.3523 7.41602C34.9759 7.77202 34.7872 8.23302 34.7872 8.79902C34.7872 9.36502 34.9759 9.83001 35.3523 10.186C35.7329 10.537 36.1811 10.717 36.698 10.717C37.2467 10.717 37.7082 10.537 38.0723 10.182C38.3123 9.94702 38.4488 9.62302 38.4847 9.20902H36.698V8.63102H39.0816C39.1103 8.75602 39.1185 8.87702 39.1185 8.99402Z" fill="white" stroke="white" stroke-width="0.0328205" stroke-miterlimit="10"/>
<path id="E" d="M42.9 6.98939H40.6611V8.50939H42.6795V9.08739H40.6611V10.6074H42.9V11.1964H40.0272V6.40039H42.9V6.98939Z" fill="white" stroke="white" stroke-width="0.0328205" stroke-miterlimit="10"/>
<path id="T" d="M45.5688 11.1964H44.9349V6.98939H43.5616V6.40039H46.9431V6.98939H45.5688V11.1964Z" fill="white" stroke="white" stroke-width="0.0328205" stroke-miterlimit="10"/>
<path id="I" d="M49.3903 11.1964V6.40039H50.0231V11.1964H49.3903Z" fill="white" stroke="white" stroke-width="0.0328205" stroke-miterlimit="10"/>
<path id="T_2" d="M52.8283 11.1964H52.1996V6.98939H50.8211V6.40039H54.2067V6.98939H52.8283V11.1964Z" fill="white" stroke="white" stroke-width="0.0328205" stroke-miterlimit="10"/>
<path id="O" d="M60.6088 10.58C60.1236 11.065 59.5226 11.307 58.8057 11.307C58.0847 11.307 57.4836 11.065 56.9985 10.58C56.5144 10.096 56.2734 9.50202 56.2734 8.79902C56.2734 8.09602 56.5144 7.50202 56.9985 7.01802C57.4836 6.53302 58.0847 6.29102 58.8057 6.29102C59.5185 6.29102 60.1195 6.53302 60.6047 7.02202C61.0929 7.51002 61.3339 8.10002 61.3339 8.79902C61.3339 9.50202 61.0929 10.096 60.6088 10.58ZM57.4672 10.178C57.8324 10.537 58.2765 10.717 58.8057 10.717C59.3308 10.717 59.779 10.537 60.14 10.178C60.5041 9.81902 60.6888 9.35802 60.6888 8.79902C60.6888 8.24002 60.5041 7.77902 60.14 7.42002C59.779 7.06102 59.3308 6.88102 58.8057 6.88102C58.2765 6.88102 57.8324 7.06102 57.4672 7.42002C57.1031 7.77902 56.9185 8.24002 56.9185 8.79902C56.9185 9.35802 57.1031 9.81902 57.4672 10.178Z" fill="white" stroke="white" stroke-width="0.0328205" stroke-miterlimit="10"/>
<path id="N" d="M62.2231 11.1964V6.40039H62.9924L65.3842 10.1304H65.4119L65.3842 9.20839V6.40039H66.017V11.1964H65.3565L62.8519 7.28239H62.8242L62.8519 8.20839V11.1964H62.2231Z" fill="white" stroke="white" stroke-width="0.0328205" stroke-miterlimit="10"/>
</g>
<g id="Google Play">
<path id="Google Play_2" d="M56.1174 18.2005C54.1902 18.2005 52.6159 19.6305 52.6159 21.6035C52.6159 23.5605 54.1902 25.0055 56.1174 25.0055C58.0487 25.0055 59.6231 23.5605 59.6231 21.6035C59.6231 19.6305 58.0487 18.2005 56.1174 18.2005ZM56.1174 23.6655C55.06 23.6655 54.1502 22.8145 54.1502 21.6035C54.1502 20.3765 55.06 19.5405 56.1174 19.5405C57.1748 19.5405 58.0887 20.3765 58.0887 21.6035C58.0887 22.8145 57.1748 23.6655 56.1174 23.6655ZM48.4774 18.2005C46.5461 18.2005 44.9759 19.6305 44.9759 21.6035C44.9759 23.5605 46.5461 25.0055 48.4774 25.0055C50.4077 25.0055 51.9789 23.5605 51.9789 21.6035C51.9789 19.6305 50.4077 18.2005 48.4774 18.2005ZM48.4774 23.6655C47.4189 23.6655 46.5061 22.8145 46.5061 21.6035C46.5061 20.3765 47.4189 19.5405 48.4774 19.5405C49.5348 19.5405 50.4446 20.3765 50.4446 21.6035C50.4446 22.8145 49.5348 23.6655 48.4774 23.6655ZM39.3861 19.2435V20.6895H42.9277C42.8241 21.4975 42.5472 22.0915 42.1225 22.5055C41.6056 23.0055 40.8005 23.5605 39.3861 23.5605C37.2066 23.5605 35.5 21.8455 35.5 19.7205C35.5 17.5955 37.2066 15.8805 39.3861 15.8805C40.5646 15.8805 41.422 16.3295 42.0548 16.9115L43.1 15.8925C42.2149 15.0685 41.0374 14.4355 39.3861 14.4355C36.3974 14.4355 33.8856 16.8065 33.8856 19.7205C33.8856 22.6345 36.3974 25.0055 39.3861 25.0055C41.0015 25.0055 42.2148 24.4895 43.1687 23.5215C44.1461 22.5685 44.4507 21.2285 44.4507 20.1465C44.4507 19.8105 44.422 19.5015 44.3707 19.2435H39.3861ZM76.5615 20.3645C76.2733 19.6035 75.3841 18.2005 73.5728 18.2005C71.7779 18.2005 70.2836 19.5795 70.2836 21.6035C70.2836 23.5095 71.7625 25.0055 73.7451 25.0055C75.3482 25.0055 76.2733 24.0525 76.6538 23.4975L75.4641 22.7245C75.0672 23.2905 74.5266 23.6655 73.7451 23.6655C72.9687 23.6655 72.4118 23.3185 72.0548 22.6345L76.7225 20.7515L76.5615 20.3645ZM71.8025 21.4975C71.7625 20.1855 72.8477 19.5135 73.6251 19.5135C74.2343 19.5135 74.7513 19.8105 74.9236 20.2355L71.8025 21.4975ZM68.0087 24.7985H69.543V14.7985H68.0087V24.7985ZM65.4959 18.9585H65.4446C65.1 18.5605 64.4425 18.2005 63.6097 18.2005C61.862 18.2005 60.2641 19.6965 60.2641 21.6145C60.2641 23.5215 61.862 25.0055 63.6097 25.0055C64.4425 25.0055 65.1 24.6425 65.4446 24.2325H65.4959V24.7205C65.4959 26.0215 64.783 26.7205 63.6333 26.7205C62.6959 26.7205 62.1143 26.0605 61.8743 25.5055L60.54 26.0485C60.9246 26.9505 61.943 28.0605 63.6333 28.0605C65.4323 28.0605 66.9502 27.0285 66.9502 24.5175V18.4075H65.4959V18.9585ZM63.741 23.6655C62.6836 23.6655 61.7984 22.8025 61.7984 21.6145C61.7984 20.4155 62.6836 19.5405 63.741 19.5405C64.7831 19.5405 65.6046 20.4155 65.6046 21.6145C65.6046 22.8025 64.7831 23.6655 63.741 23.6655ZM83.7451 14.7985H80.0754V24.7985H81.6056V21.0095H83.7451C85.4446 21.0095 87.1113 19.8105 87.1113 17.9035C87.1113 15.9975 85.4405 14.7985 83.7451 14.7985ZM83.7851 19.6185H81.6056V16.1895H83.7851C84.9277 16.1895 85.58 17.1145 85.58 17.9035C85.58 18.6775 84.9277 19.6185 83.7851 19.6185ZM93.2446 18.1815C92.1389 18.1815 90.9892 18.6575 90.5164 19.7125L91.8743 20.2675C92.1666 19.7125 92.7041 19.5325 93.2723 19.5325C94.0661 19.5325 94.8713 19.9975 94.8836 20.8185V20.9235C94.6066 20.7675 94.0138 20.5365 93.2846 20.5365C91.822 20.5365 90.3318 21.3215 90.3318 22.7865C90.3318 24.1265 91.5297 24.9895 92.8764 24.9895C93.9061 24.9895 94.4743 24.5365 94.8313 24.0095H94.8836V24.7825H96.3615V20.9465C96.3615 19.1735 95.0036 18.1815 93.2446 18.1815ZM93.06 23.6615C92.5595 23.6615 91.862 23.4195 91.862 22.8145C91.862 22.0405 92.7318 21.7435 93.4846 21.7435C94.1584 21.7435 94.4743 21.8885 94.8836 22.0795C94.7636 23.0055 93.9461 23.6615 93.06 23.6615ZM101.746 18.4005L99.9871 22.7355H99.9348L98.1164 18.4005H96.4661L99.1984 24.4585L97.6395 27.8295H99.2384L103.449 18.4005H101.746ZM87.9523 24.7985H89.4866V14.7985H87.9523V24.7985Z" fill="white"/>
</g>
</g>
<defs>
<linearGradient id="paint0_linear_1776_20278" x1="18.0988" y1="25.8314" x2="4.6772" y2="12.0657" gradientUnits="userSpaceOnUse">
<stop stop-color="#00A0FF"/>
<stop offset="0.0066" stop-color="#00A1FF"/>
<stop offset="0.2601" stop-color="#00BEFF"/>
<stop offset="0.5122" stop-color="#00D2FF"/>
<stop offset="0.7604" stop-color="#00DFFF"/>
<stop offset="1" stop-color="#00E3FF"/>
</linearGradient>
<linearGradient id="paint1_linear_1776_20278" x1="27.9734" y1="16.7995" x2="8.11954" y2="16.7995" gradientUnits="userSpaceOnUse">
<stop stop-color="#FFE000"/>
<stop offset="0.4087" stop-color="#FFBD00"/>
<stop offset="0.7754" stop-color="#FFA500"/>
<stop offset="1" stop-color="#FF9C00"/>
</linearGradient>
<linearGradient id="paint2_linear_1776_20278" x1="20.5827" y1="14.9629" x2="2.38194" y2="-3.70459" gradientUnits="userSpaceOnUse">
<stop stop-color="#FF3A44"/>
<stop offset="1" stop-color="#C31162"/>
</linearGradient>
<linearGradient id="paint3_linear_1776_20278" x1="6.1994" y1="32.6579" x2="14.3269" y2="24.3221" gradientUnits="userSpaceOnUse">
<stop stop-color="#32A071"/>
<stop offset="0.0685" stop-color="#2DA771"/>
<stop offset="0.4762" stop-color="#15CF74"/>
<stop offset="0.8009" stop-color="#06E775"/>
<stop offset="1" stop-color="#00F076"/>
</linearGradient>
</defs>
</svg>
