<svg xmlns="http://www.w3.org/2000/svg" width="16" height="16" viewBox="0 0 16 16" fill="none">
  <path fill-rule="evenodd" clip-rule="evenodd" d="M3.38932 3.27731C3.72659 2.94004 4.27341 2.94004 4.61068 3.27731L12.7531 11.4198C13.0904 11.757 13.0904 12.3038 12.7531 12.6411C12.4159 12.9784 11.869 12.9784 11.5318 12.6411L3.38932 4.49868C3.05205 4.1614 3.05205 3.61458 3.38932 3.27731Z" fill="white"/>
  <path opacity="0.4" fill-rule="evenodd" clip-rule="evenodd" d="M3.27731 12.6107C2.94004 12.2734 2.94004 11.7266 3.27731 11.3893L11.4198 3.24688C11.757 2.9096 12.3038 2.9096 12.6411 3.24688C12.9784 3.58415 12.9784 4.13097 12.6411 4.46824L4.49868 12.6107C4.1614 12.948 3.61458 12.948 3.27731 12.6107Z" fill="white"/>
</svg>