<svg width="20" height="20" viewBox="0 0 20 20" fill="none" xmlns="http://www.w3.org/2000/svg">
<g id="uzbekista&#204;&#129;n" clip-path="url(#clip0_1241_22912)">
<path id="Vector" d="M0.472188 6.95629C0.165859 7.91598 -3.90556e-05 8.93836 6.89667e-09 9.99965C-3.90556e-05 11.061 0.165898 12.0834 0.472227 13.0431L10 13.478L19.5278 13.0432C19.8341 12.0835 20 11.061 20 9.99973C20 8.9384 19.8341 7.91598 19.5278 6.95625L10 6.52148L0.472188 6.95629Z" fill="#F0F0F0"/>
<g id="Group">
<path id="Vector_2" d="M19.5283 6.95674L10.0005 6.52197L0.472734 6.95674C0.381953 7.24127 0.303789 7.53139 0.238281 7.82631H19.7627C19.6972 7.53135 19.6191 7.24119 19.5283 6.95674Z" fill="#D80027"/>
<path id="Vector_3" d="M0.238892 12.1741C0.304321 12.469 0.382485 12.7591 0.473267 13.0436L0.474204 13.0436L10.001 13.4784L19.5288 13.0436C19.6196 12.7591 19.6977 12.469 19.7632 12.1741H0.238892Z" fill="#D80027"/>
</g>
<path id="Vector_4" d="M10.0004 20C14.462 20 18.2405 17.078 19.5282 13.0435H0.472656C1.76035 17.0779 5.53895 20 10.0004 20Z" fill="#6DA544"/>
<path id="Vector_5" d="M10.0004 3.91644e-10C5.53895 3.90629e-05 1.76043 2.92203 0.472656 6.95652L19.5282 6.95656C18.2405 2.92199 14.462 -3.90621e-05 10.0004 3.91644e-10Z" fill="#338AF3"/>
<g id="Group_2">
<path id="Vector_6" d="M4.56996 4.1308C4.56996 3.1942 5.2282 2.41178 6.10723 2.21982C5.97215 2.19029 5.83195 2.17432 5.68797 2.17432C4.60742 2.17432 3.73145 3.05025 3.73145 4.13084C3.73145 5.21143 4.60734 6.08736 5.68797 6.08736C5.83195 6.08736 5.97211 6.07135 6.10723 6.04186C5.22824 5.84982 4.56996 5.0674 4.56996 4.1308Z" fill="#F0F0F0"/>
<path id="Vector_7" d="M7.26312 5.01953L7.39554 5.42715H7.82414L7.47742 5.6791L7.60984 6.08672L7.26312 5.8348L6.91632 6.08672L7.04878 5.6791L6.70203 5.42715H7.13062L7.26312 5.01953Z" fill="#F0F0F0"/>
<path id="Vector_8" d="M8.63145 5.01953L8.76391 5.42715H9.1925L8.84575 5.6791L8.97821 6.08672L8.63145 5.8348L8.28469 6.08672L8.41715 5.6791L8.07043 5.42715H8.49899L8.63145 5.01953Z" fill="#F0F0F0"/>
<path id="Vector_9" d="M9.99994 5.01953L10.1324 5.42715H10.561L10.2142 5.6791L10.3467 6.08672L9.99994 5.8348L9.65314 6.08672L9.78564 5.6791L9.43884 5.42715H9.86748L9.99994 5.01953Z" fill="#F0F0F0"/>
<path id="Vector_10" d="M11.3671 5.01953L11.4996 5.42715H11.9281L11.5814 5.6791L11.7139 6.08672L11.3671 5.8348L11.0203 6.08672L11.1528 5.6791L10.806 5.42715H11.2346L11.3671 5.01953Z" fill="#F0F0F0"/>
<path id="Vector_11" d="M12.7355 5.01953L12.8679 5.42715H13.2965L12.9498 5.6791L13.0823 6.08672L12.7355 5.8348L12.3887 6.08672L12.5212 5.6791L12.1744 5.42715H12.603L12.7355 5.01953Z" fill="#F0F0F0"/>
<path id="Vector_12" d="M8.63145 3.59692L8.76391 4.0045H9.1925L8.84575 4.25649L8.97821 4.66407L8.63145 4.41216L8.28469 4.66407L8.41715 4.25649L8.07043 4.0045H8.49899L8.63145 3.59692Z" fill="#F0F0F0"/>
<path id="Vector_13" d="M9.99994 3.59692L10.1324 4.0045H10.561L10.2142 4.25649L10.3467 4.66407L9.99994 4.41216L9.65314 4.66407L9.78564 4.25649L9.43884 4.0045H9.86748L9.99994 3.59692Z" fill="#F0F0F0"/>
<path id="Vector_14" d="M11.3671 3.59692L11.4996 4.0045H11.9281L11.5814 4.25649L11.7139 4.66407L11.3671 4.41216L11.0203 4.66407L11.1528 4.25649L10.806 4.0045H11.2346L11.3671 3.59692Z" fill="#F0F0F0"/>
<path id="Vector_15" d="M12.7355 3.59692L12.8679 4.0045H13.2965L12.9498 4.25649L13.0823 4.66407L12.7355 4.41216L12.3887 4.66407L12.5212 4.25649L12.1744 4.0045H12.603L12.7355 3.59692Z" fill="#F0F0F0"/>
<path id="Vector_16" d="M9.99994 2.17383L10.1324 2.58148H10.561L10.2142 2.8334L10.3467 3.24105L9.99994 2.98914L9.65314 3.24105L9.78564 2.8334L9.43884 2.58148H9.86748L9.99994 2.17383Z" fill="#F0F0F0"/>
<path id="Vector_17" d="M11.3671 2.17383L11.4996 2.58148H11.9281L11.5814 2.8334L11.7139 3.24105L11.3671 2.98914L11.0203 3.24105L11.1528 2.8334L10.806 2.58148H11.2346L11.3671 2.17383Z" fill="#F0F0F0"/>
<path id="Vector_18" d="M12.7355 2.17383L12.8679 2.58148H13.2965L12.9498 2.8334L13.0823 3.24105L12.7355 2.98914L12.3887 3.24105L12.5212 2.8334L12.1744 2.58148H12.603L12.7355 2.17383Z" fill="#F0F0F0"/>
</g>
</g>
<defs>
<clipPath id="clip0_1241_22912">
<rect width="20" height="20" fill="white"/>
</clipPath>
</defs>
</svg>
