<svg width="140" height="140" viewBox="0 0 140 140" fill="none" xmlns="http://www.w3.org/2000/svg">
<rect width="140" height="140" rx="38.1818" fill="white"/>
<path d="M43.5188 69.9991C43.6627 73.6682 44.8137 76.6178 46.972 78.8479C49.2022 81.0781 52.4755 82.1932 56.792 82.1932C59.1661 82.1932 61.2884 81.7616 63.1588 80.8983C65.0293 79.963 66.7559 78.5962 68.3386 76.7976C74.4537 79.1717 81.6119 81.222 89.8132 82.9486C87.4391 88.4881 83.4104 92.8046 77.727 95.8981C72.1156 98.9916 64.8135 100.538 55.8208 100.538C43.8066 100.538 34.9218 97.7326 29.1664 92.1212C23.4111 86.5097 20.5334 79.1357 20.5334 69.9991C20.5334 60.8625 23.4111 53.4885 29.1664 47.8771C34.9218 42.2656 43.8066 39.4599 55.8208 39.4599C64.8135 39.4599 72.1156 41.0066 77.727 44.1001C83.4104 47.1936 87.4391 51.5101 89.8132 57.0496C83.4104 58.4165 76.2522 60.4669 68.3386 63.2006C66.7559 61.4021 65.0293 60.0712 63.1588 59.2079C61.2884 58.2726 59.1661 57.805 56.792 57.805C52.4755 57.805 49.2022 58.9201 46.972 61.1503C44.8137 63.3805 43.6627 66.3301 43.5188 69.9991Z" fill="#002168"/>
<path d="M95.5325 79.2793C97.7627 81.5094 101.144 82.6245 105.676 82.6245C110.137 82.6245 113.482 81.5094 115.712 79.2793C117.942 77.0491 119.057 74.1354 119.057 70.5383C119.057 67.0851 117.906 64.2075 115.604 61.9053C113.302 59.5313 109.993 58.3442 105.676 58.3442C101.144 58.3442 97.7627 59.4953 95.5325 61.7974C93.3743 64.0996 92.2952 67.0132 92.2952 70.5383C92.2952 74.1354 93.3743 77.0491 95.5325 79.2793Z" fill="#1D7ED8"/>
</svg>
