<svg width="111" height="33" viewBox="0 0 111 33" fill="none" xmlns="http://www.w3.org/2000/svg">
<g id="Group">
<path id="BG" d="M110.154 29.1081C110.154 30.8135 108.744 32.1948 107 32.1948H3.77381C2.03046 32.1948 0.615387 30.8135 0.615387 29.1081V4.49303C0.615387 2.78852 2.03046 1.40234 3.77381 1.40234H106.999C108.744 1.40234 110.153 2.78852 110.153 4.49303L110.154 29.1081Z" fill="black"/>
<path id="Border" d="M106.667 1.43982C108.566 1.43982 110.112 2.94683 110.112 4.79882V28.7988C110.112 30.6508 108.566 32.1578 106.667 32.1578H4.10257C2.20308 32.1578 0.657436 30.6508 0.657436 28.7988V4.79882C0.657436 2.94683 2.20308 1.43982 4.10257 1.43982H106.667ZM106.667 0.798824H4.10257C1.84718 0.798824 0 2.59982 0 4.79882V28.7988C0 30.9978 1.84718 32.7988 4.10257 32.7988H106.667C108.922 32.7988 110.769 30.9978 110.769 28.7988V4.79882C110.769 2.59982 108.922 0.798824 106.667 0.798824Z" fill="#A6A6A6"/>
<g id="Icon">
<g id="Vector">
<path d="M24.7206 16.6251C24.6968 14.0467 26.8859 12.7923 26.986 12.7339C25.7462 10.9715 23.8246 10.7307 23.1493 10.7115C21.5353 10.5459 19.9698 11.6531 19.1476 11.6531C18.3091 11.6531 17.043 10.7275 15.6785 10.7547C13.9226 10.7811 12.2799 11.7723 11.379 13.3115C9.51973 16.4499 10.9064 21.0619 12.6877 23.5987C13.5788 24.8411 14.62 26.2283 15.9829 26.1795C17.3162 26.1259 17.8143 25.3507 19.4233 25.3507C21.0176 25.3507 21.4853 26.1795 22.8752 26.1483C24.3062 26.1259 25.2071 24.9003 26.067 23.6467C27.0968 22.2227 27.5103 20.8203 27.5267 20.7483C27.4931 20.7371 24.7476 19.7155 24.7206 16.6251Z" fill="white"/>
<path d="M22.0949 9.04269C22.812 8.16828 23.3027 6.97868 23.1665 5.77148C22.1286 5.81628 20.8305 6.47148 20.083 7.32668C19.4217 8.08029 18.8309 9.31549 18.9835 10.4771C20.1495 10.5619 21.3466 9.90349 22.0949 9.04269Z" fill="white"/>
</g>
</g>
<g id="Download on the">
<path id="D" d="M40.2463 8.80579C40.2463 9.74739 39.9566 10.4562 39.3782 10.9322C38.8424 11.3714 38.0809 11.5914 37.0947 11.5914C36.6056 11.5914 36.1872 11.5706 35.8368 11.529V6.38419C36.2938 6.31219 36.7862 6.27539 37.3178 6.27539C38.2573 6.27539 38.9654 6.47459 39.443 6.87299C39.978 7.32339 40.2463 7.96739 40.2463 8.80579ZM39.3396 8.82899C39.3396 8.21859 39.1739 7.75059 38.8424 7.42419C38.5109 7.09859 38.0268 6.93539 37.3892 6.93539C37.1185 6.93539 36.8879 6.95299 36.6967 6.98979V10.901C36.8026 10.917 36.9962 10.9242 37.2776 10.9242C37.9357 10.9242 38.4436 10.7458 38.8013 10.389C39.1591 10.0322 39.3396 9.51219 39.3396 8.82899Z" fill="white"/>
<path id="o" d="M45.0537 9.62847C45.0537 10.2085 44.8838 10.6837 44.5441 11.0565C44.188 11.4397 43.7162 11.6309 43.1271 11.6309C42.5593 11.6309 42.1072 11.4477 41.77 11.0797C41.4336 10.7125 41.2654 10.2493 41.2654 9.69087C41.2654 9.10687 41.4385 8.62767 41.7864 8.25567C42.1343 7.88367 42.602 7.69727 43.1911 7.69727C43.7589 7.69727 44.2151 7.88047 44.5605 8.24767C44.8887 8.60447 45.0537 9.06527 45.0537 9.62847ZM44.1618 9.65567C44.1618 9.30767 44.0846 9.00927 43.9312 8.76047C43.7507 8.45967 43.4939 8.30927 43.1599 8.30927C42.8145 8.30927 42.5519 8.45967 42.3714 8.76047C42.2171 9.00927 42.1408 9.31247 42.1408 9.67087C42.1408 10.0189 42.218 10.3173 42.3714 10.5661C42.5577 10.8669 42.8169 11.0173 43.1517 11.0173C43.4799 11.0173 43.7376 10.8645 43.923 10.5581C44.0822 10.3045 44.1618 10.0037 44.1618 9.65567Z" fill="white"/>
<path id="w" d="M51.4996 7.77344L50.2894 11.5446H49.5017L49.0003 9.90704C48.8731 9.49824 48.7698 9.09184 48.6894 8.68864H48.6738C48.5991 9.10304 48.4957 9.50864 48.3628 9.90704L47.8303 11.5446H47.0336L45.8955 7.77344H46.7792L47.2165 9.56624C47.3224 9.99024 47.4094 10.3942 47.4791 10.7766H47.4947C47.5587 10.4614 47.6645 10.0598 47.8139 9.57424L48.3628 7.77424H49.0635L49.5895 9.53584C49.7166 9.96544 49.82 10.379 49.8996 10.7774H49.9234C49.9817 10.3894 50.0695 9.97584 50.186 9.53584L50.6553 7.77424H51.4996V7.77344Z" fill="white"/>
<path id="n" d="M55.9575 11.5438H55.0976V9.38376C55.0976 8.71816 54.8383 8.38536 54.3181 8.38536C54.0629 8.38536 53.857 8.47656 53.697 8.65976C53.5386 8.84296 53.4582 9.05896 53.4582 9.30616V11.543H52.5983V8.85016C52.5983 8.51896 52.5876 8.15976 52.5671 7.77096H53.3228L53.363 8.36056H53.3868C53.4869 8.17736 53.6362 8.02616 53.8323 7.90536C54.0654 7.76456 54.3263 7.69336 54.6118 7.69336C54.9728 7.69336 55.2732 7.80696 55.5119 8.03496C55.8089 8.31416 55.9575 8.73096 55.9575 9.28456V11.5438Z" fill="white"/>
<path id="l" d="M58.3287 11.5446H57.4697V6.04297H58.3287V11.5446Z" fill="white"/>
<path id="o_2" d="M63.3913 9.62847C63.3913 10.2085 63.2215 10.6837 62.8818 11.0565C62.5257 11.4397 62.0531 11.6309 61.4648 11.6309C60.8962 11.6309 60.4441 11.4477 60.1076 11.0797C59.7712 10.7125 59.603 10.2493 59.603 9.69087C59.603 9.10687 59.7762 8.62767 60.1241 8.25567C60.472 7.88367 60.9396 7.69727 61.528 7.69727C62.0966 7.69727 62.552 7.88047 62.8982 8.24767C63.2264 8.60447 63.3913 9.06527 63.3913 9.62847ZM62.4986 9.65567C62.4986 9.30767 62.4215 9.00927 62.2681 8.76047C62.0884 8.45967 61.8307 8.30927 61.4976 8.30927C61.1513 8.30927 60.8888 8.45967 60.7091 8.76047C60.5548 9.00927 60.4785 9.31247 60.4785 9.67087C60.4785 10.0189 60.5556 10.3173 60.7091 10.5661C60.8953 10.8669 61.1546 11.0173 61.4894 11.0173C61.8176 11.0173 62.0744 10.8645 62.2598 10.5581C62.4198 10.3045 62.4986 10.0037 62.4986 9.65567Z" fill="white"/>
<path id="a" d="M67.5529 11.5453H66.7808L66.7168 11.1109H66.693C66.4288 11.4573 66.0522 11.6309 65.5632 11.6309C65.1981 11.6309 64.9027 11.5165 64.6803 11.2893C64.4785 11.0829 64.3776 10.8261 64.3776 10.5213C64.3776 10.0605 64.5745 9.70927 64.9708 9.46607C65.3663 9.22287 65.9226 9.10367 66.6389 9.10927V9.03887C66.6389 8.54207 66.3714 8.29407 65.8356 8.29407C65.4541 8.29407 65.1177 8.38767 64.8272 8.57327L64.6524 8.02287C65.0118 7.80607 65.4557 7.69727 65.9792 7.69727C66.9901 7.69727 67.4971 8.21727 67.4971 9.25727V10.6461C67.4971 11.0229 67.516 11.3229 67.5529 11.5453ZM66.6602 10.2493V9.66767C65.7117 9.65167 65.2375 9.90527 65.2375 10.4277C65.2375 10.6245 65.2916 10.7717 65.4024 10.8701C65.5132 10.9685 65.6543 11.0173 65.8225 11.0173C66.0112 11.0173 66.1876 10.9589 66.3484 10.8429C66.5101 10.7261 66.6094 10.5781 66.6463 10.3965C66.6553 10.3557 66.6602 10.3061 66.6602 10.2493Z" fill="white"/>
<path id="d" d="M72.4391 11.5446H71.676L71.6358 10.939H71.612C71.3683 11.3998 70.9531 11.6302 70.3697 11.6302C69.9037 11.6302 69.5156 11.4518 69.2079 11.095C68.9002 10.7382 68.7468 10.275 68.7468 9.70617C68.7468 9.09577 68.9133 8.60137 69.2481 8.22377C69.5722 7.87177 69.9693 7.69577 70.4419 7.69577C70.9613 7.69577 71.3248 7.86617 71.5316 8.20777H71.548V6.04297H72.4087V10.5286C72.4087 10.8958 72.4186 11.2342 72.4391 11.5446ZM71.548 9.95417V9.32537C71.548 9.21657 71.5398 9.12857 71.5242 9.06137C71.4758 8.85977 71.3716 8.69017 71.2132 8.55337C71.0532 8.41657 70.8604 8.34777 70.638 8.34777C70.3172 8.34777 70.0661 8.47177 69.8815 8.72057C69.6986 8.96937 69.6058 9.28697 69.6058 9.67497C69.6058 10.0478 69.6936 10.3502 69.87 10.583C70.0563 10.831 70.3074 10.955 70.6216 10.955C70.9039 10.955 71.1295 10.8518 71.301 10.6446C71.4668 10.4534 71.548 10.223 71.548 9.95417Z" fill="white"/>
<path id="o_3" d="M79.7934 9.62847C79.7934 10.2085 79.6235 10.6837 79.2838 11.0565C78.9277 11.4397 78.4568 11.6309 77.8668 11.6309C77.2998 11.6309 76.8477 11.4477 76.5097 11.0797C76.1733 10.7125 76.0051 10.2493 76.0051 9.69087C76.0051 9.10687 76.1782 8.62767 76.5261 8.25567C76.874 7.88367 77.3417 7.69727 77.9316 7.69727C78.4986 7.69727 78.9556 7.88047 79.3002 8.24767C79.6285 8.60447 79.7934 9.06527 79.7934 9.62847ZM78.9023 9.65567C78.9023 9.30767 78.8252 9.00927 78.6717 8.76047C78.4904 8.45967 78.2344 8.30927 77.8996 8.30927C77.555 8.30927 77.2924 8.45967 77.1111 8.76047C76.9569 9.00927 76.8806 9.31247 76.8806 9.67087C76.8806 10.0189 76.9577 10.3173 77.1111 10.5661C77.2974 10.8669 77.5567 11.0173 77.8914 11.0173C78.2196 11.0173 78.4781 10.8645 78.6635 10.5581C78.8219 10.3045 78.9023 10.0037 78.9023 9.65567Z" fill="white"/>
<path id="n_2" d="M84.4169 11.5438H83.5579V9.38376C83.5579 8.71816 83.2986 8.38536 82.7776 8.38536C82.5224 8.38536 82.3164 8.47656 82.1572 8.65976C81.9981 8.84296 81.9185 9.05896 81.9185 9.30616V11.543H81.0578V8.85016C81.0578 8.51896 81.0479 8.15976 81.0274 7.77096H81.7823L81.8225 8.36056H81.8463C81.9472 8.17736 82.0965 8.02616 82.2918 7.90536C82.5257 7.76456 82.7858 7.69336 83.0721 7.69336C83.4323 7.69336 83.7326 7.80696 83.9714 8.03496C84.2692 8.31416 84.4169 8.73096 84.4169 9.28456V11.5438Z" fill="white"/>
<path id="t" d="M90.204 8.40118H89.2571V10.2332C89.2571 10.6988 89.4253 10.9316 89.7585 10.9316C89.9127 10.9316 90.0407 10.9188 90.1417 10.8924L90.1638 11.5284C89.994 11.5908 89.7708 11.622 89.4959 11.622C89.1562 11.622 88.892 11.5212 88.7008 11.3196C88.5088 11.118 88.4137 10.7788 88.4137 10.3028V8.40118H87.8483V7.77318H88.4137V7.08198L89.2563 6.83398V7.77238H90.2032V8.40118H90.204Z" fill="white"/>
<path id="h" d="M94.7562 11.5446H93.8955V9.40057C93.8955 8.72457 93.6362 8.38617 93.1168 8.38617C92.7181 8.38617 92.4457 8.58217 92.2963 8.97417C92.2709 9.05657 92.2561 9.15737 92.2561 9.27577V11.5438H91.397V6.04297H92.2561V8.31577H92.2725C92.5433 7.90217 92.9314 7.69577 93.4344 7.69577C93.7905 7.69577 94.085 7.80937 94.3189 8.03737C94.6102 8.32137 94.7562 8.74377 94.7562 9.30217V11.5446Z" fill="white"/>
<path id="e" d="M99.452 9.48065C99.452 9.63105 99.4405 9.75745 99.42 9.86065H96.8411C96.8526 10.2335 96.9757 10.5175 97.2145 10.7143C97.4327 10.8903 97.7142 10.9783 98.0588 10.9783C98.4403 10.9783 98.7882 10.9191 99.1017 10.7999L99.2362 11.3823C98.8695 11.5375 98.4379 11.6151 97.9382 11.6151C97.3392 11.6151 96.8674 11.4431 96.5261 11.0991C96.1831 10.7551 96.0132 10.2935 96.0132 9.71425C96.0132 9.14545 96.1716 8.67185 96.4908 8.29425C96.8239 7.89105 97.2744 7.68945 97.843 7.68945C98.3993 7.68945 98.8219 7.89105 99.1074 8.29425C99.338 8.61425 99.452 9.01025 99.452 9.48065ZM98.6315 9.26385C98.6381 9.01505 98.5814 8.80065 98.4649 8.61985C98.3156 8.38705 98.0883 8.27025 97.7806 8.27025C97.5 8.27025 97.2711 8.38385 97.0963 8.61185C96.9536 8.79345 96.869 9.01025 96.8411 9.26385H98.6315Z" fill="white"/>
</g>
<g id="App Store">
<path id="A" d="M44.0165 26.0019H42.1531L41.1324 22.8747H37.5845L36.6122 26.0019H34.798L38.3131 15.3555H40.4842L44.0165 26.0019ZM40.8247 21.5627L39.9016 18.7827C39.804 18.4987 39.621 17.8299 39.3511 16.7771H39.3182C39.2108 17.2299 39.0376 17.8987 38.7997 18.7827L37.893 21.5627H40.8247Z" fill="white"/>
<path id="p" d="M53.0561 22.0696C53.0561 23.3752 52.6942 24.4072 51.9705 25.1648C51.3223 25.8392 50.5174 26.176 49.5566 26.176C48.5195 26.176 47.7744 25.8128 47.3207 25.0864H47.2879V29.1304H45.5385V20.8528C45.5385 20.032 45.5164 19.1896 45.4737 18.3256H47.0122L47.1098 19.5424H47.1426C47.726 18.6256 48.6114 18.168 49.7995 18.168C50.7283 18.168 51.5037 18.5256 52.124 19.2416C52.7459 19.9584 53.0561 20.9008 53.0561 22.0696ZM51.2739 22.132C51.2739 21.3848 51.1016 20.7688 50.7554 20.284C50.3771 19.7784 49.8692 19.5256 49.2325 19.5256C48.8009 19.5256 48.4087 19.6664 48.0583 19.944C47.7072 20.224 47.4774 20.5896 47.3699 21.0424C47.3158 21.2536 47.2887 21.4264 47.2887 21.5624V22.8424C47.2887 23.4008 47.4643 23.872 47.8155 24.2568C48.1666 24.6416 48.6229 24.8336 49.1841 24.8336C49.843 24.8336 50.3558 24.5856 50.7225 24.0912C51.0901 23.596 51.2739 22.9432 51.2739 22.132Z" fill="white"/>
<path id="p_2" d="M62.1121 22.0696C62.1121 23.3752 61.7503 24.4072 61.0258 25.1648C60.3784 25.8392 59.5735 26.176 58.6126 26.176C57.5755 26.176 56.8305 25.8128 56.3776 25.0864H56.3447V29.1304H54.5954V20.8528C54.5954 20.032 54.5732 19.1896 54.5306 18.3256H56.069L56.1667 19.5424H56.1995C56.7821 18.6256 57.6674 18.168 58.8563 18.168C59.7843 18.168 60.5597 18.5256 61.1817 19.2416C61.8011 19.9584 62.1121 20.9008 62.1121 22.0696ZM60.33 22.132C60.33 21.3848 60.1568 20.7688 59.8106 20.284C59.4323 19.7784 58.9261 19.5256 58.2885 19.5256C57.8561 19.5256 57.4647 19.6664 57.1136 19.944C56.7624 20.224 56.5334 20.5896 56.426 21.0424C56.3726 21.2536 56.3447 21.4264 56.3447 21.5624V22.8424C56.3447 23.4008 56.5203 23.872 56.8699 24.2568C57.221 24.6408 57.6772 24.8336 58.2401 24.8336C58.899 24.8336 59.4118 24.5856 59.7786 24.0912C60.1462 23.596 60.33 22.9432 60.33 22.132Z" fill="white"/>
<path id="S" d="M72.2372 23.016C72.2372 23.9216 71.9148 24.6584 71.2674 25.2272C70.556 25.8488 69.5656 26.1592 68.293 26.1592C67.1181 26.1592 66.1761 25.9384 65.4631 25.496L65.8684 24.0744C66.6364 24.5272 67.4791 24.7544 68.3972 24.7544C69.0561 24.7544 69.5689 24.6088 69.9373 24.3192C70.3041 24.0296 70.4871 23.6408 70.4871 23.156C70.4871 22.724 70.3361 22.36 70.0333 22.0648C69.7322 21.7696 69.2292 21.4952 68.5269 21.2416C66.6151 20.5464 65.66 19.528 65.66 18.1888C65.66 17.3136 65.9948 16.596 66.6651 16.0376C67.333 15.4784 68.2241 15.1992 69.3384 15.1992C70.332 15.1992 71.1574 15.368 71.8163 15.7048L71.379 17.0952C70.7636 16.7688 70.0678 16.6056 69.2891 16.6056C68.6737 16.6056 68.1929 16.7536 67.8483 17.048C67.557 17.3112 67.411 17.632 67.411 18.012C67.411 18.4328 67.5775 18.7808 67.9123 19.0544C68.2036 19.3072 68.7328 19.5808 69.5008 19.876C70.4403 20.2448 71.1304 20.676 71.5743 21.1704C72.0165 21.6632 72.2372 22.28 72.2372 23.016Z" fill="white"/>
<path id="t_2" d="M78.021 19.6049H76.0928V23.3321C76.0928 24.2801 76.4325 24.7537 77.1135 24.7537C77.4262 24.7537 77.6854 24.7273 77.8906 24.6745L77.939 25.9697C77.5944 26.0953 77.1406 26.1585 76.5786 26.1585C75.8877 26.1585 75.3478 25.9529 74.9581 25.5425C74.57 25.1313 74.3747 24.4417 74.3747 23.4729V19.6033H73.226V18.3233H74.3747V16.9177L76.0928 16.4121V18.3233H78.021V19.6049Z" fill="white"/>
<path id="o_4" d="M86.7209 22.1C86.7209 23.28 86.3747 24.2488 85.6838 25.0064C84.9593 25.7864 83.9976 26.1752 82.7989 26.1752C81.6436 26.1752 80.7238 25.8016 80.0378 25.0544C79.3519 24.3072 79.0089 23.364 79.0089 22.2272C79.0089 21.0376 79.3617 20.0632 80.0698 19.3056C80.7763 18.5472 81.7297 18.168 82.9285 18.168C84.0838 18.168 85.0134 18.5416 85.715 19.2896C86.3861 20.0152 86.7209 20.952 86.7209 22.1ZM84.9059 22.1552C84.9059 21.4472 84.7509 20.84 84.4366 20.3336C84.0698 19.7208 83.5455 19.4152 82.8661 19.4152C82.163 19.4152 81.6288 19.7216 81.262 20.3336C80.9478 20.8408 80.7927 21.4576 80.7927 22.1872C80.7927 22.8952 80.9478 23.5024 81.262 24.008C81.6403 24.6208 82.1687 24.9264 82.8505 24.9264C83.5184 24.9264 84.0428 24.6144 84.421 23.992C84.7435 23.476 84.9059 22.8624 84.9059 22.1552Z" fill="white"/>
<path id="r" d="M92.4071 19.8256C92.234 19.7944 92.0494 19.7784 91.8557 19.7784C91.2403 19.7784 90.7644 20.0048 90.4297 20.4584C90.1384 20.8584 89.9923 21.364 89.9923 21.9744V26.0024H88.2438L88.2602 20.7432C88.2602 19.8584 88.2381 19.0528 88.1946 18.3264H89.7183L89.7823 19.7952H89.8307C90.0153 19.2904 90.3066 18.884 90.7054 18.5792C91.0951 18.3048 91.516 18.168 91.9698 18.168C92.1314 18.168 92.2775 18.1792 92.4071 18.1992V19.8256Z" fill="white"/>
<path id="e_2" d="M100.231 21.7995C100.231 22.1051 100.21 22.3627 100.167 22.5731H94.9187C94.9392 23.3315 95.1927 23.9115 95.6801 24.3115C96.1224 24.6691 96.6943 24.8483 97.3966 24.8483C98.1736 24.8483 98.8826 24.7275 99.5201 24.4851L99.7942 25.6691C99.0491 25.9859 98.1695 26.1435 97.1546 26.1435C95.9336 26.1435 94.9753 25.7931 94.2779 25.0931C93.5821 24.3931 93.2333 23.4531 93.2333 22.2739C93.2333 21.1163 93.5574 20.1523 94.2065 19.3835C94.8859 18.5627 95.804 18.1523 96.9593 18.1523C98.0941 18.1523 98.9531 18.5627 99.5365 19.3835C99.9985 20.0355 100.231 20.8419 100.231 21.7995ZM98.5626 21.3571C98.5741 20.8515 98.46 20.4147 98.2229 20.0459C97.9201 19.5715 97.4549 19.3347 96.8288 19.3347C96.2569 19.3347 95.7917 19.5659 95.4364 20.0299C95.1451 20.3987 94.972 20.8411 94.9187 21.3563H98.5626V21.3571Z" fill="white"/>
</g>
</g>
</svg>
