<svg width="18" height="18" viewBox="0 0 18 18" fill="none" xmlns="http://www.w3.org/2000/svg">
<g id="UniqIcons/communication/bulk/calling">
<g id="calling">
<path id="Rectangle 66" d="M15.75 14.25V13.0155C15.75 12.4022 15.3766 11.8506 14.8071 11.6228L13.2815 11.0126C12.5571 10.7229 11.7316 11.0367 11.3828 11.7345L11.25 12C11.25 12 9.375 11.625 7.875 10.125C6.375 8.625 6 6.75 6 6.75L6.26551 6.61724C6.96328 6.26836 7.27714 5.44285 6.98741 4.71852L6.37717 3.19291C6.14937 2.62343 5.59781 2.25 4.98445 2.25H3.75C2.92157 2.25 2.25 2.92157 2.25 3.75C2.25 10.3774 7.62258 15.75 14.25 15.75C15.0784 15.75 15.75 15.0784 15.75 14.25Z" fill="#1D7ED8"/>
<g id="Vector" opacity="0.4">
<path fill-rule="evenodd" clip-rule="evenodd" d="M9.1875 5.25C9.1875 4.93934 9.43934 4.6875 9.75 4.6875C10.2178 4.6875 10.6811 4.77965 11.1133 4.95868C11.5455 5.13771 11.9383 5.40012 12.2691 5.73093C12.5999 6.06174 12.8623 6.45447 13.0413 6.88669C13.2204 7.31891 13.3125 7.78217 13.3125 8.25C13.3125 8.56066 13.0607 8.8125 12.75 8.8125C12.4393 8.8125 12.1875 8.56066 12.1875 8.25C12.1875 7.9299 12.1245 7.61294 12.002 7.31721C11.8795 7.02148 11.6999 6.75277 11.4736 6.52643C11.2472 6.30008 10.9785 6.12054 10.6828 5.99804C10.3871 5.87555 10.0701 5.8125 9.75 5.8125C9.43934 5.8125 9.1875 5.56066 9.1875 5.25Z" fill="#1D7ED8"/>
<path fill-rule="evenodd" clip-rule="evenodd" d="M9.1875 2.25C9.1875 1.93934 9.43934 1.6875 9.75 1.6875C10.6118 1.6875 11.4652 1.85724 12.2614 2.18704C13.0576 2.51684 13.781 3.00023 14.3904 3.60961C14.9998 4.219 15.4832 4.94244 15.813 5.73864C16.1428 6.53484 16.3125 7.3882 16.3125 8.25C16.3125 8.56066 16.0607 8.8125 15.75 8.8125C15.4393 8.8125 15.1875 8.56066 15.1875 8.25C15.1875 7.53594 15.0469 6.82887 14.7736 6.16916C14.5003 5.50945 14.0998 4.91003 13.5949 4.40511C13.09 3.90019 12.4905 3.49967 11.8308 3.22641C11.1711 2.95315 10.4641 2.8125 9.75 2.8125C9.43934 2.8125 9.1875 2.56066 9.1875 2.25Z" fill="#1D7ED8"/>
</g>
</g>
</g>
</svg>
