<svg width="20" height="18" viewBox="0 0 20 18" fill="none" xmlns="http://www.w3.org/2000/svg">
<g id="chatting">
<path id="Vector" opacity="0.4" d="M8.88889 0H7.77778C3.48223 0 0 3.52576 0 7.875V11.25C0 12.4926 0.994923 13.5 2.22222 13.5H8.88889C12.5708 13.5 15.5556 10.4779 15.5556 6.75C15.5556 6.20688 15.4922 5.67875 15.3726 5.17276C14.6711 2.20566 12.0344 0 8.88889 0Z" fill="#1D7ED8"/>
<path id="Vector_2" d="M8.88883 13.4991C12.5707 13.4991 15.5555 10.477 15.5555 6.74912C15.5555 6.206 15.4921 5.67787 15.3725 5.17188C18.0985 6.39606 19.9999 9.16026 19.9999 12.3741V15.7491C19.9999 16.9918 19.005 17.9991 17.7777 17.9991H11.1111C8.20834 17.9991 5.73892 16.1208 4.82373 13.4991H8.88883Z" fill="#1D7ED8"/>
</g>
</svg>
