<svg width="32" height="32" viewBox="0 0 32 32" fill="none" xmlns="http://www.w3.org/2000/svg">
<g id="UniqIcons/communication/bulk/calling">
<g id="calling">
<path id="Rectangle 66" d="M28 25.3314V23.1368C28 22.0464 27.3361 21.0658 26.3237 20.6609L23.6115 19.576C22.3238 19.0609 20.8563 19.6189 20.236 20.8594L20 21.3314C20 21.3314 16.6667 20.6647 14 17.998C11.3333 15.3314 10.6667 11.998 10.6667 11.998L11.1387 11.762C12.3792 11.1418 12.9371 9.67423 12.4221 8.38652L11.3372 5.67434C10.9322 4.66192 9.95166 3.99805 8.86125 3.99805H6.66667C5.19391 3.99805 4 5.19195 4 6.66471C4 18.4468 13.5513 27.998 25.3333 27.998C26.8061 27.998 28 26.8041 28 25.3314Z" fill="white"/>
<g id="Vector" opacity="0.4">
<path fill-rule="evenodd" clip-rule="evenodd" d="M16.3333 9.33138C16.3333 8.7791 16.781 8.33138 17.3333 8.33138C18.165 8.33138 18.9885 8.4952 19.7569 8.81348C20.5253 9.13176 21.2235 9.59827 21.8116 10.1864C22.3997 10.7745 22.8662 11.4727 23.1845 12.2411C23.5028 13.0094 23.6666 13.833 23.6666 14.6647C23.6666 15.217 23.2189 15.6647 22.6666 15.6647C22.1143 15.6647 21.6666 15.217 21.6666 14.6647C21.6666 14.0957 21.5545 13.5322 21.3367 13.0064C21.119 12.4807 20.7998 12.003 20.3974 11.6006C19.995 11.1982 19.5173 10.879 18.9915 10.6612C18.4658 10.4435 17.9023 10.3314 17.3333 10.3314C16.781 10.3314 16.3333 9.88367 16.3333 9.33138Z" fill="white"/>
<path fill-rule="evenodd" clip-rule="evenodd" d="M16.3333 3.99805C16.3333 3.44576 16.781 2.99805 17.3333 2.99805C18.8653 2.99805 20.3824 3.29981 21.7979 3.88612C23.2134 4.47242 24.4995 5.33178 25.5828 6.41513C26.6662 7.49848 27.5255 8.78461 28.1118 10.2001C28.6982 11.6155 28.9999 13.1326 28.9999 14.6647C28.9999 15.217 28.5522 15.6647 27.9999 15.6647C27.4476 15.6647 26.9999 15.217 26.9999 14.6647C26.9999 13.3953 26.7499 12.1383 26.2641 10.9654C25.7783 9.79263 25.0663 8.72698 24.1686 7.82935C23.271 6.93171 22.2053 6.21967 21.0325 5.73388C19.8597 5.24808 18.6027 4.99805 17.3333 4.99805C16.781 4.99805 16.3333 4.55033 16.3333 3.99805Z" fill="white"/>
</g>
</g>
</g>
</svg>
