 <svg xmlns="http://www.w3.org/2000/svg" width="16" height="12" viewBox="0 0 16 12" fill="none">
    <path opacity="0.4" fill-rule="evenodd" clip-rule="evenodd"
        d="M0.6875 2.25C0.6875 1.93934 0.93934 1.6875 1.25 1.6875H4.25C4.56066 1.6875 4.8125 1.93934 4.8125 2.25C4.8125 2.56066 4.56066 2.8125 4.25 2.8125H1.25C0.93934 2.8125 0.6875 2.56066 0.6875 2.25Z"
        fill="#1D7ED8" />
    <path opacity="0.4" fill-rule="evenodd" clip-rule="evenodd"
        d="M0.6875 9.75C0.6875 9.43934 0.93934 9.1875 1.25 9.1875H5.75C6.06066 9.1875 6.3125 9.43934 6.3125 9.75C6.3125 10.0607 6.06066 10.3125 5.75 10.3125H1.25C0.93934 10.3125 0.6875 10.0607 0.6875 9.75Z"
        fill="#1D7ED8" />
    <path opacity="0.4" fill-rule="evenodd" clip-rule="evenodd"
        d="M11.1875 9.75C11.1875 9.43934 11.4393 9.1875 11.75 9.1875H14.75C15.0607 9.1875 15.3125 9.43934 15.3125 9.75C15.3125 10.0607 15.0607 10.3125 14.75 10.3125H11.75C11.4393 10.3125 11.1875 10.0607 11.1875 9.75Z"
        fill="#1D7ED8" />
    <path opacity="0.4" fill-rule="evenodd" clip-rule="evenodd"
        d="M9.6875 2.25C9.6875 1.93934 9.93934 1.6875 10.25 1.6875L14.75 1.6875C15.0607 1.6875 15.3125 1.93934 15.3125 2.25C15.3125 2.56066 15.0607 2.8125 14.75 2.8125L10.25 2.8125C9.93934 2.8125 9.6875 2.56066 9.6875 2.25Z"
        fill="#1D7ED8" />
    <circle cx="10.25" cy="9.75" r="2.25" fill="#1D7ED8" /> 
    <circle cx="5.75" cy="2.25" r="2.25" fill="#1D7ED8" />
</svg>