<svg width="16" height="15" viewBox="0 0 16 15" fill="none" xmlns="http://www.w3.org/2000/svg">
<circle opacity="0.4" cx="8" cy="7.5" r="7.5" fill="#1D7ED8"/>
<path d="M8.75 3.75C8.75 4.16421 8.41421 4.5 8 4.5C7.58579 4.5 7.25 4.16421 7.25 3.75C7.25 3.33579 7.58579 3 8 3C8.41421 3 8.75 3.33579 8.75 3.75Z" fill="#1D7ED8"/>
<path fill-rule="evenodd" clip-rule="evenodd" d="M6.6875 6C6.6875 5.68934 6.93934 5.4375 7.25 5.4375H8C8.31066 5.4375 8.5625 5.68934 8.5625 6V11.25C8.5625 11.5607 8.31066 11.8125 8 11.8125C7.68934 11.8125 7.4375 11.5607 7.4375 11.25V6.5625H7.25C6.93934 6.5625 6.6875 6.31066 6.6875 6Z" fill="#1D7ED8"/>
</svg>
