<svg width="141" height="141" viewBox="0 0 141 141" fill="none" xmlns="http://www.w3.org/2000/svg">
<path id="Vector" d="M0.976868 0.722656H6.57795V6.32374H0.976868V0.722656ZM6.57795 0.722656H12.179V6.32374H6.57795V0.722656ZM12.179 0.722656H17.7801V6.32374H12.179V0.722656ZM17.7801 0.722656H23.3812V6.32374H17.7801V0.722656ZM23.3812 0.722656H28.9823V6.32374H23.3812V0.722656ZM28.9823 0.722656H34.5834V6.32374H28.9823V0.722656ZM34.5834 0.722656H40.1845V6.32374H34.5834V0.722656ZM62.5888 0.722656H68.1899V6.32374H62.5888V0.722656ZM79.392 0.722656H84.9931V6.32374H79.392V0.722656ZM84.9931 0.722656H90.5942V6.32374H84.9931V0.722656ZM90.5942 0.722656H96.1953V6.32374H90.5942V0.722656ZM101.796 0.722656H107.397V6.32374H101.796V0.722656ZM107.397 0.722656H112.999V6.32374H107.397V0.722656ZM112.999 0.722656H118.6V6.32374H112.999V0.722656ZM118.6 0.722656H124.201V6.32374H118.6V0.722656ZM124.201 0.722656H129.802V6.32374H124.201V0.722656ZM129.802 0.722656H135.403V6.32374H129.802V0.722656ZM135.403 0.722656H141.004V6.32374H135.403V0.722656ZM0.976868 6.32374H6.57795V11.9248H0.976868V6.32374ZM34.5834 6.32374H40.1845V11.9248H34.5834V6.32374ZM51.3866 6.32374H56.9877V11.9248H51.3866V6.32374ZM73.791 6.32374H79.392V11.9248H73.791V6.32374ZM79.392 6.32374H84.9931V11.9248H79.392V6.32374ZM90.5942 6.32374H96.1953V11.9248H90.5942V6.32374ZM101.796 6.32374H107.397V11.9248H101.796V6.32374ZM135.403 6.32374H141.004V11.9248H135.403V6.32374ZM0.976868 11.9248H6.57795V17.5259H0.976868V11.9248ZM12.179 11.9248H17.7801V17.5259H12.179V11.9248ZM17.7801 11.9248H23.3812V17.5259H17.7801V11.9248ZM23.3812 11.9248H28.9823V17.5259H23.3812V11.9248ZM34.5834 11.9248H40.1845V17.5259H34.5834V11.9248ZM51.3866 11.9248H56.9877V17.5259H51.3866V11.9248ZM56.9877 11.9248H62.5888V17.5259H56.9877V11.9248ZM68.1899 11.9248H73.791V17.5259H68.1899V11.9248ZM79.392 11.9248H84.9931V17.5259H79.392V11.9248ZM84.9931 11.9248H90.5942V17.5259H84.9931V11.9248ZM101.796 11.9248H107.397V17.5259H101.796V11.9248ZM112.999 11.9248H118.6V17.5259H112.999V11.9248ZM118.6 11.9248H124.201V17.5259H118.6V11.9248ZM124.201 11.9248H129.802V17.5259H124.201V11.9248ZM135.403 11.9248H141.004V17.5259H135.403V11.9248ZM0.976868 17.5259H6.57795V23.127H0.976868V17.5259ZM12.179 17.5259H17.7801V23.127H12.179V17.5259ZM17.7801 17.5259H23.3812V23.127H17.7801V17.5259ZM23.3812 17.5259H28.9823V23.127H23.3812V17.5259ZM34.5834 17.5259H40.1845V23.127H34.5834V17.5259ZM45.7855 17.5259H51.3866V23.127H45.7855V17.5259ZM51.3866 17.5259H56.9877V23.127H51.3866V17.5259ZM68.1899 17.5259H73.791V23.127H68.1899V17.5259ZM79.392 17.5259H84.9931V23.127H79.392V17.5259ZM84.9931 17.5259H90.5942V23.127H84.9931V17.5259ZM101.796 17.5259H107.397V23.127H101.796V17.5259ZM112.999 17.5259H118.6V23.127H112.999V17.5259ZM118.6 17.5259H124.201V23.127H118.6V17.5259ZM124.201 17.5259H129.802V23.127H124.201V17.5259ZM135.403 17.5259H141.004V23.127H135.403V17.5259ZM0.976868 23.127H6.57795V28.7281H0.976868V23.127ZM12.179 23.127H17.7801V28.7281H12.179V23.127ZM17.7801 23.127H23.3812V28.7281H17.7801V23.127ZM23.3812 23.127H28.9823V28.7281H23.3812V23.127ZM34.5834 23.127H40.1845V28.7281H34.5834V23.127ZM56.9877 23.127H62.5888V28.7281H56.9877V23.127ZM62.5888 23.127H68.1899V28.7281H62.5888V23.127ZM68.1899 23.127H73.791V28.7281H68.1899V23.127ZM73.791 23.127H79.392V28.7281H73.791V23.127ZM79.392 23.127H84.9931V28.7281H79.392V23.127ZM101.796 23.127H107.397V28.7281H101.796V23.127ZM112.999 23.127H118.6V28.7281H112.999V23.127ZM118.6 23.127H124.201V28.7281H118.6V23.127ZM124.201 23.127H129.802V28.7281H124.201V23.127ZM135.403 23.127H141.004V28.7281H135.403V23.127ZM0.976868 28.7281H6.57795V34.3292H0.976868V28.7281ZM34.5834 28.7281H40.1845V34.3292H34.5834V28.7281ZM45.7855 28.7281H51.3866V34.3292H45.7855V28.7281ZM62.5888 28.7281H68.1899V34.3292H62.5888V28.7281ZM90.5942 28.7281H96.1953V34.3292H90.5942V28.7281ZM101.796 28.7281H107.397V34.3292H101.796V28.7281ZM135.403 28.7281H141.004V34.3292H135.403V28.7281ZM0.976868 34.3292H6.57795V39.9302H0.976868V34.3292ZM6.57795 34.3292H12.179V39.9302H6.57795V34.3292ZM12.179 34.3292H17.7801V39.9302H12.179V34.3292ZM17.7801 34.3292H23.3812V39.9302H17.7801V34.3292ZM23.3812 34.3292H28.9823V39.9302H23.3812V34.3292ZM28.9823 34.3292H34.5834V39.9302H28.9823V34.3292ZM34.5834 34.3292H40.1845V39.9302H34.5834V34.3292ZM45.7855 34.3292H51.3866V39.9302H45.7855V34.3292ZM56.9877 34.3292H62.5888V39.9302H56.9877V34.3292ZM68.1899 34.3292H73.791V39.9302H68.1899V34.3292ZM79.392 34.3292H84.9931V39.9302H79.392V34.3292ZM90.5942 34.3292H96.1953V39.9302H90.5942V34.3292ZM101.796 34.3292H107.397V39.9302H101.796V34.3292ZM107.397 34.3292H112.999V39.9302H107.397V34.3292ZM112.999 34.3292H118.6V39.9302H112.999V34.3292ZM118.6 34.3292H124.201V39.9302H118.6V34.3292ZM124.201 34.3292H129.802V39.9302H124.201V34.3292ZM129.802 34.3292H135.403V39.9302H129.802V34.3292ZM135.403 34.3292H141.004V39.9302H135.403V34.3292ZM45.7855 39.9302H51.3866V45.5313H45.7855V39.9302ZM51.3866 39.9302H56.9877V45.5313H51.3866V39.9302ZM56.9877 39.9302H62.5888V45.5313H56.9877V39.9302ZM79.392 39.9302H84.9931V45.5313H79.392V39.9302ZM84.9931 39.9302H90.5942V45.5313H84.9931V39.9302ZM90.5942 39.9302H96.1953V45.5313H90.5942V39.9302ZM6.57795 45.5313H12.179V51.1324H6.57795V45.5313ZM12.179 45.5313H17.7801V51.1324H12.179V45.5313ZM34.5834 45.5313H40.1845V51.1324H34.5834V45.5313ZM73.791 45.5313H79.392V51.1324H73.791V45.5313ZM79.392 45.5313H84.9931V51.1324H79.392V45.5313ZM90.5942 45.5313H96.1953V51.1324H90.5942V45.5313ZM101.796 45.5313H107.397V51.1324H101.796V45.5313ZM107.397 45.5313H112.999V51.1324H107.397V45.5313ZM118.6 45.5313H124.201V51.1324H118.6V45.5313ZM6.57795 51.1324H12.179V56.7335H6.57795V51.1324ZM12.179 51.1324H17.7801V56.7335H12.179V51.1324ZM23.3812 51.1324H28.9823V56.7335H23.3812V51.1324ZM40.1845 51.1324H45.7855V56.7335H40.1845V51.1324ZM56.9877 51.1324H62.5888V56.7335H56.9877V51.1324ZM62.5888 51.1324H68.1899V56.7335H62.5888V51.1324ZM68.1899 51.1324H73.791V56.7335H68.1899V51.1324ZM73.791 51.1324H79.392V56.7335H73.791V51.1324ZM79.392 51.1324H84.9931V56.7335H79.392V51.1324ZM84.9931 51.1324H90.5942V56.7335H84.9931V51.1324ZM90.5942 51.1324H96.1953V56.7335H90.5942V51.1324ZM101.796 51.1324H107.397V56.7335H101.796V51.1324ZM107.397 51.1324H112.999V56.7335H107.397V51.1324ZM118.6 51.1324H124.201V56.7335H118.6V51.1324ZM129.802 51.1324H135.403V56.7335H129.802V51.1324ZM135.403 51.1324H141.004V56.7335H135.403V51.1324ZM34.5834 56.7335H40.1845V62.3346H34.5834V56.7335ZM62.5888 56.7335H68.1899V62.3346H62.5888V56.7335ZM84.9931 56.7335H90.5942V62.3346H84.9931V56.7335ZM96.1953 56.7335H101.796V62.3346H96.1953V56.7335ZM107.397 56.7335H112.999V62.3346H107.397V56.7335ZM118.6 56.7335H124.201V62.3346H118.6V56.7335ZM124.201 56.7335H129.802V62.3346H124.201V56.7335ZM135.403 56.7335H141.004V62.3346H135.403V56.7335ZM0.976868 62.3346H6.57795V67.9357H0.976868V62.3346ZM6.57795 62.3346H12.179V67.9357H6.57795V62.3346ZM23.3812 62.3346H28.9823V67.9357H23.3812V62.3346ZM40.1845 62.3346H45.7855V67.9357H40.1845V62.3346ZM51.3866 62.3346H56.9877V67.9357H51.3866V62.3346ZM56.9877 62.3346H62.5888V67.9357H56.9877V62.3346ZM73.791 62.3346H79.392V67.9357H73.791V62.3346ZM84.9931 62.3346H90.5942V67.9357H84.9931V62.3346ZM96.1953 62.3346H101.796V67.9357H96.1953V62.3346ZM107.397 62.3346H112.999V67.9357H107.397V62.3346ZM118.6 62.3346H124.201V67.9357H118.6V62.3346ZM0.976868 67.9357H6.57795V73.5367H0.976868V67.9357ZM6.57795 67.9357H12.179V73.5367H6.57795V67.9357ZM17.7801 67.9357H23.3812V73.5367H17.7801V67.9357ZM34.5834 67.9357H40.1845V73.5367H34.5834V67.9357ZM40.1845 67.9357H45.7855V73.5367H40.1845V67.9357ZM45.7855 67.9357H51.3866V73.5367H45.7855V67.9357ZM51.3866 67.9357H56.9877V73.5367H51.3866V67.9357ZM56.9877 67.9357H62.5888V73.5367H56.9877V67.9357ZM73.791 67.9357H79.392V73.5367H73.791V67.9357ZM84.9931 67.9357H90.5942V73.5367H84.9931V67.9357ZM90.5942 67.9357H96.1953V73.5367H90.5942V67.9357ZM101.796 67.9357H107.397V73.5367H101.796V67.9357ZM107.397 67.9357H112.999V73.5367H107.397V67.9357ZM135.403 67.9357H141.004V73.5367H135.403V67.9357ZM12.179 73.5367H17.7801V79.1378H12.179V73.5367ZM17.7801 73.5367H23.3812V79.1378H17.7801V73.5367ZM23.3812 73.5367H28.9823V79.1378H23.3812V73.5367ZM56.9877 73.5367H62.5888V79.1378H56.9877V73.5367ZM62.5888 73.5367H68.1899V79.1378H62.5888V73.5367ZM68.1899 73.5367H73.791V79.1378H68.1899V73.5367ZM84.9931 73.5367H90.5942V79.1378H84.9931V73.5367ZM90.5942 73.5367H96.1953V79.1378H90.5942V73.5367ZM101.796 73.5367H107.397V79.1378H101.796V73.5367ZM107.397 73.5367H112.999V79.1378H107.397V73.5367ZM129.802 73.5367H135.403V79.1378H129.802V73.5367ZM135.403 73.5367H141.004V79.1378H135.403V73.5367ZM0.976868 79.1378H6.57795V84.7389H0.976868V79.1378ZM6.57795 79.1378H12.179V84.7389H6.57795V79.1378ZM17.7801 79.1378H23.3812V84.7389H17.7801V79.1378ZM28.9823 79.1378H34.5834V84.7389H28.9823V79.1378ZM34.5834 79.1378H40.1845V84.7389H34.5834V79.1378ZM45.7855 79.1378H51.3866V84.7389H45.7855V79.1378ZM51.3866 79.1378H56.9877V84.7389H51.3866V79.1378ZM56.9877 79.1378H62.5888V84.7389H56.9877V79.1378ZM68.1899 79.1378H73.791V84.7389H68.1899V79.1378ZM84.9931 79.1378H90.5942V84.7389H84.9931V79.1378ZM90.5942 79.1378H96.1953V84.7389H90.5942V79.1378ZM101.796 79.1378H107.397V84.7389H101.796V79.1378ZM118.6 79.1378H124.201V84.7389H118.6V79.1378ZM124.201 79.1378H129.802V84.7389H124.201V79.1378ZM135.403 79.1378H141.004V84.7389H135.403V79.1378ZM12.179 84.7389H17.7801V90.34H12.179V84.7389ZM17.7801 84.7389H23.3812V90.34H17.7801V84.7389ZM23.3812 84.7389H28.9823V90.34H23.3812V84.7389ZM40.1845 84.7389H45.7855V90.34H40.1845V84.7389ZM56.9877 84.7389H62.5888V90.34H56.9877V84.7389ZM79.392 84.7389H84.9931V90.34H79.392V84.7389ZM84.9931 84.7389H90.5942V90.34H84.9931V84.7389ZM90.5942 84.7389H96.1953V90.34H90.5942V84.7389ZM96.1953 84.7389H101.796V90.34H96.1953V84.7389ZM101.796 84.7389H107.397V90.34H101.796V84.7389ZM107.397 84.7389H112.999V90.34H107.397V84.7389ZM112.999 84.7389H118.6V90.34H112.999V84.7389ZM118.6 84.7389H124.201V90.34H118.6V84.7389ZM0.976868 90.34H6.57795V95.9411H0.976868V90.34ZM6.57795 90.34H12.179V95.9411H6.57795V90.34ZM12.179 90.34H17.7801V95.9411H12.179V90.34ZM23.3812 90.34H28.9823V95.9411H23.3812V90.34ZM34.5834 90.34H40.1845V95.9411H34.5834V90.34ZM45.7855 90.34H51.3866V95.9411H45.7855V90.34ZM62.5888 90.34H68.1899V95.9411H62.5888V90.34ZM90.5942 90.34H96.1953V95.9411H90.5942V90.34ZM96.1953 90.34H101.796V95.9411H96.1953V90.34ZM101.796 90.34H107.397V95.9411H101.796V90.34ZM107.397 90.34H112.999V95.9411H107.397V90.34ZM112.999 90.34H118.6V95.9411H112.999V90.34ZM129.802 90.34H135.403V95.9411H129.802V90.34ZM45.7855 95.9411H51.3866V101.542H45.7855V95.9411ZM51.3866 95.9411H56.9877V101.542H51.3866V95.9411ZM56.9877 95.9411H62.5888V101.542H56.9877V95.9411ZM62.5888 95.9411H68.1899V101.542H62.5888V95.9411ZM73.791 95.9411H79.392V101.542H73.791V95.9411ZM79.392 95.9411H84.9931V101.542H79.392V95.9411ZM90.5942 95.9411H96.1953V101.542H90.5942V95.9411ZM112.999 95.9411H118.6V101.542H112.999V95.9411ZM135.403 95.9411H141.004V101.542H135.403V95.9411ZM0.976868 101.542H6.57795V107.143H0.976868V101.542ZM6.57795 101.542H12.179V107.143H6.57795V101.542ZM12.179 101.542H17.7801V107.143H12.179V101.542ZM17.7801 101.542H23.3812V107.143H17.7801V101.542ZM23.3812 101.542H28.9823V107.143H23.3812V101.542ZM28.9823 101.542H34.5834V107.143H28.9823V101.542ZM34.5834 101.542H40.1845V107.143H34.5834V101.542ZM56.9877 101.542H62.5888V107.143H56.9877V101.542ZM62.5888 101.542H68.1899V107.143H62.5888V101.542ZM79.392 101.542H84.9931V107.143H79.392V101.542ZM90.5942 101.542H96.1953V107.143H90.5942V101.542ZM101.796 101.542H107.397V107.143H101.796V101.542ZM112.999 101.542H118.6V107.143H112.999V101.542ZM135.403 101.542H141.004V107.143H135.403V101.542ZM0.976868 107.143H6.57795V112.744H0.976868V107.143ZM34.5834 107.143H40.1845V112.744H34.5834V107.143ZM51.3866 107.143H56.9877V112.744H51.3866V107.143ZM56.9877 107.143H62.5888V112.744H56.9877V107.143ZM68.1899 107.143H73.791V112.744H68.1899V107.143ZM73.791 107.143H79.392V112.744H73.791V107.143ZM90.5942 107.143H96.1953V112.744H90.5942V107.143ZM112.999 107.143H118.6V112.744H112.999V107.143ZM129.802 107.143H135.403V112.744H129.802V107.143ZM0.976868 112.744H6.57795V118.345H0.976868V112.744ZM12.179 112.744H17.7801V118.345H12.179V112.744ZM17.7801 112.744H23.3812V118.345H17.7801V112.744ZM23.3812 112.744H28.9823V118.345H23.3812V112.744ZM34.5834 112.744H40.1845V118.345H34.5834V112.744ZM51.3866 112.744H56.9877V118.345H51.3866V112.744ZM56.9877 112.744H62.5888V118.345H56.9877V112.744ZM79.392 112.744H84.9931V118.345H79.392V112.744ZM84.9931 112.744H90.5942V118.345H84.9931V112.744ZM90.5942 112.744H96.1953V118.345H90.5942V112.744ZM96.1953 112.744H101.796V118.345H96.1953V112.744ZM101.796 112.744H107.397V118.345H101.796V112.744ZM107.397 112.744H112.999V118.345H107.397V112.744ZM112.999 112.744H118.6V118.345H112.999V112.744ZM129.802 112.744H135.403V118.345H129.802V112.744ZM135.403 112.744H141.004V118.345H135.403V112.744ZM0.976868 118.345H6.57795V123.946H0.976868V118.345ZM12.179 118.345H17.7801V123.946H12.179V118.345ZM17.7801 118.345H23.3812V123.946H17.7801V118.345ZM23.3812 118.345H28.9823V123.946H23.3812V118.345ZM34.5834 118.345H40.1845V123.946H34.5834V118.345ZM51.3866 118.345H56.9877V123.946H51.3866V118.345ZM56.9877 118.345H62.5888V123.946H56.9877V118.345ZM62.5888 118.345H68.1899V123.946H62.5888V118.345ZM68.1899 118.345H73.791V123.946H68.1899V118.345ZM84.9931 118.345H90.5942V123.946H84.9931V118.345ZM96.1953 118.345H101.796V123.946H96.1953V118.345ZM112.999 118.345H118.6V123.946H112.999V118.345ZM124.201 118.345H129.802V123.946H124.201V118.345ZM129.802 118.345H135.403V123.946H129.802V118.345ZM0.976868 123.946H6.57795V129.548H0.976868V123.946ZM12.179 123.946H17.7801V129.548H12.179V123.946ZM17.7801 123.946H23.3812V129.548H17.7801V123.946ZM23.3812 123.946H28.9823V129.548H23.3812V123.946ZM34.5834 123.946H40.1845V129.548H34.5834V123.946ZM45.7855 123.946H51.3866V129.548H45.7855V123.946ZM73.791 123.946H79.392V129.548H73.791V123.946ZM79.392 123.946H84.9931V129.548H79.392V123.946ZM84.9931 123.946H90.5942V129.548H84.9931V123.946ZM90.5942 123.946H96.1953V129.548H90.5942V123.946ZM96.1953 123.946H101.796V129.548H96.1953V123.946ZM107.397 123.946H112.999V129.548H107.397V123.946ZM112.999 123.946H118.6V129.548H112.999V123.946ZM118.6 123.946H124.201V129.548H118.6V123.946ZM129.802 123.946H135.403V129.548H129.802V123.946ZM135.403 123.946H141.004V129.548H135.403V123.946ZM0.976868 129.548H6.57795V135.149H0.976868V129.548ZM34.5834 129.548H40.1845V135.149H34.5834V129.548ZM45.7855 129.548H51.3866V135.149H45.7855V129.548ZM51.3866 129.548H56.9877V135.149H51.3866V129.548ZM56.9877 129.548H62.5888V135.149H56.9877V129.548ZM73.791 129.548H79.392V135.149H73.791V129.548ZM90.5942 129.548H96.1953V135.149H90.5942V129.548ZM96.1953 129.548H101.796V135.149H96.1953V129.548ZM101.796 129.548H107.397V135.149H101.796V129.548ZM107.397 129.548H112.999V135.149H107.397V129.548ZM112.999 129.548H118.6V135.149H112.999V129.548ZM0.976868 135.149H6.57795V140.75H0.976868V135.149ZM6.57795 135.149H12.179V140.75H6.57795V135.149ZM12.179 135.149H17.7801V140.75H12.179V135.149ZM17.7801 135.149H23.3812V140.75H17.7801V135.149ZM23.3812 135.149H28.9823V140.75H23.3812V135.149ZM28.9823 135.149H34.5834V140.75H28.9823V135.149ZM34.5834 135.149H40.1845V140.75H34.5834V135.149ZM56.9877 135.149H62.5888V140.75H56.9877V135.149ZM68.1899 135.149H73.791V140.75H68.1899V135.149ZM90.5942 135.149H96.1953V140.75H90.5942V135.149ZM101.796 135.149H107.397V140.75H101.796V135.149ZM118.6 135.149H124.201V140.75H118.6V135.149ZM135.403 135.149H141.004V140.75H135.403V135.149Z" fill="black"/>
</svg>
