<svg width="16" height="16" viewBox="0 0 16 16" fill="none" xmlns="http://www.w3.org/2000/svg">
<g id="UniqIcons/interface/outline/star">
<path id="Star 2" d="M7.14015 2.396C7.49586 1.64664 8.50398 1.64665 8.85968 2.396L9.78682 4.34918C10.0685 4.94255 10.6182 5.36325 11.265 5.46096L13.3381 5.77417C14.1073 5.89038 14.4673 6.91428 13.8674 7.52219L12.3673 9.04253C11.9078 9.50825 11.7024 10.1733 11.8093 10.821L12.1634 12.9677C12.3079 13.844 11.4422 14.4155 10.7746 14.0505L8.92029 13.037C8.34479 12.7224 7.65505 12.7224 7.07955 13.037L5.22528 14.0505C4.55765 14.4155 3.69189 13.844 3.83644 12.9677L4.19058 10.821C4.29741 10.1734 4.09208 9.50825 3.63255 9.04253L2.13241 7.52219C1.53258 6.91428 1.89249 5.89038 2.66172 5.77417L4.73486 5.46096C5.38166 5.36325 5.93136 4.94255 6.21302 4.34918L7.14015 2.396Z" stroke="#F9A830" stroke-linejoin="round"/>
</g>
</svg>
