<svg width="97" height="96" viewBox="0 0 97 96" fill="none" xmlns="http://www.w3.org/2000/svg">
<g id="remove-circle">
<path id="Subtract" fill-rule="evenodd" clip-rule="evenodd" d="M88.5 48C88.5 70.0914 70.5914 88 48.5 88C26.4086 88 8.5 70.0914 8.5 48C8.5 25.9086 26.4086 8 48.5 8C70.5914 8 88.5 25.9086 88.5 48ZM61.9351 61.4348C60.7635 62.6064 58.864 62.6064 57.6924 61.4348L48.5 52.2424L39.3076 61.4348C38.136 62.6064 36.2365 62.6064 35.065 61.4348C33.8934 60.2633 33.8934 58.3638 35.065 57.1922L44.2574 47.9998L35.065 38.8074C33.8934 37.6358 33.8934 35.7363 35.065 34.5647C36.2366 33.3932 38.1361 33.3932 39.3077 34.5647L48.5 43.7571L57.6924 34.5648C58.864 33.3932 60.7634 33.3932 61.935 34.5648C63.1066 35.7363 63.1066 37.6358 61.935 38.8074L52.7427 47.9998L61.9351 57.1922C63.1066 58.3637 63.1066 60.2632 61.9351 61.4348Z" fill="#E82C71"/>
</g>
</svg>
