<svg width="48" height="48" viewBox="0 0 48 48" fill="none" xmlns="http://www.w3.org/2000/svg">
<g id="Frame 2087326087">
<rect width="48" height="48" rx="24" fill="#FAF8FF"/>
<g id="Group 48095510" opacity="0.4">
<path id="Vector" d="M25.1612 6.24632C25.4542 6.29463 25.7429 6.36917 26.0272 6.46994L26.784 6.77586L27.0076 6.89285L27.5517 7.21534C28.0876 7.567 28.5752 7.97921 29.0146 8.45199L29.0679 8.5198L29.3453 8.84851C29.3564 8.86197 29.3702 8.8718 29.3867 8.87801L29.8997 9.06747L29.9189 9.07834L30.7745 9.5261C31.5745 10.0441 32.222 10.7089 32.7173 11.5206L33.0004 12.0237L33.0993 12.2587L33.4228 13.1009L33.6029 13.8381C33.7096 14.365 33.7693 14.857 33.782 15.3139C33.7852 15.4177 33.7922 15.4909 33.8033 15.5334L33.8002 16.1597L33.7453 16.931L33.5476 18.3488L33.3938 19.2775L33.2851 19.8143C32.9935 21.235 32.5851 22.6106 32.0598 23.9409C32.0557 23.9514 32.0492 23.9607 32.0407 23.968C32.0322 23.9754 32.022 23.9806 32.011 23.9832C32.0001 23.9857 31.9886 23.9857 31.9776 23.9829C31.9667 23.9801 31.9565 23.9748 31.948 23.9673C31.5003 23.5687 31.4666 22.8378 31.4671 22.286C31.4675 21.1296 31.4749 19.9737 31.4894 18.8183C31.4956 18.3121 31.3036 18.0113 30.9526 17.6055C29.2894 15.684 28.734 12.9115 29.0953 10.4439C29.0957 10.4415 29.0952 10.4391 29.0939 10.4371C29.0927 10.4351 29.0907 10.4336 29.0885 10.4329C29.0862 10.4322 29.0837 10.4324 29.0816 10.4333C29.0794 10.4343 29.0777 10.436 29.0767 10.4382C28.4788 11.6298 27.3167 12.0936 26.0397 12.1138C24.5338 12.1376 22.6242 12.1164 20.9937 12.414C20.3031 12.5403 19.6462 12.7914 19.0774 13.2314C18.0804 14.0027 17.306 14.9463 16.924 16.1675C16.367 17.9487 16.3892 19.7651 16.3131 21.6219C16.2807 22.4142 16.2372 22.9938 16.1827 23.3606C16.1289 23.7233 15.9399 23.9706 15.6159 24.1024C15.612 24.104 15.6077 24.1048 15.6035 24.1046C15.5993 24.1044 15.5951 24.1034 15.5913 24.1014C15.5875 24.0995 15.5842 24.0968 15.5816 24.0935C15.5789 24.0902 15.577 24.0863 15.576 24.0822L14.4657 19.6962L14.3663 19.2604L14.1887 18.5062L14.0262 17.7043L13.9863 17.4636C13.8452 16.5032 13.8371 15.551 13.962 14.6068L14.0888 13.8552L14.3052 13.0601C14.3156 12.981 14.3323 12.9282 14.3554 12.9017L14.5889 12.2965L14.9704 11.5573L15.1774 11.2266L15.3151 11.0117C15.3202 11.0039 15.3271 10.9972 15.3353 10.9921C15.4074 10.9462 15.4663 10.8761 15.5118 10.7819C15.5836 10.6922 15.6619 10.5999 15.7468 10.505C15.8633 10.3745 16.0429 10.2544 16.1698 10.0965L16.2676 10.0132L16.7314 9.63998L17.4028 9.21707L17.5125 9.05919L17.9002 8.63679L18.3123 8.23199L18.9894 7.70141L19.1296 7.61289L19.6877 7.31991C20.1903 7.01398 20.8073 6.85869 21.3716 6.7505L21.7018 6.73238C21.7239 6.73135 21.7263 6.73756 21.7091 6.75102L21.6019 6.83436C21.4542 6.93306 21.3469 7.07109 21.2799 7.24847L21.1422 7.59426C21.1122 7.78165 21.1115 7.97783 21.1402 8.18282C21.1426 8.19869 21.1517 8.20663 21.1676 8.20663C21.7199 8.21543 22.2862 7.88673 22.7464 7.55544L22.8727 7.45346L23.3862 6.88716C23.5053 6.74584 23.7936 6.33639 23.76 6.14175C23.7572 6.12726 23.7632 6.12001 23.7781 6.12001C24.2419 6.11242 24.7029 6.15452 25.1612 6.24632Z" fill="#002168" fill-opacity="0.4"/>
<path id="Vector_2" opacity="0.4" d="M33.285 19.8134C33.4398 19.9102 33.578 20.0722 33.7369 20.0753C33.7528 20.0757 33.761 20.084 33.7617 20.1002C33.7704 20.3583 33.8069 20.6058 33.8715 20.8425L33.9362 21.6252L33.903 22.3887L33.8197 23.1522L33.7638 23.733C33.7006 23.7447 33.6756 23.806 33.6887 23.9168L33.432 24.7202L33.0903 25.4935C33.0403 25.5543 33.0093 25.621 32.9972 25.6938L32.5209 26.2695L32.2238 26.504C32.0349 26.5086 31.9365 26.4475 31.76 26.403C31.7563 26.4021 31.7524 26.402 31.7486 26.4027C31.7449 26.4034 31.7413 26.4049 31.7382 26.4071C31.735 26.4094 31.7324 26.4122 31.7304 26.4155C31.7285 26.4188 31.7273 26.4225 31.7269 26.4263L31.6715 27.0345L31.5012 27.8219C31.4467 27.8957 31.4172 27.9784 31.4127 28.0698L31.2574 28.5875L30.9597 29.3769C30.7925 29.6906 30.6636 30.0219 30.4913 30.319C30.3763 30.5171 30.2637 30.7164 30.1532 30.9169L29.8597 31.3827L29.6837 31.669C29.6679 31.6946 29.6523 31.8475 29.6242 31.8419C29.6241 31.839 29.6231 31.8363 29.6214 31.834C29.6197 31.8317 29.6174 31.83 29.6147 31.8291C29.612 31.8282 29.609 31.8282 29.6063 31.829C29.6036 31.8298 29.6012 31.8314 29.5994 31.8336C28.2573 33.5715 26.4799 34.5412 24.2671 34.7428C22.0454 34.9446 19.2553 33.7675 18.133 31.7658C18.1282 31.7572 18.121 31.7542 18.1113 31.757C18.1061 31.7584 18.1006 31.7603 18.0947 31.7627C18.0823 31.7675 18.0783 31.7763 18.0828 31.7891C18.7459 33.6148 20.3537 34.9949 21.9812 35.9551C24.2992 37.3232 27.1364 37.5613 29.7257 36.9319C29.3897 38.1106 27.6478 38.873 26.7042 39.4751C25.1683 40.4555 23.9829 42.0886 23.8509 43.9351C23.8502 43.9447 23.8449 43.9496 23.8349 43.9496C23.8303 43.9495 23.8259 43.9477 23.8226 43.9445C23.8192 43.9413 23.8171 43.9371 23.8168 43.9325C23.662 42.348 22.9259 40.8504 21.6582 39.8907C21.2705 39.5967 20.7565 39.326 20.2958 39.0666C19.7785 38.7754 19.2815 38.4531 18.8049 38.0997C18.5197 37.888 17.9891 37.4904 17.9902 37.0996C17.9919 36.2948 17.9916 35.4899 17.9891 34.6848C17.9886 34.4389 17.9669 34.0631 17.9922 33.7396C17.9926 33.7335 17.9915 33.7274 17.9889 33.7219C17.9864 33.7164 17.9825 33.7116 17.9777 33.708C17.9728 33.7044 17.9671 33.702 17.9612 33.7012C17.9552 33.7004 17.9492 33.7011 17.9436 33.7033L17.8892 33.7251C17.9907 33.5922 18.0195 33.4362 17.9757 33.2571L18.0005 32.4501L17.9814 31.7213C17.9897 31.5832 17.9476 31.4594 17.8551 31.3496C17.5533 30.9919 17.3147 30.57 17.0921 30.1616C16.8436 29.654 16.6315 29.1338 16.4559 28.6009L16.2286 27.811L16.05 27.0418C16.0518 26.8779 16.0155 26.7267 15.9413 26.5883L15.9222 26.3492C15.9201 26.324 15.9096 26.3198 15.8906 26.3368C15.6522 26.5476 15.417 26.558 15.1851 26.3678L15.066 26.256C14.8721 26.022 14.7004 25.7718 14.551 25.5054C14.4097 25.2566 14.3178 24.9746 14.1731 24.716L13.9272 23.9395L13.7698 23.1522C13.7786 22.9229 13.7217 22.6781 13.7502 22.4586C13.7574 22.4044 13.7493 22.354 13.7258 22.3074L13.731 21.5863L13.8216 20.8487L13.9919 20.0614C14.0815 19.8719 14.1865 19.8284 14.3429 19.7156C14.3691 19.6963 14.397 19.6969 14.4267 19.7177C14.4381 19.7256 14.4479 19.7239 14.4562 19.7125C14.46 19.707 14.4631 19.7013 14.4655 19.6954L15.5759 24.0814C15.5769 24.0855 15.5788 24.0893 15.5814 24.0927C15.5841 24.096 15.5874 24.0987 15.5912 24.1006C15.595 24.1025 15.5991 24.1036 15.6034 24.1038C15.6076 24.1039 15.6118 24.1032 15.6157 24.1016C15.9398 23.9697 16.1287 23.7225 16.1826 23.3598C16.2371 22.993 16.2806 22.4134 16.313 21.621C16.3891 19.7642 16.3668 17.9478 16.9238 16.1666C17.3059 14.9455 18.0802 14.0018 19.0772 13.2305C19.6461 12.7905 20.303 12.5395 20.9935 12.4132C22.6241 12.1155 24.5337 12.1368 26.0395 12.113C27.3166 12.0928 28.4787 11.629 29.0765 10.4373C29.0775 10.4352 29.0793 10.4335 29.0815 10.4325C29.0836 10.4315 29.0861 10.4314 29.0883 10.4321C29.0906 10.4328 29.0926 10.4343 29.0938 10.4363C29.0951 10.4383 29.0956 10.4407 29.0952 10.443C28.7339 12.9106 29.2893 15.6831 30.9525 17.6046C31.3034 18.0105 31.4955 18.3112 31.4893 18.8175C31.4748 19.9728 31.4674 21.1287 31.467 22.2852C31.4665 22.837 31.5001 23.5679 31.9479 23.9665C31.9564 23.9739 31.9665 23.9793 31.9775 23.9821C31.9885 23.9848 31.9999 23.9849 32.0109 23.9823C32.0219 23.9797 32.032 23.9745 32.0405 23.9672C32.049 23.9598 32.0556 23.9505 32.0597 23.9401C32.585 22.6097 32.9934 21.2342 33.285 19.8134Z" fill="#002168" fill-opacity="0.4"/>
<path id="Vector_3" d="M29.6299 32.5141L29.6527 33.261L29.661 33.6524L29.7257 36.9337C27.1364 37.5631 24.2992 37.325 21.9812 35.9569C20.3537 34.9967 18.7459 33.6166 18.0828 31.7909C18.0784 31.7781 18.0823 31.7693 18.0947 31.7645C18.1006 31.7621 18.1061 31.7602 18.1113 31.7588C18.121 31.7561 18.1282 31.759 18.1331 31.7676C19.2553 33.7693 22.0454 34.9465 24.2671 34.7446C26.4799 34.543 28.2573 33.5733 29.5994 31.8354C29.6012 31.8332 29.6036 31.8316 29.6063 31.8308C29.609 31.83 29.612 31.83 29.6147 31.8309C29.6174 31.8318 29.6197 31.8335 29.6214 31.8358C29.6231 31.8381 29.6241 31.8409 29.6242 31.8437L29.6299 32.5141Z" fill="#002168" fill-opacity="0.4"/>
<path id="Vector_4" d="M29.661 33.6523L29.9333 33.6622C30.4603 33.9876 30.9527 34.3593 31.4106 34.7772L31.4862 34.8528L32.198 35.5257L32.2751 35.6158C32.7831 36.1403 33.2531 36.6787 33.6852 37.2308C33.7732 37.3431 33.8456 37.5062 34.0051 37.6014L34.5952 37.7221L36.0979 38.102L36.6011 38.2692L38.4247 38.9012L39.2286 39.2118L40.9415 39.9583L41.3458 40.1389L41.7024 40.2797L42.2548 40.5639C42.4846 40.6909 42.7146 40.8186 42.9448 40.947C43.0105 40.9837 43.0473 41.0401 43.1244 41.0753C43.3687 41.1866 43.6006 41.3538 43.8211 41.5065L43.935 41.5997L44.7249 42.1904L45.2188 42.6195L45.3689 42.7722L45.8555 43.355L46.2427 43.9716L46.3281 44.1263C46.5564 44.5643 46.6319 44.9023 46.7199 45.4417V47.9621H1.21393C1.20254 47.08 1.18132 46.1891 1.23412 45.3092C1.31539 44.9126 1.35525 44.5612 1.58353 44.1833L1.8791 43.6677L1.91999 43.6009L2.30616 43.0983C2.48785 42.9321 2.62968 42.7132 2.79015 42.5605C3.33523 42.0418 3.74624 41.7483 4.27113 41.3808C4.55997 41.1897 4.86487 41.0526 5.15889 40.8543C5.28623 40.7684 5.40839 40.6994 5.52538 40.6473C5.67239 40.5817 5.79455 40.5185 5.89187 40.4578L6.08754 40.3781C8.05511 39.522 10.0316 38.5392 12.1978 38.0228C12.3717 37.9814 12.5431 37.9319 12.7118 37.8742C12.7353 37.8604 12.766 37.8547 12.804 37.8572C13.2297 37.7139 13.9505 37.7733 14.1617 37.3359C14.1628 37.3273 14.1662 37.3219 14.1721 37.3198L14.433 36.9937C14.6159 36.8174 14.7872 36.6133 14.947 36.3814C15.0609 36.2968 15.1377 36.2073 15.1774 36.1127L15.6551 35.6142L15.9642 35.3036L16.4466 34.8465L16.7106 34.611L17.3566 34.0872L17.5378 33.9619L17.8893 33.7269L17.9436 33.7051C17.9492 33.703 17.9553 33.7022 17.9612 33.703C17.9672 33.7038 17.9729 33.7062 17.9777 33.7098C17.9826 33.7134 17.9864 33.7182 17.989 33.7237C17.9915 33.7292 17.9927 33.7353 17.9923 33.7414C17.9669 34.0649 17.9887 34.4407 17.9892 34.6866C17.9916 35.4917 17.992 36.2966 17.9902 37.1014C17.9892 37.4922 18.5198 37.8898 18.805 38.1015C19.2816 38.4549 19.7785 38.7772 20.2958 39.0684C20.7565 39.3278 21.2705 39.5985 21.6582 39.8925C22.926 40.8522 23.662 42.3498 23.8168 43.9343C23.8172 43.9389 23.8193 43.9432 23.8226 43.9463C23.826 43.9495 23.8303 43.9513 23.8349 43.9514C23.8449 43.9514 23.8503 43.9465 23.851 43.9369C23.983 42.0904 25.1684 40.4573 26.7042 39.4769C27.6479 38.8748 29.3898 38.1124 29.7257 36.9337L29.661 33.6523Z" fill="#002168" fill-opacity="0.4"/>
</g>
</g>
</svg>
